<svg viewBox="0 0 467.6887 500" xmlns="http://www.w3.org/2000/svg"><circle cx="65.93096" cy="396.87553" fill="#ececec" r="65.40449"/><path d="m412.58387 342.038-3.26624 2.20117c-27.534 18.55562-62.98167 21.04258-91.92529 5.39869a85.97918 85.97918 0 0 1 -10.69019-6.83407c-24.42911-18.3118-38.55561-49.695-36.2169-80.45944 1.3755-18.093 7.97279-36.61111 2.71719-53.90163-6.83975-22.50275-30.717-34.12926-52.218-43.25013-21.501-9.12083-45.36526-20.81746-52.10695-43.35116-4.22216-14.11238-.45364-29.67147 6.45785-42.77222 18.29815-34.68455 57.74627-55.04341 96.54816-56.30507 38.80194-1.26155 76.55373 14.44353 107.83065 37.30928 43.81524 32.03231 77.41529 79.97731 85.96759 134.02736 8.55231 54.05-10.42922 113.55078-53.09787 147.93722z" fill="#ececec"/><path d="m197.44241 318.733-7.7182-207.71033-.00815.00012-.09851-2.79368c-.39776-10.94271-10.30466-19.73626-22.10809-19.663l-134.515.91273c-11.81686.07958-21.05419 9.0022-20.65679 19.934l.14981 4.07925.18024-.00252-.18011.00252 10.023 269.714.10582 2.98159c.39776 10.94272 10.29124 19.74262 22.10786 19.652l134.51526-.90171c11.80367-.07322 21.06773-9.00879 20.67-19.9515zm2.3553 63.465-.04375.00024.0435-.0048z" fill="#b5def2"/><path d="m42.793 383.206h-20.282l-.262-7.038h20.282z" fill="#bfeaff"/><path d="m32.77 113.492h-20.283l.294 7.909h20.283z" fill="#bfeaff"/><path d="m209.9 108.22913c-.39777-10.94271-10.30467-19.73626-22.10821-19.663l-134.51491.91273c-11.81685.07958-21.05419 9.0022-20.65678 19.934l.1498 4.07925 177.22844-2.46811z" fill="#dfecf3"/><path d="m42.89882 386.18767-.10594-2.98159c1.41021.10618 177.28722-1.008 177.28722-1.008l-5.04125-135.59254 5.15306 138.38095c.39776 10.94271-8.86641 19.87828-20.67 19.9515l-134.51526.90171c-11.81659.09059-21.71007-8.70931-22.10783-19.65203z" fill="#dfecf3"/><path d="m54.85494 106.04881a5.12385 5.12385 0 0 0 5.34036-4.51481 4.5607 4.5607 0 0 0 -4.5458-4.86722 5.12441 5.12441 0 0 0 -5.34755 4.50709 4.564 4.564 0 0 0 4.55299 4.87494z" fill="#1b374f"/><path d="m76.34835 105.91482a5.12369 5.12369 0 0 0 5.34037-4.51476 4.56061 4.56061 0 0 0 -4.54572-4.86722 5.12456 5.12456 0 0 0 -5.34768 4.50709 4.564 4.564 0 0 0 4.55303 4.87489z" fill="#1b374f"/><path d="m136.76385 402.3279c5.02446-.03392 8.96193-3.83537 8.79163-8.48819-.17018-4.65282-4.38365-8.39926-9.4081-8.36535s-8.96193 3.83525-8.79175 8.48807 4.38364 8.39927 9.40822 8.36547z" fill="#9bb3c2"/><path d="m210.007 111.023 10.076 271.171-177.29 1.012-10.023-269.714z" fill="#326896"/><path d="m291.909 130.777 7.306 151.651-223.656 3.652-7.32-151.586z" fill="#fcfffc" opacity=".5"/><text fill="#fcfffc" font-family="Montserrat-SemiBold, Montserrat SemiBold" font-size="15.83976" font-weight="600" transform="matrix(.9329 .07601 -.00114 1 237.60203 246.38483)">12</text><text fill="#fcfffc" font-family="Montserrat-SemiBold, Montserrat SemiBold" font-size="15.83976" font-weight="600" transform="matrix(.9329 .07601 -.00114 1 200.76239 247.48414)">11</text><text fill="#fcfffc" font-family="Montserrat-SemiBold, Montserrat SemiBold" font-size="15.83976" font-weight="600" transform="matrix(.9329 .07601 -.00114 1 161.02919 248.19973)">10</text><text fill="#fcfffc" font-family="Montserrat-SemiBold, Montserrat SemiBold" font-size="15.83976" font-weight="600" transform="matrix(.9329 .07601 -.00114 1 239.83422 212.97325)">8</text><g fill="none" stroke="#1b374f" stroke-miterlimit="10" stroke-width=".5"><path d="m106.12358 149.2226 5.9197 122.58587"/><path d="m144.45711 148.80818 5.94067 123.02043"/><path d="m182.77987 148.17133 5.9222 122.63812"/><path d="m221.1026 147.53448 5.92149 122.6235"/><path d="m259.42522 146.89763 5.92209 122.63453"/><path d="m275.07864 158.1801-180.87929 3.0058"/><path d="m277.14763 191.46148-180.87941 3.00581"/><path d="m279.21661 224.74287-180.87941 3.00581"/><path d="m281.28562 258.02426-180.87943 3.00581"/></g><path d="m196.802 200.503 45.074-.75 1.891 39.154-45.087.491z" fill="#326896"/><text fill="#fcfffc" font-family="Montserrat-SemiBold, Montserrat SemiBold" font-size="21.10864" font-weight="600" transform="matrix(.9329 .07601 -.00114 1 217.70274 227.16905)">7</text><text fill="#fcfffc" font-family="Montserrat-SemiBold, Montserrat SemiBold" font-size="15.83976" font-weight="600" transform="matrix(.9329 .07601 -.00114 1 124.33168 183.54084)">1</text><text fill="#fcfffc" font-family="Montserrat-SemiBold, Montserrat SemiBold" font-size="15.83976" font-weight="600" transform="matrix(.9329 .07601 -.00114 1 161.40058 182.00069)">2</text><text fill="#fcfffc" font-family="Montserrat-SemiBold, Montserrat SemiBold" font-size="15.83976" font-weight="600" transform="matrix(.9329 .07601 -.00114 1 198.47628 180.46745)">3</text><text fill="#fcfffc" font-family="Montserrat-SemiBold, Montserrat SemiBold" font-size="15.83976" font-weight="600" transform="matrix(.9329 .07601 -.00114 1 235.54712 178.93087)">4</text><text fill="#fcfffc" font-family="Montserrat-SemiBold, Montserrat SemiBold" font-size="15.83976" font-weight="600" transform="matrix(.9329 .07601 -.00114 1 124.32479 216.06137)">5</text><text fill="#fcfffc" font-family="Montserrat-SemiBold, Montserrat SemiBold" font-size="15.83976" font-weight="600" transform="matrix(.9329 .07601 -.00114 1 126.03355 249.01517)">9</text><text fill="#fcfffc" font-family="Montserrat-SemiBold, Montserrat SemiBold" font-size="15.83976" font-weight="600" transform="matrix(.9329 .07601 -.00114 1 161.59393 214.76802)">6</text><path d="m235.44672 204.29042c-5.19666-1.73905-12.7937-.31111-17.71281 4.08081a17.11366 17.11366 0 0 0 -6.74626 2.75557c-5.33929 3.63559-8.87493 10.32731-8.04643 15.72113 1.45861 9.4974 13.57651 9.47606 22.24424 4.90713a28.02479 28.02479 0 0 0 13.10768-14.4086c2.02186-5.44046 1.99828-11.43479-2.84642-13.05604zm-8.46458 23.48175a26.93886 26.93886 0 0 1 -10.62141 5.68012c-5.75549 1.36131-9.69214-2.05664-9.9383-7.38275-.25239-5.46308 3.902-12.17866 9.19551-15.387a13.93024 13.93024 0 0 0 -2.74215 7.99347c-.02457.802 3.58765.37547 3.59017.29254a14.87415 14.87415 0 0 1 4.10417-9.56606c.18145-.19535.37835-.38542.57489-.57538a9.07908 9.07908 0 0 1 1.904.07107c1.18345.17629 3.62516-.1866 1.17351-.55176a22.83353 22.83353 0 0 0 -2.29609-.22567c4.09123-3.47631 10.41671-5.57262 12.98006-1.99492 4.02421 5.61697-1.9149 16.58245-7.92436 21.64634z" fill="#69f9e1"/><path d="m236.26394 132.51551.01234.03332c3.04452 8.27606-2.66952 16.94318-11.25634 17.07369l-79.98253 1.21558a13.04309 13.04309 0 0 1 -12.32-8.62374c-3.04812-8.2751 2.66232-16.945 11.24914-17.07908l79.97032-1.24889a13.04263 13.04263 0 0 1 12.32707 8.62912z" fill="#deebf2"/><path d="m258.695 301.003 1.542 41.497-89.062 1.241-1.542-41.498z" fill="#eae5a9"/><path d="m258.69525 301.00258-87.51987 42.73816" fill="none" stroke="#1b374f" stroke-miterlimit="10" stroke-width=".5"/><path d="m169.63333 302.24345 90.60396 40.25642" fill="none" stroke="#1b374f" stroke-miterlimit="10" stroke-width=".5"/><text fill="#414141" font-family="Montserrat-SemiBold, Montserrat SemiBold" font-size="17.72614" font-weight="600" transform="matrix(1.00235 -.02264 .01158 .99993 166.7815 143.50488)">July</text><path d="m149.565 137.53553 3.7643-3.55121a1.49925 1.49925 0 0 1 2.49347 1.0623l.43132 6.79934a1.44674 1.44674 0 0 1 -2.34726 1.24662l-4.19538-3.24813a1.53022 1.53022 0 0 1 -.14645-2.30892z" fill="#fff"/><path d="m219.42826 137.1899-3.76418 3.55122a1.49927 1.49927 0 0 1 -2.49359-1.0623l-.4312-6.79934a1.44669 1.44669 0 0 1 2.34714-1.24662l4.19551 3.24825a1.53 1.53 0 0 1 .14632 2.30879z" fill="#fff"/><path d="m371.42072 161.4051c-.12368 29.68223-23.76685 53.64623-52.80864 53.52519a52.2922 52.2922 0 0 1 -44.42831-25.36229l-30.41724 5.533 23.84691-21.76762a54.984 54.984 0 0 1 -1.36214-12.3667c.12367-29.68248 23.76709-53.64624 52.80876-53.52519 29.04179.12107 52.48446 24.28101 52.36066 53.96361z" fill="#fcfffc"/><path d="m310.37041 136.3661h18.70477v49.63961h-18.70477z" fill="#fb6767"/><path d="m294.90299 151.83352h49.63961v18.70477h-49.63961z" fill="#fb6767"/><path d="m309.767 333.98137c-3.11881 2.59893-4.15847 37.166-4.15847 37.166l25.08718-48.34194c-4.81471.51989-17.80989 8.57688-20.92871 11.17594z" fill="#412842"/><path d="m296.96179 439.58835-76.97374 12.82186 1.38612 17.6644 112.667.00012c6.58423 0 4.6116-32.41419 4.6116-32.41419z" fill="#b78a83"/><path d="m386.44173 212.01976s12.18071-28.697 42.74762-15.78333c28.14475 11.89032 31.246 56.5304-2.44722 67.69578-28.41164 9.41518-48.91934-30.00593-40.3004-51.91245z" fill="#282828"/><path d="m377.583 211.02589s23.32787-5.19164 37.12215 12.12318c14.69924 18.45046 14.8018 42.21072 4.699 49.3394z" fill="#e3cae5"/><path d="m358.72086 326.00084c-55.81805-2.42289-60.68455-26.46479-60.95144-46.04741-.38037-27.91286 16.14731-69.24129 57.21135-73.59414 76.51569-8.11068 99.91846 123.81607 3.74009 119.64155z" fill="#282828"/><path d="m301.18162 470.07461h99.43538c-2.8904-9.01742-2.98843-20.5204-7.25559-34.9912l17.83374-105.52273-29.86092-12.469s-46.52331 5.15784-50.63851 5.7138c-4.1152.55607-31.57385 42.58056-33.81865 45.28615-2.24456 2.70572 1.87064 27.39466 1.87064 32.806-.00001 3.45 1.41093 41.81745 2.43391 69.17698z" fill="#412842"/><path d="m389.24691 320.14514 6.58543 13.57628-14.49393 8.057 7.9085 8.36883s-11.59286 16.58185-14.73793 22.55955c-3.14505 5.97781.7718 61.337-12.75235 63.67609" fill="none" stroke="#1f1f1f" stroke-miterlimit="10" stroke-width=".75"/><path d="m348.12689 320.79829s-20.68794 35.79452-23.15637 44.11145c-2.4683 8.31681.75444 105.16487.75444 105.16487h37.50934s-4.172-89.57078-3.34928-100.2267c.82285-10.656 29.36189-49.70277 29.36189-49.70277l-7.91269-3.05338z" fill="#ededd1"/><path d="m353.56409 432.61439-23.91102 21.57191" fill="none" stroke="#1f1f1f" stroke-miterlimit="10" stroke-width=".75"/><path d="m357.55657 439.63173-5.81183 12.73522" fill="none" stroke="#1f1f1f" stroke-miterlimit="10" stroke-width=".75"/><path d="m324.03995 391.41982s26.3 1.38612 36.16218 0l.37176 16.03968s-27.52756.44821-36.3784-.0972z" fill="#afa67b"/><path d="m355.24407 308.94332s-9.73972 5.52433-12.07884 7.09417c-2.33911 1.57.27133 20.02305.27133 20.02305l12.59224-4.41829 6.10929 11.17581 12.35951-7.53723 11.67052 7.53723s7.47215-19.37709 7.18525-22.81362c-.28689-3.43664-12.23871-11.62426-12.23871-11.62426z" fill="#d6d5b4"/><path d="m368.85259 330.43386a13.02513 13.02513 0 0 1 -13.56418-12.94626l-.04434-8.54428c-14.47763 4.56738-25.727-2.31191-30.70331-14.77364a39.68616 39.68616 0 0 1 -2.50929-10.24846c-.04231-.45109-.08461-.91644-.127-1.36742l-3.66493-44.50417 60.94124-6.386 2.15348 85.42814a13.025 13.025 0 0 1 -12.48167 13.34209z" fill="#c69a91"/><path d="m312.14938 267.9767c2.63572-8.88535 14.00808-18.4749 21.1455-24.387 17.30224 23.59956 51.23845 30.66064 65.62837 18.59415 1.03879-8.57591-1.83938-28.462-12.48152-39.3021-14.26863-14.53384-39.48282-13.83036-51.32738-7.8384-25.07935 12.68723-26.21135 44.90105-22.96497 52.93335z" fill="#282828"/><ellipse cx="385.04881" cy="276.22158" fill="#c69a91" rx="11.12319" ry="10.51344" transform="matrix(.66030149 -.75100063 .75100063 .66030149 -76.64206 383.004)"/><path d="m389.50038 274.45511c-5.21764-2.32438-8.79067-.25227-10.43541 4.48923" fill="none" stroke="#1f1f1f" stroke-miterlimit="10" stroke-width=".75"/><path d="m346.07013 259.40978c-.03511 1.32979 7.34667 2.60289 11.73524 2.7183 4.38821.11541 5.92736-.92256 5.96248-2.25235.03487-1.33-5.29986-2.54908-9.68855-2.66461-4.3882-.11565-7.97406.86875-8.00917 2.19866z" fill="#1f1f1f"/><path d="m346.60919 275.54521c-.06614 2.514.85029 4.57792 2.04717 4.60908 1.19665.03164 2.221-1.9809 2.28687-4.49511.06627-2.51421-.8504-4.578-2.04718-4.60944-1.197-.03152-2.22071 1.98126-2.28686 4.49547z" fill="#2c1817"/><path d="m330.69547 259.00482c-.035 1.32979-7.47359 2.21268-11.862 2.09739-4.38832-.11577-5.87066-1.23355-5.8358-2.56334.03512-1.32979 5.427-2.26661 9.81522-2.15108 4.38829.11565 7.91757 1.28736 7.88258 2.61703z" fill="#1f1f1f"/><path d="m329.308 275.08944c-.06627 2.51421-1.09 4.52675-2.28686 4.49523-1.19688-.03128-2.11345-2.095-2.04729-4.6092.06627-2.51421 1.09023-4.527 2.287-4.49547s2.11358 2.09547 2.04715 4.60944z" fill="#2c1817"/><path d="m338.35434 284.23977a3.51441 3.51441 0 0 0 -2.45788.73177 2.27691 2.27691 0 0 0 -.76136 2.35613c.40867 1.25273 1.9145 1.70394 3.20474 1.97191" fill="none" stroke="#1f1f1f" stroke-miterlimit="10" stroke-width=".75"/><path d="m335.04461 297.68686h13.7316a9.77223 9.77223 0 0 1 -8.08035 4.58163c-5.46262 0-5.65125-4.58163-5.65125-4.58163z" fill="#eee"/><path d="m329.41829 289.30617c0 2.12879-1.98761 3.97547-4.87753 4.86351a39.68616 39.68616 0 0 1 -2.50929-10.24846c4.18675.42293 7.38682 2.6784 7.38682 5.38495z" fill="#e67950"/><ellipse cx="358.96202" cy="289.29958" fill="#e67950" rx="8.87052" ry="5.46021"/><path d="m390.85656 439.58835-92.15116 14.27929-.94244 16.207 130.17306.00012c6.58423 0 4.6116-32.41419 4.6116-32.41419z" fill="#c69a91"/><path d="m298.7054 453.86764s-21.9801-6.11217-25.10072-6.314c-3.1206-.2017-20.80395 12.54071-20.02389 15.40126.78019 2.86056 13.26253.52013 18.20346-5.98117 0 0 7.67457 13.52439 25.97871 13.10086z" fill="#c69a91"/><path d="m405.373 328.19806c-22.23825.29277-13.55352 109.46248-13.55352 109.46248h40.20406s4.42536-109.87163-26.65054-109.46248z" fill="#412842"/><path d="m390.857 439.588.716-12.86 27.984-3.228 3.43 6.013 4.953-6.013h7.395v14.161z" fill="#d6d5b4"/><path d="m390.85656 439.58835 2.50484-76.93108" fill="none" stroke="#1f1f1f" stroke-miterlimit="10" stroke-width=".75"/><path d="m341.91047 321.50034-16.93995 12.481 5.044 7.797-14.00987 8.36883s-2.89627 14.42166-3.00761 17.84081c-.11121 3.41927 1.66463 67.3553 11.04292 68.39483" fill="none" stroke="#1f1f1f" stroke-miterlimit="10" stroke-width=".75"/><path d="m105.07866 459.24419-55.31661-109.09695h156.46072l60.80811 119.92749h-144.31766a19.77184 19.77184 0 0 1 -17.63456-10.83054z" fill="#e3f8ff"/><path d="m257.29548 450.87405-51.07283-100.72693h-12.14307l55.31662 109.09707a19.77187 19.77187 0 0 0 17.63468 10.83054h130.82035a5.4153 5.4153 0 0 0 5.41527-5.41539 5.41529 5.41529 0 0 0 -5.41527-5.41538h-126.92746a15.28 15.28 0 0 1 -13.62829-8.36991z" fill="#bedfe8"/><path d="m361.40273 466.47414h-72.451a1.83169 1.83169 0 0 1 -1.83158-1.83169 1.83167 1.83167 0 0 1 1.83158-1.83158h72.451a1.83158 1.83158 0 0 1 1.83157 1.83158 1.83161 1.83161 0 0 1 -1.83157 1.83169z" fill="#7fbbc9"/><path d="m373.68134 464.64245a1.83158 1.83158 0 1 1 -1.83157-1.83158 1.83161 1.83161 0 0 1 1.83157 1.83158z" fill="#7fbbc9"/><path d="m380.68227 464.64245a1.83164 1.83164 0 1 1 -1.83158-1.83158 1.83169 1.83169 0 0 1 1.83158 1.83158z" fill="#7fbbc9"/></svg>