<svg xmlns="http://www.w3.org/2000/svg" viewBox="0 0 1200 1200"><defs><style>.cls-1{fill:#d6edfc;}.cls-2{fill:#90b5d2;}.cls-3{fill:#fff;}.cls-4{fill:#7f8fb8;}.cls-5{fill:#5995bd;}</style></defs><g id="medical_staff" data-name="medical staff"><path class="cls-1" d="M1064.75,104.57l.57-.39L495.16,57.28,454.88,54h0a46.15,46.15,0,0,0-8.53,6.77c-.37.31-.71.6-1,.89l-.24.21-.67.62-.27.25-.61.59-.23.23c-.53.54-1,1.1-1.58,1.71l-.26.29-.6.7-.3.36-.65.78-.32.38c-.32.38-.66.79-1,1.24l1,.08C389,130.7,397.33,262.72,405.46,390.8c6.29,99.15,16.89,266.2,8.62,405L193.91,777.66c-50.83.05-58.72,90.28-65.06,162.78-12.62,144.39-51.1,173.3-72.91,177.68l610.44,50.21c28.42-6.69,49.21-41.07,62.14-102.39l199.64,16.42c101.65-.86,98.55-277.27,97.53-368.09-1.13-92-15-318.84-16-337.07-1-36.43-1.1-72.9.33-109.42,1.54-39.23,8.65-110.7,39-148.58,7.08-7.64,9.17-9.9,12.43-12.32.46-.35,1-.7,1.48-1.06Z"/><path class="cls-2" d="M935.16,109.84l-.77-.07L792.46,98.1,470.63,71.62C459.6,87,430.29,127.83,431,256.87l546.32,44.94c-.07-90.33,12.88-150.93,39.6-185.24Z"/><path class="cls-2" d="M638.85,483.19c7.1,17,9.79,29.21,15.54,55.22-2.8-76.56-9.13-152.91-12.12-229.46L432,291.65c3,76.54,9.32,152.9,12.11,229.46l210.33,17.3C648.62,512.37,645.9,500.13,638.85,483.19Z"/><path class="cls-2" d="M1010.06,267.78c1.54-39.23,8.65-110.7,39-148.58l-21.33-1.75c-8.66,12.07-35,48.8-38.88,147.19-5.87,149.68,13.82,298.45,15.56,447.87l21.33,1.76c-1.13-92-15-318.84-16-337.07C1008.74,340.77,1008.63,304.3,1010.06,267.78Z"/><path class="cls-3" d="M997.13,435.88l14.15.51c-9.17-121.85-6.15-165.53,2.88-231l-16.69-1.17C988.45,269.85,988,314.17,997.13,435.88Z"/><path class="cls-4" d="M495.16,57.28,454.88,54h0c-4.07,3.17-6.63,5.16-8.53,6.77-.37.31-.71.6-1,.89l-.24.21-.67.62-.27.25-.61.59-.23.23c-.53.54-1,1.1-1.58,1.71l-.26.29-.6.7-.3.36-.65.78-.32.38c-.32.38-.66.79-1,1.24l1,.08,31.06,2.55L759.1,95.35l33.36,2.75,141.93,11.67.77.07,81.79,6.73,10.73.88L1049,119.2c5.9-6.37,8.33-9,10.87-11.1.51-.42,1-.82,1.56-1.22s1-.7,1.48-1.06l1.83-1.25.57-.39Z"/><path class="cls-3" d="M463.93,60l-.09-.12-.27-.22-.14-.08-.59-.15h-.18a6.75,6.75,0,0,0-1.09.08l-.38.07-.66.17a9,9,0,0,0-3.09,1.61l-.46.4-.25.27-.41.57-.07.09-.18.64v.13l.2.53v0l.09,0,.48.26.31.07a3.29,3.29,0,0,0,.78,0h.11a9.5,9.5,0,0,0,3.5-1.29,6.25,6.25,0,0,0,2.17-2l.29-.69Z"/><path class="cls-3" d="M480.18,61.35l-.08-.13-.27-.22-.14-.07-.6-.15h-.18a6.53,6.53,0,0,0-1.08.07l-.38.08-.66.17a9,9,0,0,0-3.09,1.6l-.46.41-.25.26-.42.58-.06.09-.18.64v.12l.21.55h0l.09,0,.48.25.31.08a2.71,2.71,0,0,0,.76,0h.13a9.45,9.45,0,0,0,3.49-1.29A6,6,0,0,0,480,62.52l.3-.69Z"/><path class="cls-3" d="M496.44,62.69l-.09-.13-.26-.22-.15-.08-.58-.14h-.18a6.85,6.85,0,0,0-1.1.07l-.37.07-.67.18A8.87,8.87,0,0,0,490,64l-.46.41-.25.27-.41.56-.07.1-.17.64v.12l.2.54v0l.08,0,.48.26.31.08a3.4,3.4,0,0,0,.79,0h.09a9.69,9.69,0,0,0,3.51-1.3,6.15,6.15,0,0,0,2.17-1.94l.29-.7Z"/><path class="cls-5" d="M604.69,414.14c-13.1,23.18-26,46.49-39.2,69.61-66.31-92.14-66.31-92.14-72.15-103.21-5.43,18.87-5.43,18.87-38.24,88-.16.33-.31.64-.45.95-1.93,4.08-2.66,6.08-4.54,16.37-.89,4.89-2,11.65-3.7,21.42-.18,1.06-.37,2.2-.58,3.39l-.71,4.23c-.18,1-.35,2-.51,3s-.38,2.21-.55,3.22l210.33,17.3c-5.77-26-8.49-38.28-15.54-55.22C632.59,468.17,622.93,449.45,604.69,414.14Z"/><path class="cls-5" d="M547.83,414.73a25.48,25.48,0,0,0,2.47,2.15l.44.32c.54.4,1.09.74,1.64,1.08s.79.48,1.19.69l.66.3a19.59,19.59,0,0,0,2.26.93,15,15,0,0,0,11.78-.81,17.42,17.42,0,0,0,6.2-5.52l0-.05c.31-.43.61-.85.89-1.32,2.76-4.55,4.47-10.86,4.43-18.87-.14-22.2-12.37-38.09-23.71-39a16.63,16.63,0,0,0-9.19,2.6c-11,7.05-13.49,27.15-7.83,43.14A38,38,0,0,0,547.83,414.73Z"/><path class="cls-2" d="M445.26,559.1l.29,10.84,210.32,17.3-.29-10.84Z"/><path class="cls-2" d="M445.8,579.91c.08,3.35.18,7.83.26,11.19l149.6,12.31c-.07-3.36-.17-7.84-.25-11.19Z"/><path class="cls-2" d="M446.82,631.29l210.32,17.3L657,636.82l-210.33-17.3Z"/><path class="cls-2" d="M447.16,654.36l210.32,17.31c-.05-3.67-.12-8.55-.17-12.22L447,642.15C447,645.81,447.11,650.7,447.16,654.36Z"/><path class="cls-2" d="M447.43,678.34l210.33,17.31c0-3.8-.1-8.85-.14-12.64L447.3,665.7C447.34,669.5,447.39,674.55,447.43,678.34Z"/><path class="cls-2" d="M447.65,702,658,719.33l-.1-12.07L447.55,690Z"/><path class="cls-2" d="M447.78,722.23,658.1,739.54l-.06-10.6-210.32-17.3Z"/><path class="cls-2" d="M447.81,732v10.86l149.61,12.3V744.28L533.32,739l-32.05-2.64Z"/><path class="cls-2" d="M859.94,436.89c.38,6.09.38,6.09.58,9.23l64.11,5.28,60.35,5c-.2-3.08-.39-6.15-.58-9.23l-64.11-5.27Z"/><path class="cls-2" d="M790.37,458l64.1,5.28,64.1,5.27,43,3.54c-.33-5.53-.33-5.53-.56-9.31l-64.11-5.28-64.1-5.27-64.1-5.27-43-3.54c.33,5.83.33,5.83.56,9.31Z"/><path class="cls-2" d="M833.41,443.89q-.28-4.61-.58-9.23l-108.23-8.9c.38,6.08.38,6.08.58,9.23Z"/><path class="cls-2" d="M787,404.35l60.31,5c-.17-2.77-.4-6.45-.57-9.22L722.34,389.85c.17,2.77.4,6.46.57,9.22Z"/><path class="cls-2" d="M966.34,436.48c-.18-2.74-.41-6.4-.58-9.14L723.44,407.4c.17,2.74.4,6.4.58,9.15Z"/><path class="cls-2" d="M873.87,402.32c.18,2.77.4,6.45.58,9.22l64.1,5.27,44.16,3.64c-.17-2.77-.4-6.46-.57-9.22L918,406Z"/><path class="cls-2" d="M855.49,363.1c.16,2.8.36,6.54.51,9.35l124.45,10.24-.5-9.35-64.1-5.28Z"/><path class="cls-2" d="M862.51,783.79l64.11,5.27,43,3.54,0-9.22L734.34,764l0,9.22Z"/><path class="cls-2" d="M734.31,746.74l0,9,108.23,8.91,0-9.06Z"/><path class="cls-2" d="M734,709.83l.09,10.9L858.55,731l-.09-10.9Z"/><path class="cls-2" d="M976.52,748.8,734.2,728.86l.06,8.84,242.32,19.93Z"/><path class="cls-2" d="M849.89,389.61,914,394.88l43,3.54c-.16-2.78-.38-6.5-.54-9.29L828.28,378.58l-64.1-5.27-43-3.55c.16,2.8.38,6.51.54,9.3Z"/><path class="cls-2" d="M828.89,370.22c-.15-2.81-.36-6.55-.51-9.35L720.15,352c.15,2.81.35,6.55.51,9.35Z"/><path class="cls-2" d="M843.27,334.87c-.12-2.83-.27-6.59-.38-9.42l-64.1-5.27-60.32-5c.11,2.82.26,6.59.38,9.41Z"/><path class="cls-2" d="M962,362.48c-.14-2.82-.32-6.57-.45-9.39L719.22,333.16c.13,2.81.31,6.57.45,9.38l64.1,5.28,64.11,5.27Z"/><path class="cls-2" d="M934.49,342.37,978.64,346c-.11-2.82-.26-6.58-.37-9.41l-64.11-5.27L870,327.68c.11,2.83.26,6.59.38,9.42Z"/><path class="cls-2" d="M728.59,495.83,888.85,509l64.1,5.27,35.43,2.92q-.25-5.4-.52-10.8L728.06,485Q728.33,490.44,728.59,495.83Z"/><path class="cls-2" d="M765.8,541.58l-35.43-2.92.36,10,259.79,21.38-.35-10L829.91,546.85Z"/><path class="cls-2" d="M767.07,580.42l-35.43-2.91.29,10.46,160.26,13.18,64.1,5.28,35.44,2.91-.3-10.46L831.18,585.7Z"/><path class="cls-2" d="M732.89,629.38l259.8,21.37-.23-11.06-259.8-21.37Z"/><path class="cls-3" d="M977.17,153.35l-1.71-.14-21.39-1.76-13.26-1.09-22.56-1.86-15.51-1.28-1.75-.14-6.43-.53-1.33-.11-7-.58-64.1-5.27-8.3-.68-6.46-.53-3.6-.3c-2.1,6.45-3.4,10.4-4.37,13.59-1.46,4.77-2.19,7.79-3.83,14.73h0L974.15,182.1c1.75-6.87,2.85-11.17,3.81-14.65,1.29-4.67,2.34-7.85,4.4-13.68Z"/><path class="cls-3" d="M456,139.47l11,.91,28.52,2.34,1,.09L776,165.8c1.75-6.87,2.85-11.17,3.81-14.65,1.29-4.67,2.34-7.85,4.4-13.68l-320-26.32c-2.11,6.44-3.4,10.4-4.37,13.58C458.35,129.51,457.61,132.52,456,139.47Z"/><path class="cls-2" d="M657.11,813.33h0L446.79,796l-.11,2.42L657,815.75Z"/><path class="cls-2" d="M993.11,841,832.85,827.79l-64.1-5.27-35.44-2.92L733.2,822l39.09,3.22h0l32.07,2.64c-50.67-1.55-59.16,95.41-64.77,159.58q-3.92,44.68-11.06,78.47l199.66,16.42c-.89-.07-1.79-.18-2.68-.33-18.51-3.06-33.41-21-41.93-50.41-5.78-19.95-8.8-42.41-11.72-64.16-1.46-10.93-3-22-4.83-32.84l115.11,9.47,2.13-11.69-119.52-9.83a194.43,194.43,0,0,0-9.39-32.93l-.71-1.75,34.74,2.86,64.1,5.27,35.43,2.92,1.22-12-141-11.6c-6.07-12.83-14.06-26.65-23.55-36.06l167,13.74Z"/><path class="cls-2" d="M538.26,816.58c-1.7,1.6-4,3.67-5.59,5.39l128.21,10.55,64.1,5.27,18,1.48c1.66-1.63,3.81-3.89,5.59-5.38h0Z"/><path class="cls-2" d="M738.47,845l-96.16-7.91-53.45-4.39c-1.37,2.17-3.27,5-4.52,7.29l64.1,5.28,32,2.63,53.45,4.4C735.28,850.11,737,847.13,738.47,845Z"/><path class="cls-2" d="M724.85,873.87l-210.33-17.3c-.89,3-2.12,6.91-2.94,9.9l210.33,17.3C722.78,880.8,723.9,876.82,724.85,873.87Z"/><path class="cls-2" d="M719.57,893.19,509.24,875.88c-.68,3.24-1.62,7.55-2.26,10.8L717.31,904C718,900.74,718.84,896.41,719.57,893.19Z"/><path class="cls-2" d="M715.5,914.19,587.29,903.64l-64.11-5.27-18-1.48c-.52,3.43-1.25,8-1.74,11.44l128.21,10.55,64.11,5.27,18,1.48C714.27,922.2,714.94,917.61,715.5,914.19Z"/><path class="cls-2" d="M712.38,936.12,502.06,918.81c-.41,3.49-1,8.15-1.35,11.64L628.92,941l64.1,5.27,18,1.48C711.44,944.26,712,939.6,712.38,936.12Z"/><path class="cls-2" d="M709.93,958.46h0L581.72,947.91l-64.1-5.27-18-1.48c-.33,3.46-.78,8.07-1.1,11.54l128.21,10.54,64.11,5.28,18,1.48C709.17,966.54,709.59,961.92,709.93,958.46Z"/><path class="cls-2" d="M558.31,968q-.51,5.75-1,11.48l149.6,12.31q.51-5.74,1-11.48l-96.15-7.91Z"/><path class="cls-2" d="M228.29,949.85l-43-3.54c-.27,3.16-.56,6.33-.85,9.5l235.35,19.36q.44-4.75.85-9.5L292.4,955.12Z"/><path class="cls-2" d="M422.22,947.43,314,938.53l-.85,9.56L421.37,957Z"/><path class="cls-2" d="M301.85,899l-1.18,9.79L425.09,919l1.18-9.78Z"/><path class="cls-2" d="M423.14,937.68l1-9.78L181.8,908l-1,9.79Z"/><path class="cls-2" d="M423.82,809.9l35.43,2.91c1.7-1.42,3.89-3.4,5.7-4.68L304.69,795l-64.1-5.27-35.43-2.92c-1.73,1.39-4.09,3.16-5.7,4.68l160.26,13.18Z"/><path class="cls-2" d="M406.89,836.52l35.43,2.91c1.11-2.45,2.54-5.74,3.75-8.14l-259.8-21.38c-1.13,2.44-2.7,5.67-3.75,8.15l160.26,13.18Z"/><path class="cls-2" d="M701.4,1038.32,491.08,1021c-.57,3.44-1.35,8-2,11.46l210.33,17.3C700.05,1046.35,700.84,1041.77,701.4,1038.32Z"/><path class="cls-2" d="M697.37,1060.43,545.74,1048c-.77,3.58-1.82,8.36-2.65,11.94l96.15,7.91,55.48,4.56C695.53,1068.79,696.61,1064,697.37,1060.43Z"/><path class="cls-2" d="M377.49,1023.3l35.43,2.91c.61-3.43,1.4-8,2-11.46l-160.26-13.18-64.1-5.27-35.44-2.92c-.57,3.44-1.34,8-2,11.46L313.39,1018Z"/><path class="cls-2" d="M478.14,1077.8l210.33,17.3c1.06-3.54,2.47-8.26,3.46-11.81L481.61,1066C480.59,1069.54,479.23,1074.27,478.14,1077.8Z"/><path class="cls-2" d="M533.3,1093.05c-1.28,3.34-3,7.79-4.38,11.09l64.11,5.27,32.05,2.64,55.47,4.56c1.35-3.31,3.13-7.74,4.38-11.08l-96.16-7.91Z"/><path class="cls-2" d="M142.15,1050.16l160.26,13.18,64.1,5.28,35.43,2.91c1.07-3.54,2.47-8.26,3.47-11.81l-259.8-21.38C144.6,1041.9,143.23,1046.63,142.15,1050.16Z"/><path class="cls-2" d="M460.39,1118.62l128.2,10.55,64.11,5.27,18,1.49c1.66-2.9,3.85-6.78,5.4-9.74l-210.33-17.3C464.21,1111.83,462.08,1115.74,460.39,1118.62Z"/><path class="cls-2" d="M525.11,1139.39l134.8,11.09a81.81,81.81,0,0,0,5.64-6.85l-134.8-11.09A80.54,80.54,0,0,1,525.11,1139.39Z"/><path class="cls-2" d="M165.22,1084.16l-35.44-2.92c-1.57,3-3.69,6.86-5.39,9.74l259.8,21.37c1.66-2.89,3.85-6.77,5.39-9.73h0l-160.26-13.18Z"/></g></svg>