<svg xmlns="http://www.w3.org/2000/svg" xmlns:xlink="http://www.w3.org/1999/xlink" viewBox="0 0 1000.6 1000.6"><defs><style>.cls-1{fill:url(#linear-gradient);}.cls-2{fill:url(#linear-gradient-2);}.cls-3{isolation:isolate;}.cls-4{fill:#f4f6f9;}.cls-5{fill:url(#linear-gradient-3);}.cls-6{fill:url(#linear-gradient-4);}.cls-7{fill:url(#linear-gradient-5);}.cls-8{fill:url(#linear-gradient-6);}.cls-9{fill:url(#linear-gradient-7);}.cls-10,.cls-44{opacity:0.3;}.cls-10,.cls-43,.cls-44{mix-blend-mode:multiply;}.cls-11{fill:url(#linear-gradient-8);}.cls-12{fill:url(#linear-gradient-9);}.cls-13{fill:url(#linear-gradient-10);}.cls-14{fill:url(#linear-gradient-11);}.cls-15{fill:url(#linear-gradient-12);}.cls-16{fill:url(#linear-gradient-13);}.cls-17{fill:url(#linear-gradient-14);}.cls-18{fill:url(#linear-gradient-15);}.cls-19{fill:url(#linear-gradient-16);}.cls-20{fill:url(#linear-gradient-17);}.cls-21{fill:url(#linear-gradient-18);}.cls-22{fill:url(#linear-gradient-19);}.cls-23{fill:url(#linear-gradient-20);}.cls-24{fill:url(#linear-gradient-21);}.cls-25{clip-path:url(#clip-path);}.cls-26{opacity:0.5;}.cls-26,.cls-32,.cls-41{mix-blend-mode:soft-light;}.cls-27,.cls-32,.cls-41{fill:#fff;}.cls-28{clip-path:url(#clip-path-2);}.cls-29{fill:#2a2a4f;}.cls-30{fill:url(#linear-gradient-24);}.cls-31{fill:url(#linear-gradient-25);}.cls-32{opacity:0.48;}.cls-33{fill:url(#linear-gradient-26);}.cls-34{fill:url(#linear-gradient-27);}.cls-35{fill:url(#linear-gradient-28);}.cls-36{fill:#d8dce6;}.cls-37{fill:url(#linear-gradient-29);}.cls-38{fill:url(#linear-gradient-30);}.cls-39{fill:url(#linear-gradient-31);}.cls-40{fill:url(#linear-gradient-32);}.cls-42{fill:url(#linear-gradient-33);}.cls-43{fill:url(#linear-gradient-34);}.cls-44{fill:url(#linear-gradient-35);}</style><linearGradient id="linear-gradient" x1="111.79" y1="347.18" x2="394.24" y2="347.18" gradientUnits="userSpaceOnUse"><stop offset="0" stop-color="#9d7ff4"/><stop offset="1" stop-color="#6265d2"/></linearGradient><linearGradient id="linear-gradient-2" x1="237.18" y1="342.07" x2="168.08" y2="527.55" gradientUnits="userSpaceOnUse"><stop offset="0" stop-color="#cd8bd8"/><stop offset="1" stop-color="#8a70f1"/></linearGradient><linearGradient id="linear-gradient-3" x1="2972.91" y1="491.83" x2="3081.55" y2="660.82" gradientTransform="translate(-2460.93 469.75) rotate(-11.19)" gradientUnits="userSpaceOnUse"><stop offset="0" stop-color="#fff"/><stop offset="1" stop-color="#f4f6f9"/></linearGradient><linearGradient id="linear-gradient-4" x1="4154.38" y1="-311.79" x2="4245.78" y2="147.65" gradientTransform="translate(-3416.54 494.84)" gradientUnits="userSpaceOnUse"><stop offset="0" stop-color="#efc250"/><stop offset="1" stop-color="#d66f58"/></linearGradient><linearGradient id="linear-gradient-5" x1="4125.65" y1="-344.98" x2="4217.06" y2="114.46" gradientTransform="matrix(1, 0, 0, 1, -3496.52, 460.88)" xlink:href="#linear-gradient-4"/><linearGradient id="linear-gradient-6" x1="4104.21" y1="-341.61" x2="4195.61" y2="117.83" gradientTransform="translate(-3576.51 426.92)" xlink:href="#linear-gradient-4"/><linearGradient id="linear-gradient-7" x1="4089.11" y1="-306.32" x2="4180.52" y2="153.12" gradientTransform="matrix(1, 0, 0, 1, -3656.49, 392.95)" xlink:href="#linear-gradient-4"/><linearGradient id="linear-gradient-8" x1="3177.34" y1="302.67" x2="3049.73" y2="614.8" gradientTransform="translate(-1546.59 -1749.89) rotate(34.82)" xlink:href="#linear-gradient-4"/><linearGradient id="linear-gradient-9" x1="3236.24" y1="380.16" x2="3075.86" y2="670.73" gradientTransform="translate(-2119.99 2057.15) rotate(-40.04)" xlink:href="#linear-gradient-3"/><linearGradient id="linear-gradient-10" x1="7085.42" y1="-2876.1" x2="7157.46" y2="-2489.34" gradientTransform="translate(-6245.46 3262.16)" xlink:href="#linear-gradient-2"/><linearGradient id="linear-gradient-11" x1="7065.4" y1="-2872.37" x2="7137.45" y2="-2485.61" gradientTransform="translate(-6352.76 3180.03)" xlink:href="#linear-gradient-2"/><linearGradient id="linear-gradient-12" x1="7045.39" y1="-2868.65" x2="7117.43" y2="-2481.88" gradientTransform="translate(-6460.07 3097.9)" xlink:href="#linear-gradient-2"/><linearGradient id="linear-gradient-13" x1="7012.18" y1="-2935.79" x2="7084.22" y2="-2549.02" gradientTransform="matrix(1, 0, 0, 1, -6567.38, 3015.77)" xlink:href="#linear-gradient-2"/><linearGradient id="linear-gradient-14" x1="3270.46" y1="399.05" x2="3110.09" y2="689.62" gradientTransform="translate(-1546.59 -1749.89) rotate(34.82)" xlink:href="#linear-gradient-2"/><linearGradient id="linear-gradient-15" x1="3160.28" y1="631.49" x2="3210.29" y2="816" gradientTransform="translate(-1141.35 3356.98) rotate(-68.88)" xlink:href="#linear-gradient-3"/><linearGradient id="linear-gradient-16" x1="8425.62" y1="-6500.12" x2="8497.66" y2="-6113.34" gradientTransform="translate(-7561.56 7175.52)" gradientUnits="userSpaceOnUse"><stop offset="0" stop-color="#e58e83"/><stop offset="1" stop-color="#dd6fb6"/></linearGradient><linearGradient id="linear-gradient-17" x1="8401.19" y1="-6520.09" x2="8473.23" y2="-6133.31" gradientTransform="translate(-7669.56 7038.01)" xlink:href="#linear-gradient-16"/><linearGradient id="linear-gradient-18" x1="8378.59" y1="-6530.21" x2="8450.64" y2="-6143.43" gradientTransform="matrix(1, 0, 0, 1, -7777.55, 6900.51)" xlink:href="#linear-gradient-16"/><linearGradient id="linear-gradient-19" x1="8354.2" y1="-6549.97" x2="8426.25" y2="-6163.18" gradientTransform="matrix(1, 0, 0, 1, -7885.55, 6763.01)" xlink:href="#linear-gradient-16"/><linearGradient id="linear-gradient-20" x1="3369.83" y1="488.63" x2="3221.53" y2="723.15" gradientTransform="translate(-1546.59 -1749.89) rotate(34.82)" xlink:href="#linear-gradient-16"/><linearGradient id="linear-gradient-21" x1="4139.93" y1="238.5" x2="4184.16" y2="238.5" gradientTransform="matrix(0.06, 1, -1, 0.06, 430.17, -3581.13)" xlink:href="#linear-gradient-2"/><clipPath id="clip-path"><path class="cls-1" d="M394.24,572.78c-21.81-20.46-50.58-53.7-63.6-100.69-17.08-61.63,7.94-92.78,5.12-197.12-1.78-66-3.69-112-36.95-136.62-26.07-19.29-68.27-23.13-93.88-5.25-21.29,14.87-33.61,46.49-37.37,69.07-3.06,18.39-.6,31.75-11.21,41.44-10.83,9.9-22.53,4.3-32.67,11.63-20.55,14.88-8.65,64.15-6.73,72.12,21.4,88.59,103,148.33,138.94,174A552.38,552.38,0,0,0,394.24,572.78Z"/></clipPath><clipPath id="clip-path-2"><path class="cls-2" d="M382.3,525.57c-42.41,20.77-99.39,41.18-162.64,42.69-16.15.39-115.87,2.78-124.16-39.18-2.92-14.78,8-22.58,4.42-42.4-4.22-23.5-22.21-27.58-43.66-49.06C43.47,424.8,6,387.29,21,349.31c9-22.69,36.25-44.52,62.23-50.31,38.1-8.5,65.94,19.17,112.22,66.81,41,42.23,42.65,56.66,72.73,86.56C290.5,474.55,326,502.8,382.3,525.57Z"/></clipPath><linearGradient id="linear-gradient-24" x1="36.07" y1="618.51" x2="672.51" y2="618.51" gradientUnits="userSpaceOnUse"><stop offset="0" stop-color="#484c88"/><stop offset="1" stop-color="#2a2a4f"/></linearGradient><linearGradient id="linear-gradient-25" x1="62.21" y1="614.33" x2="650.99" y2="614.33" xlink:href="#linear-gradient"/><linearGradient id="linear-gradient-26" x1="36.07" y1="863.23" x2="994.84" y2="863.23" xlink:href="#linear-gradient-24"/><linearGradient id="linear-gradient-27" x1="552.16" y1="217.39" x2="194.09" y2="957.89" gradientUnits="userSpaceOnUse"><stop offset="0" stop-color="#fff"/><stop offset="1" stop-color="#ebedf0"/></linearGradient><linearGradient id="linear-gradient-28" x1="414.34" y1="127.17" x2="260.88" y2="540.05" gradientTransform="matrix(1, 0, 0, 1, 0, 0)" xlink:href="#linear-gradient-16"/><linearGradient id="linear-gradient-29" x1="242.41" y1="448.6" x2="276.78" y2="541.7" gradientTransform="matrix(1, 0, 0, 1, 0, 0)" xlink:href="#linear-gradient-16"/><linearGradient id="linear-gradient-30" x1="233.23" y1="451.84" x2="267.48" y2="544.64" gradientTransform="matrix(1, 0, 0, 1, 0, 0)" xlink:href="#linear-gradient-16"/><linearGradient id="linear-gradient-31" x1="242.45" y1="504.93" x2="276.59" y2="597.43" gradientTransform="matrix(1, 0, 0, 1, 0, 0)" xlink:href="#linear-gradient-16"/><linearGradient id="linear-gradient-32" x1="233.32" y1="508.34" x2="267.36" y2="600.53" gradientTransform="matrix(1, 0, 0, 1, 0, 0)" xlink:href="#linear-gradient-16"/><linearGradient id="linear-gradient-33" x1="1857.23" y1="2366.97" x2="1890.53" y2="2491" gradientTransform="matrix(1, -0.09, 0.09, 1, -1391.64, -1322.46)" xlink:href="#linear-gradient-4"/><linearGradient id="linear-gradient-34" x1="2019.64" y1="2445.71" x2="2024.32" y2="2445.71" gradientTransform="matrix(1, 0, 0, 1, -1175.76, -1518.33)" xlink:href="#linear-gradient"/><linearGradient id="linear-gradient-35" x1="1857.12" y1="2366.58" x2="1890.51" y2="2490.91" gradientTransform="matrix(1, -0.09, 0.09, 1, -1391.64, -1322.46)" gradientUnits="userSpaceOnUse"><stop offset="0" stop-color="#d66f58"/><stop offset="1" stop-color="#efc250"/></linearGradient></defs><g class="cls-3"><g id="Bot"><path class="cls-4" d="M978.69,346.53C896.17,81.66,559.38-27.74,325.55,36.32,300.26,43.25,89.62,104.5,25,295.68,21.72,305.23-38.76,492.54,65,603.49c76.76,82.07,182.54,57.28,224.42,140.21C325.92,816,262.86,869,296.36,917c51,73.25,271.54,56.79,424.54-30.17C878.88,797.06,1052.18,582.45,978.69,346.53Z"/><rect class="cls-5" x="505.95" y="154.32" width="207.98" height="564.56" transform="translate(500.48 -305.47) rotate(46.01)"/><rect class="cls-6" x="680.36" y="240.74" width="156.87" height="94.98" transform="matrix(0.69, 0.72, -0.72, 0.69, 439.2, -457.9)"/><rect class="cls-7" x="600.38" y="317.94" width="156.87" height="94.98" transform="translate(470.31 -376.76) rotate(46.01)"/><rect class="cls-8" x="520.39" y="395.14" width="156.87" height="94.98" transform="translate(501.43 -295.63) rotate(46.01)"/><rect class="cls-9" x="440.41" y="472.34" width="156.87" height="94.98" transform="translate(532.54 -214.49) rotate(46.01)"/><g class="cls-10"><path class="cls-11" d="M885.26,315.38l-76.78-79.55c-4.92,22.12-14.17,45.23-31,65.59-32,38.74-68.67,40.1-124.16,74.31-57.91,35.71-74.05,68.82-118.53,116-32.45,34.46-80.26,76.72-151.07,116.93l95.31,98.76Z"/></g><rect class="cls-12" x="549.76" y="245.93" width="207.98" height="564.56" transform="translate(992.87 -240.8) rotate(74.86)"/><rect class="cls-13" x="777.27" y="422.58" width="156.87" height="94.98" transform="translate(1085.96 -478.72) rotate(74.86)"/><rect class="cls-14" x="669.97" y="451.61" width="156.87" height="94.98" transform="translate(1034.7 -353.68) rotate(74.86)"/><rect class="cls-15" x="562.66" y="480.65" width="156.87" height="94.98" transform="translate(983.45 -228.65) rotate(74.86)"/><rect class="cls-16" x="455.36" y="509.68" width="156.87" height="94.98" transform="translate(932.2 -103.62) rotate(74.86)"/><g class="cls-10"><path class="cls-17" d="M953.39,554.86,917.61,422.64c-22.68,29.13-45.48,42.25-63.74,48.74-51.3,18.22-81.94-10.47-149.27,1.71-63.14,11.42-89.39,46.27-132,72-40.55,24.48-101.9,44.33-197.68,33.38l33.51,123.84Z"/></g><rect class="cls-18" x="557.62" y="362.12" width="207.98" height="564.56" transform="translate(1444.42 154.3) rotate(103.7)"/><rect class="cls-19" x="788.14" y="643.42" width="156.87" height="94.98" transform="translate(1743.12 12.7) rotate(103.7)"/><rect class="cls-20" x="680.14" y="617.08" width="156.87" height="94.98" transform="translate(1583.94 85.04) rotate(103.7)"/><rect class="cls-21" x="572.14" y="590.74" width="156.87" height="94.98" transform="translate(1424.77 157.39) rotate(103.7)"/><rect class="cls-22" x="464.14" y="564.41" width="156.87" height="94.98" transform="translate(1265.6 229.74) rotate(103.7)"/><g class="cls-10"><path class="cls-23" d="M911.22,812.31l31.62-129.68c-44.2,25.37-77.54,27.22-100.56,23.72-53.82-8.16-67.28-47.93-132.38-69-61-19.76-100.64-1.45-150.36,1.1-44.09,2.26-102.19-7.57-174-53.33l-22.79,93.43Z"/></g><circle class="cls-24" cx="429.37" cy="587.76" r="22.12" transform="translate(-279.49 422.38) rotate(-40.72)"/><path class="cls-1" d="M394.24,572.78c-21.81-20.46-50.58-53.7-63.6-100.69-17.08-61.63,7.94-92.78,5.12-197.12-1.78-66-3.69-112-36.95-136.62-26.07-19.29-68.27-23.13-93.88-5.25-21.29,14.87-33.61,46.49-37.37,69.07-3.06,18.39-.6,31.75-11.21,41.44-10.83,9.9-22.53,4.3-32.67,11.63-20.55,14.88-8.65,64.15-6.73,72.12,21.4,88.59,103,148.33,138.94,174A552.38,552.38,0,0,0,394.24,572.78Z"/><g class="cls-25"><g class="cls-26"><path class="cls-27" d="M419.05,589.44C381,575,348.25,557.73,321.7,538.17c-39.32-29-63.82-62.28-72.8-99-7-28.69-4.42-59.74-1.13-99.06,2.73-32.6,7.6-55.43,11.9-75.57,5.56-26.05,9.95-46.64,6.9-76.37-3.09-30.22-13.06-60.28-29.63-89.33l2.12-1.21C255.8,127,265.87,157.38,269,187.94c3.08,30.12-1.34,50.86-6.95,77.13-4.28,20.07-9.13,42.82-11.85,75.25-3.41,40.64-5.86,70,1.07,98.29,8.84,36.13,33,69,71.88,97.6,26.36,19.43,58.92,36.57,96.76,50.95Z"/><path class="cls-27" d="M250.8,317.82l-.39-1.32c-17.51-58.79-48.95-95.58-72.23-116.09-25.24-22.24-46.62-30.68-46.83-30.76l.88-2.27c.21.08,21.92,8.64,47.47,31.12,23.38,20.58,54.86,57.35,72.64,116a157.19,157.19,0,0,0,41.55-30.9c19.62-20.22,43.29-55.52,44.55-108.84l2.43,0c-1.28,54.16-25.34,90-45.31,110.56-21.62,22.26-43.28,31.85-43.5,31.95Z"/><path class="cls-27" d="M246.25,405.65l-.85-.25c-28.74-8.43-61.34-41.47-96.88-98.19a788.83,788.83,0,0,1-44.83-82.72l2.22-1c.72,1.59,72.3,158.53,139.34,179.33,3.41-4.88,23.53-33.17,48.83-58,14.6-14.32,39.21-23.58,57.28-28.83a290.67,290.67,0,0,1,36-8l.34,2.41c-.65.09-64.64,9.41-91.93,36.19-27.5,27-48.83,58.05-49,58.36Z"/><path class="cls-27" d="M312,530.33l-2.41-.29c-.33,0-32.59-4-74.72-18.68-38.89-13.56-94.41-39.31-138.07-85L12.57,338.29l1.77-1.68,84.18,88.08C141.83,470,197,495.57,235.58,509a409.49,409.49,0,0,0,71.85,18.25c-16.05-29.62-13.05-61.85,8.75-93.35,16.78-24.24,39-39.74,39.24-39.89l1.39,2c-.22.16-22.14,15.43-38.66,39.33-22,31.87-24.52,63.1-7.41,92.84Z"/></g></g><path class="cls-2" d="M382.3,525.57c-42.41,20.77-99.39,41.18-162.64,42.69-16.15.39-115.87,2.78-124.16-39.18-2.92-14.78,8-22.58,4.42-42.4-4.22-23.5-22.21-27.58-43.66-49.06C43.47,424.8,6,387.29,21,349.31c9-22.69,36.25-44.52,62.23-50.31,38.1-8.5,65.94,19.17,112.22,66.81,41,42.23,42.65,56.66,72.73,86.56C290.5,474.55,326,502.8,382.3,525.57Z"/><g class="cls-28"><g class="cls-26"><path class="cls-27" d="M381.29,525.25c-46.64,0-94.16-12.32-141.89-36.86C170,452.71,117.5,400.11,85.7,362.26,63.51,335.86,49,301.86,42.43,261.19l2.4-.38C51.29,301,65.67,334.64,87.56,360.7c31.66,37.67,83.89,90,153,125.53C306.8,520.3,372.66,530.64,436.25,517,484,506.68,528.77,483.83,569.34,449l1.59,1.85c-40.89,35.06-86,58.1-134.17,68.46A263.16,263.16,0,0,1,381.29,525.25Z"/><path class="cls-27" d="M157.65,432.88l-1.08-.14C36.1,417.56,4.12,348.73-2.81,328c-.13-.38-.21-.64-.26-.75l2.19-1.06c.06.12.19.47.38,1,6.79,20.33,38.12,87.67,156.26,103,2-9.77,15.29-84-29.59-136.62L128,292c48.7,57,30.08,139,29.88,139.83Z"/><path class="cls-27" d="M128.06,526.35c-3.47,0-6.73-.13-9.78-.35-29-2.07-45.4-12.34-46.09-12.78l1.31-2.05c.16.1,16.7,10.42,45.11,12.42,26.15,1.83,68-3.2,119-37.51-.2-6.86-2.95-67-40-131.21l-39.83-69,2.11-1.22,39.83,69C239.19,422.11,240,486.07,240,486.71v.65l-.54.36C193.54,518.79,154.83,526.35,128.06,526.35Z"/></g></g><path class="cls-29" d="M994.84,856.25,36.07,848.08v24.18c0,6.56,4.18,12.15,9.84,13.14L317,933a38.15,38.15,0,0,0,9.72.44l657.67-54.29c5.87-.48,10.42-6.08,10.42-12.82Z"/><path class="cls-29" d="M646.91,817.5,46,861.74c-10.75.79-19.49-7.62-19.49-18.79V395.46c0-11.17,8.74-20.22,19.49-20.22H646.91c8.85,0,16,8.18,16,18.28V798C662.93,808.14,655.76,816.85,646.91,817.5Z"/><path class="cls-30" d="M656.49,817.5,55.56,861.74c-10.75.79-19.49-7.62-19.49-18.79V395.46c0-11.17,8.74-20.22,19.49-20.22H656.49c8.86,0,16,8.18,16,18.28V798C672.51,808.14,665.35,816.85,656.49,817.5Z"/><path class="cls-31" d="M637.77,789,78.07,827.41c-8.75.6-15.86-6.31-15.86-15.42V420.21c0-9.12,7.11-16.54,15.86-16.58l559.7-2.41c7.3,0,13.22,6.67,13.22,15V773C651,781.34,645.07,788.48,637.77,789Z"/><path class="cls-27" d="M377.25,387.47c0,4.16-3.09,7.54-6.91,7.56s-6.93-3.36-6.93-7.53,3.1-7.55,6.93-7.55S377.25,383.32,377.25,387.47Z"/><path class="cls-32" d="M55.56,861.74l597.88-44,3-.23a16.16,16.16,0,0,0,10.58-5.35c-43-2.36-69.75-17.63-87-33.4-34.62-31.69-28.62-62.93-66-83.76-46.56-26-83.18,6.94-118.51-25.54-21.42-19.7-10.9-34.38-37.26-63.81-29.2-32.6-48.2-21.64-77.54-51-37.1-37.09-18.55-65.95-50.5-92.58-38.77-32.31-80.58-2.41-117.48-33.39C96.94,415.33,88.2,395.9,83.64,375.23H55.56c-10.75,0-19.49,9.06-19.49,20.23V843C36.07,854.12,44.81,862.53,55.56,861.74Z"/><path class="cls-33" d="M680.44,815.05,36.07,861.61,317,911a38.15,38.15,0,0,0,9.72.44l668.09-55.15L690.69,815.36A50.19,50.19,0,0,0,680.44,815.05Z"/><polygon class="cls-29" points="130.09 862.01 666.55 822.67 832.58 844.81 300.74 886.86 130.09 862.01"/><path class="cls-34" d="M731.1,697.24c0,49.51-40.39,92.21-90.91,95.42L77.48,828.38h0c59.5-3.78,107-50.31,107-104V106.81l546.6,20.91Z"/><path class="cls-35" d="M471.84,266.78c0,55.93-47.48,101.21-107,101.15C304.3,367.86,254.41,321,254.41,263.27s49.89-103,110.44-101.09C424.36,164,471.84,210.85,471.84,266.78Z"/><polygon class="cls-36" points="695.73 264.25 499.17 260.89 499.17 226.72 695.73 231.08 695.73 264.25"/><polygon class="cls-36" points="695.73 291.64 499.17 289.11 499.17 272.02 695.73 275.05 695.73 291.64"/><polygon class="cls-36" points="695.73 319.02 499.17 317.32 499.17 300.23 695.73 302.44 695.73 319.02"/><polygon class="cls-36" points="695.73 465.84 272.85 471.7 272.85 454.73 695.73 449.91 695.73 465.84"/><polygon class="cls-37" points="238.35 472.18 257.5 471.92 257.5 454.91 238.35 455.13 238.35 472.18"/><polygon class="cls-36" points="695.73 492.15 272.85 499.72 272.85 482.75 695.73 476.22 695.73 492.15"/><polygon class="cls-38" points="238.35 500.34 257.5 500 257.5 482.99 238.35 483.29 238.35 500.34"/><polygon class="cls-36" points="695.73 518.46 272.85 527.74 272.85 510.77 695.73 502.53 695.73 518.46"/><polygon class="cls-39" points="238.35 528.5 257.5 528.08 257.5 511.07 238.35 511.44 238.35 528.5"/><polygon class="cls-36" points="695.73 544.77 272.85 555.76 272.85 538.79 695.73 528.84 695.73 544.77"/><polygon class="cls-40" points="238.35 556.65 257.5 556.16 257.5 539.15 238.35 539.6 238.35 556.65"/><polygon class="cls-36" points="695.73 597.4 238.35 612.97 238.35 595.92 695.73 581.46 695.73 597.4"/><polygon class="cls-36" points="695.73 623.71 238.35 641.13 238.35 624.08 695.73 607.77 695.73 623.71"/><polygon class="cls-36" points="695.73 650.02 238.35 669.29 238.35 652.24 695.73 634.08 695.73 650.02"/><polygon class="cls-36" points="695.73 676.33 238.35 697.45 238.35 680.39 695.73 660.39 695.73 676.33"/><path class="cls-27" d="M398.43,325.08l-9.74-31.85L339.24,293l-9.92,32.09H297.87l48.47-135.2,35.16.71L429,325.08Zm-16.56-55.7q-13.59-43.5-15.31-49.25c-1.14-3.81-2-6.83-2.46-9q-3.06,11.72-17.57,58Z"/><path class="cls-36" d="M947.76,941.59,801.29,955.1a7.55,7.55,0,0,1-8.21-6.82h0a7.55,7.55,0,0,1,6.82-8.21l146.47-13.51a7.55,7.55,0,0,1,8.21,6.82h0A7.55,7.55,0,0,1,947.76,941.59Z"/><path class="cls-36" d="M954.28,905.81h31.77a1.38,1.38,0,0,1,1.38,1.38v15.7a1.38,1.38,0,0,1-1.38,1.38H954.28a0,0,0,0,1,0,0V905.81A0,0,0,0,1,954.28,905.81Z" transform="translate(-79.93 93.02) rotate(-5.27)"/><path class="cls-29" d="M394.24,972.18l-13.66,1.26a2.79,2.79,0,0,1-3-2.53h0a2.79,2.79,0,0,1,2.53-3l13.66-1.26Z"/><path class="cls-36" d="M386.1,970.13h0a5.94,5.94,0,0,0,5.27,5.37l58,6.49-3.23-35.11-55.87,17A6,6,0,0,0,386.1,970.13Z"/><path class="cls-41" d="M389.61,967.34h0c.07.77,2.11,1.26,4.88,1.16l56.81-6.85-.89-9.61L394.2,965.31C391.45,965.72,389.54,966.57,389.61,967.34Z"/><path class="cls-42" d="M957.77,934.46,448,982.12c-9.7.89-12.93-34.22-3.24-35.11l509.74-47.66a10.51,10.51,0,0,1,11.44,9.5L967.28,923A10.53,10.53,0,0,1,957.77,934.46Z"/><polygon class="cls-41" points="844.88 924.36 444.18 961.96 443.41 953.69 844.12 916.08 844.88 924.36"/><rect class="cls-43" x="843.82" y="909.42" width="4.69" height="35.4" transform="translate(-81.51 81.56) rotate(-5.27)"/><rect class="cls-41" x="950.75" y="899.56" width="4.69" height="35.4" transform="translate(-80.18 91.36) rotate(-5.27)"/><path class="cls-44" d="M954.53,899.35,710.26,922.53c-27.84,25.61-47.27,29.72-60.73,27.33-9.35-1.66-21.41-7.45-39.95-4.69-17.9,2.67-18.89,9.9-33.47,10.37-21.62.69-29-14.88-45.18-10.07-8.68,2.59-7.3,7.32-19.31,14.6-4.45,2.7-23,13.93-44.27,8.73-12.37-3-21.17-10.51-27-17.42-3.64,9.57,0,31.45,7.66,30.74l509.74-47.66A10.53,10.53,0,0,0,967.28,923L966,908.85A10.51,10.51,0,0,0,954.53,899.35Z"/></g></g></svg>