<svg viewBox="0 0 284.06568 212.17574" xmlns="http://www.w3.org/2000/svg"><path d="m65.715 40.50706a32.5107 32.5107 0 1 0 0 65.0214h212.8257v-65.0214z" fill="#726b4f" transform="translate(-33.1847 -28.56962)"/><path d="m32.53028 11.93744h212.82569v9.7485h-212.82569z" fill="#968d68"/><path d="m286.12407 54.04066 10.7608 27.1934-180.66069 71.47558 24.8277 62.751 165.92129-65.64407a16.25121 16.25121 0 0 0 9.1348-21.08493l-35.5635-89.88564a16.25054 16.25054 0 0 0 -21.08639-9.1333l-165.9229 65.64686 11.92982 30.15544z" fill="#caeae7" transform="translate(-33.1847 -28.56962)"/><path d="m104.01679 88.67906h194.68602v29.24374h-194.68602z" fill="#282424" transform="matrix(.92971672 -.36827547 .36827547 .92971672 -57.07567 52.8466)"/><g transform="translate(-33.1847 -28.56962)"><path d="m65.715 95.77846a22.76145 22.76145 0 1 1 0-45.5229v-9.7485a32.51161 32.51161 0 0 0 -32.5109 32.5107v135.2168a32.51156 32.51156 0 0 0 32.5109 32.5108h212.8257v-144.9669z" fill="#ccc09a"/><path d="m33.20408 73.01776v135.2168a32.51156 32.51156 0 0 0 32.5109 32.5108h212.8257v-135.2169h-212.82568a32.51154 32.51154 0 0 1 -32.51092-32.5107z" fill="#e5dcb5"/><path d="m264.73148 200.12676a.813.813 0 0 0 1.626 0v-4.8737a.813.813 0 1 0 -1.626 0z" fill="#282424"/><path d="m264.73148 161.134a.813.813 0 0 0 1.626 0v-4.875a.813.813 0 0 0 -1.626 0z" fill="#282424"/><path d="m264.73148 190.37806a.813.813 0 0 0 1.626 0v-4.875a.813.813 0 0 0 -1.626 0z" fill="#282424"/><path d="m264.73148 180.62956a.813.813 0 0 0 1.626 0v-4.875a.813.813 0 0 0 -1.626 0z" fill="#282424"/><path d="m264.73148 170.88106a.813.813 0 1 0 1.626 0v-4.875a.813.813 0 0 0 -1.626 0z" fill="#282424"/><path d="m264.73148 141.63545a.813.813 0 1 0 1.626 0v-4.87345a.813.813 0 0 0 -1.626 0z" fill="#282424"/><path d="m264.73148 151.38544a.813.813 0 0 0 1.626 0v-4.875a.813.813 0 1 0 -1.626 0z" fill="#282424"/><path d="m265.543 132.7a.81339.81339 0 0 0 .8145-.813v-4.8735a.813.813 0 0 0 -1.626 0v4.8735a.81179.81179 0 0 0 .8115.813z" fill="#282424"/><path d="m265.543 113.20146a.81212.81212 0 0 0 .8145-.8115v-4.8737a.813.813 0 1 0 -1.626 0v4.87374a.81051.81051 0 0 0 .8115.81146z" fill="#282424"/><path d="m265.543 233.43426a.81149.81149 0 0 0 -.8115.8116v4.8735a.813.813 0 1 0 1.626 0v-4.8735a.8131.8131 0 0 0 -.8145-.8116z" fill="#282424"/><path d="m264.73148 209.87526a.813.813 0 0 0 1.626 0v-4.8735a.813.813 0 1 0 -1.626 0z" fill="#282424"/><path d="m264.73148 219.62376a.813.813 0 1 0 1.626 0v-4.8735a.813.813 0 1 0 -1.626 0z" fill="#282424"/><path d="m33.34478 89.17066a.81624.81624 0 0 0 .7544-.8686c-.0542-.753-.0821-1.5162-.0806-2.2853a.8121.8121 0 0 0 -.813-.813h-.0015v3.9537c.0279.0014.0543.0146.0821.0146.0205 0 .0396 0 .0586-.0014z" fill="#282424"/><path d="m38.22868 101.81076a.81387.81387 0 0 0 -1.4093.8145 33.761 33.761 0 0 0 2.8052 4.1235.81365.81365 0 0 0 1.273-1.0137 31.17745 31.17745 0 0 1 -2.6689-3.9243z" fill="#282424"/><path d="m65.715 117.71316a31.952 31.952 0 0 1 -4.733-.3501.81248.81248 0 1 0 -.2416 1.6069 33.60042 33.60042 0 0 0 4.9746.3692.813.813 0 0 0 0-1.626z" fill="#282424"/><path d="m56.35448 116.30836a31.57865 31.57865 0 0 1 -4.4179-1.7373.813.813 0 0 0 -.7089 1.4633 33.23311 33.23311 0 0 0 4.6479 1.8267.79505.79505 0 0 0 .2388.0366.81259.81259 0 0 0 .2401-1.5893z" fill="#282424"/><path d="m44.12168 109.22a.81362.81362 0 0 0 -1.1089 1.1909 34.318 34.318 0 0 0 3.895 3.1171.82043.82043 0 0 0 .4614.1422.812.812 0 0 0 .4599-1.4809 32.04107 32.04107 0 0 1 -3.7074-2.9693z" fill="#282424"/><path d="m34.78618 92.99826a.81132.81132 0 0 0 -1.5834.3544l.0013.0074a33.33579 33.33579 0 0 0 1.4576 4.7652.81343.81343 0 0 0 .7573.5185.83674.83674 0 0 0 .2945-.0541.81852.81852 0 0 0 .4614-1.0548 31.61848 31.61848 0 0 1 -1.3887-4.5366z" fill="#282424"/><path d="m171.30818 117.71316h-4.8735a.813.813 0 1 0 0 1.626h4.8735a.813.813 0 1 0 0-1.626z" fill="#282424"/><path d="m181.05668 117.71316h-4.8735a.813.813 0 0 0 0 1.626h4.8735a.813.813 0 0 0 0-1.626z" fill="#282424"/><path d="m93.31988 117.71316h-4.8735a.813.813 0 0 0 0 1.626h4.8735a.813.813 0 1 0 0-1.626z" fill="#282424"/><path d="m83.57138 117.71316h-4.8736a.813.813 0 0 0 0 1.626h4.8736a.813.813 0 1 0 0-1.626z" fill="#282424"/><path d="m103.06988 117.71316h-4.875a.813.813 0 0 0 0 1.626h4.875a.813.813 0 0 0 0-1.626z" fill="#282424"/><path d="m161.55968 117.71316h-4.8736a.813.813 0 0 0 0 1.626h4.8736a.813.813 0 0 0 0-1.626z" fill="#282424"/><path d="m142.06258 117.71316h-4.875a.813.813 0 0 0 0 1.626h4.875a.813.813 0 1 0 0-1.626z" fill="#282424"/><path d="m122.56688 117.71316h-4.875a.813.813 0 0 0 0 1.626h4.875a.813.813 0 0 0 0-1.626z" fill="#282424"/><path d="m73.82278 117.71316h-4.87348a.813.813 0 0 0 0 1.626h4.87348a.813.813 0 1 0 0-1.626z" fill="#282424"/><path d="m132.31408 117.71316h-4.875a.813.813 0 0 0 0 1.626h4.875a.813.813 0 0 0 0-1.626z" fill="#282424"/><path d="m190.80518 117.71316h-4.8735a.813.813 0 1 0 0 1.626h4.8735a.813.813 0 0 0 0-1.626z" fill="#282424"/><path d="m151.81108 117.71316h-4.875a.813.813 0 0 0 0 1.626h4.875a.813.813 0 0 0 0-1.626z" fill="#282424"/><path d="m112.81838 117.71316h-4.875a.813.813 0 1 0 0 1.626h4.875a.813.813 0 0 0 0-1.626z" fill="#282424"/><path d="m249.29648 117.71316h-4.8736a.813.813 0 1 0 0 1.626h4.8736a.813.813 0 0 0 0-1.626z" fill="#282424"/><path d="m273.667 117.71316a.813.813 0 0 0 0 1.626h4.8737v-1.626z" fill="#282424"/><path d="m239.54788 117.71316h-4.875a.813.813 0 0 0 0 1.626h4.875a.813.813 0 0 0 0-1.626z" fill="#282424"/><path d="m268.792 117.71316h-2.4345v-.4482a.813.813 0 1 0 -1.626 0v.4482h-.8115a.813.813 0 1 0 0 1.626h.8115v2.7993a.813.813 0 1 0 1.626 0v-2.7993h2.4345a.813.813 0 1 0 0-1.626z" fill="#282424"/><path d="m229.79938 117.71316h-4.875a.813.813 0 0 0 0 1.626h4.875a.813.813 0 0 0 0-1.626z" fill="#282424"/><path d="m200.55518 117.71316h-4.875a.813.813 0 0 0 0 1.626h4.875a.813.813 0 0 0 0-1.626z" fill="#282424"/><path d="m259.045 117.71316h-4.8735a.813.813 0 1 0 0 1.626h4.8735a.813.813 0 0 0 0-1.626z" fill="#282424"/><path d="m210.30238 117.71316h-4.875a.813.813 0 0 0 0 1.626h4.875a.813.813 0 0 0 0-1.626z" fill="#282424"/><path d="m220.05088 117.71316h-4.875a.813.813 0 0 0 0 1.626h4.875a.813.813 0 0 0 0-1.626z" fill="#282424"/><path d="m65.715 226.57146a31.952 31.952 0 0 1 -4.733-.3501.81184.81184 0 1 0 -.2416 1.6056 33.426 33.426 0 0 0 4.9746.3705.813.813 0 1 0 0-1.626z" fill="#282424"/><path d="m56.35448 225.16816a31.55719 31.55719 0 0 1 -4.4179-1.7403.813.813 0 0 0 -.7089 1.4634 33.06932 33.06932 0 0 0 4.6479 1.8282.79505.79505 0 0 0 .2388.0366.8119.8119 0 0 0 .2401-1.5879z" fill="#282424"/><path d="m44.12168 218.07826a.81311.81311 0 0 0 -1.1089 1.1895 34.15639 34.15639 0 0 0 3.895 3.1187.81263.81263 0 1 0 .9213-1.3389 32.17962 32.17962 0 0 1 -3.7074-2.9693z" fill="#282424"/><path d="m38.22868 210.67066a.81312.81312 0 1 0 -1.4093.8115 33.65351 33.65351 0 0 0 2.8052 4.1235.81318.81318 0 0 0 1.273-1.0122 31.60207 31.60207 0 0 1 -2.6689-3.9228z" fill="#282424"/><path d="m34.78618 201.85666a.81133.81133 0 0 0 -1.5834.3545l.0013.0073a33.45966 33.45966 0 0 0 1.4576 4.7666.813.813 0 0 0 .7573.5157.77854.77854 0 0 0 .2945-.0557.81356.81356 0 0 0 .4614-1.0518 31.73151 31.73151 0 0 1 -1.3887-4.5366z" fill="#282424"/><path d="m34.09918 197.15886c-.0542-.7529-.0821-1.5161-.0806-2.2851a.81306.81306 0 0 0 -.813-.813h-.0015v3.9537c.0279.0028.0543.0175.0821.0175a.374.374 0 0 0 .0586-.003.81659.81659 0 0 0 .7544-.8701z" fill="#282424"/><path d="m229.79938 226.57146h-4.875a.813.813 0 0 0 0 1.626h4.875a.813.813 0 0 0 0-1.626z" fill="#282424"/><path d="m190.80518 226.57146h-4.8735a.813.813 0 1 0 0 1.626h4.8735a.813.813 0 1 0 0-1.626z" fill="#282424"/><path d="m210.30238 226.57146h-4.875a.813.813 0 0 0 0 1.626h4.875a.813.813 0 1 0 0-1.626z" fill="#282424"/><path d="m239.54788 226.57146h-4.875a.813.813 0 0 0 0 1.626h4.875a.813.813 0 0 0 0-1.626z" fill="#282424"/><path d="m200.55518 226.57146h-4.875a.813.813 0 1 0 0 1.626h4.875a.813.813 0 0 0 0-1.626z" fill="#282424"/><path d="m220.05088 226.57146h-4.875a.813.813 0 0 0 0 1.626h4.875a.813.813 0 1 0 0-1.626z" fill="#282424"/><path d="m268.792 226.57146h-2.4345v-2.0727a.813.813 0 1 0 -1.626 0v2.0727h-.8115a.813.813 0 1 0 0 1.626h.8115v1.1734a.813.813 0 1 0 1.626 0v-1.1734h2.4345a.813.813 0 1 0 0-1.626z" fill="#282424"/><path d="m272.85548 227.38306a.812.812 0 0 0 .8115.8144h4.8737v-1.626h-4.87368a.81151.81151 0 0 0 -.81152.8116z" fill="#282424"/><path d="m249.29648 226.57146h-4.8736a.813.813 0 1 0 0 1.626h4.8736a.813.813 0 0 0 0-1.626z" fill="#282424"/><path d="m259.045 226.57146h-4.8735a.813.813 0 1 0 0 1.626h4.8735a.813.813 0 0 0 0-1.626z" fill="#282424"/><path d="m171.30818 226.57146h-4.8735a.813.813 0 1 0 0 1.626h4.8735a.813.813 0 1 0 0-1.626z" fill="#282424"/><path d="m83.57138 226.57146h-4.8736a.813.813 0 0 0 0 1.626h4.8736a.813.813 0 1 0 0-1.626z" fill="#282424"/><path d="m122.56688 226.57146h-4.875a.813.813 0 1 0 0 1.626h4.875a.813.813 0 0 0 0-1.626z" fill="#282424"/><path d="m112.81838 226.57146h-4.875a.813.813 0 1 0 0 1.626h4.875a.813.813 0 0 0 0-1.626z" fill="#282424"/><path d="m73.82278 226.57146h-4.87348a.813.813 0 1 0 0 1.626h4.87348a.813.813 0 1 0 0-1.626z" fill="#282424"/><path d="m93.31988 226.57146h-4.8735a.813.813 0 0 0 0 1.626h4.8735a.813.813 0 1 0 0-1.626z" fill="#282424"/><path d="m142.06258 226.57146h-4.875a.813.813 0 0 0 0 1.626h4.875a.813.813 0 1 0 0-1.626z" fill="#282424"/><path d="m161.55968 226.57146h-4.8736a.813.813 0 1 0 0 1.626h4.8736a.813.813 0 0 0 0-1.626z" fill="#282424"/><path d="m132.31408 226.57146h-4.875a.813.813 0 0 0 0 1.626h4.875a.813.813 0 1 0 0-1.626z" fill="#282424"/><path d="m103.06988 226.57146h-4.875a.813.813 0 0 0 0 1.626h4.875a.813.813 0 0 0 0-1.626z" fill="#282424"/><path d="m151.81108 226.57146h-4.875a.813.813 0 0 0 0 1.626h4.875a.813.813 0 0 0 0-1.626z" fill="#282424"/><path d="m181.05668 226.57146h-4.8735a.813.813 0 0 0 0 1.626h4.8735a.813.813 0 1 0 0-1.626z" fill="#282424"/><path d="m65.715 50.25556v-9.7485a32.5107 32.5107 0 1 0 0 65.0214h212.8257v-9.75h-212.8257a22.76145 22.76145 0 1 1 0-45.5229z" fill="#968d68"/></g></svg>