<svg xmlns="http://www.w3.org/2000/svg" viewBox="0 0 1000.6 1000.6"><defs><style>.cls-1{fill:#ebebeb;}.cls-2{fill:#455a64;}.cls-3{fill:#fff;}.cls-4{fill:#e0e0e0;}.cls-5{fill:#263238;}.cls-6{fill:#ffbe9d;}.cls-7{fill:#eb996e;}.cls-8{fill:#ff725e;}.cls-9{fill:#fafafa;}.cls-10{opacity:0.3;}</style></defs><g id="Background_Simple" data-name="Background Simple"><path class="cls-1" d="M88.87,135.77l5.69-9.38c48-79,134.69-126.7,226.13-120.92a240.59,240.59,0,0,1,35,4.81c83.14,17.8,155.48,80.66,185.46,161.18,17.64,47.36,22.56,101.88,56,139.47,43.55,48.91,117.49,50.45,182.5,48.42s139-.29,182.34,48.82c27.14,30.75,35.77,74.49,33.58,115.68-5.79,109.06-81.78,206.57-178.42,255S606.76,831.69,501,810.37C352.83,780.5,211.93,698.48,127.23,571.79S21.1,272.5,88.87,135.77Z"/><circle class="cls-1" cx="117.43" cy="772.89" r="58.64"/></g><g id="Device"><path class="cls-2" d="M928.06,995l-332-.19a72.33,72.33,0,0,1-72.29-72.35L523.88,90a72.34,72.34,0,0,1,72.38-72.32l332,.2a72.34,72.34,0,0,1,72.29,72.35l-.17,832.46A72.31,72.31,0,0,1,928.06,995Z"/><path class="cls-3" d="M928,47.33l-64.38,0c-8.64,0-15.64,7.31-15.64,16.33V75.31c0,9-7,16.34-15.64,16.33l-125.49-.07c-8.63,0-15.63-7.33-15.63-16.36V63.54c0-9-7-16.35-15.63-16.35l-22.65,0-56.34,0a50.66,50.66,0,0,0-50.69,50.65l-.16,812.54A50.67,50.67,0,0,0,596.35,961l331.39.19a50.65,50.65,0,0,0,50.68-50.65L978.58,98A50.65,50.65,0,0,0,928,47.33Z"/><path class="cls-1" d="M978.56,218.12V97.06A50.66,50.66,0,0,0,928,47.33l-64.38,0c-8.64,0-15.64,7.31-15.64,16.33V75.31c0,9-7,16.34-15.64,16.33l-125.49-.07c-8.63,0-15.63-7.33-15.63-16.36V63.54c0-9-7-16.35-15.63-16.35l-22.65,0-56.34,0a50.66,50.66,0,0,0-50.69,50.65l0,120.68h432.7Z"/><ellipse class="cls-4" cx="634.11" cy="329.97" rx="52.45" ry="52.33"/><path class="cls-2" d="M609.63,343.07l13.72-1.17,33.54,5.65,4,25.23-.56,2.94a52.75,52.75,0,0,1-49.72,1.14l-.94-33.79"/><path class="cls-2" d="M649.72,347.15a17.94,17.94,0,0,1,17.39,7.64,97.62,97.62,0,0,1,6.23,9.91c-5.45,5.93-9.89,10.44-17.48,13.08Z"/><path class="cls-2" d="M609.63,343.07s-9.08,1.11-12.6,8.84-4.33,10.17-4.33,10.17c4.7,5.64,10.66,12.33,18,14.83,0,0,1.67-19.48,1.89-25C612.81,345.87,613.05,342.89,609.63,343.07Z"/><path class="cls-5" d="M617.93,293.5A24.85,24.85,0,0,1,637.15,284c4.37-.07,6.18.83,9.32,1.68a13.83,13.83,0,0,1,7.86,5.19c2.22,3.15,4.1,6.68,4.52,10.52a64.54,64.54,0,0,1,.56,11.86,21.58,21.58,0,0,1-3.7,11.15l-10.08,1.75c-5.57.18-11.22.37-16.64-.9s-10.69-4.18-13.6-8.92C611.36,309.69,613,299.47,617.93,293.5Z"/><path class="cls-5" d="M608.16,322.7a7.5,7.5,0,0,1,3.41-5.66,5.44,5.44,0,0,1,6.37.55l1.58,1.88a6.49,6.49,0,0,1,3.75,6.55,7.11,7.11,0,0,1-4.95,5.82,7.87,7.87,0,0,1-7.51-1.81A8.82,8.82,0,0,1,608.16,322.7Z"/><path class="cls-2" d="M610.16,329.48a3.28,3.28,0,0,1-.54-2,9,9,0,0,1,2.31-4.52,13.62,13.62,0,0,1,4-3.23c1.19-.63,2-.87,2-1a5.65,5.65,0,0,0-2.12.63,12.14,12.14,0,0,0-4.26,3.23,11.57,11.57,0,0,0-1.63,2.47,5.33,5.33,0,0,0-.65,2.36,2.9,2.9,0,0,0,.45,1.6C610,329.39,610.14,329.5,610.16,329.48Z"/><path class="cls-6" d="M645.53,345.35l0-9.34s8.22-.9,10.49-11.41c1.13-5.23,1.34-13.89,1.28-21,0-6.38-5.5-15.08-13.4-15.1l-3.51-.41-13.44,5.33a3.74,3.74,0,0,0-3.55,3.6l-.4,44.9,6.15,8.63a9.06,9.06,0,0,0,16.43-5.21Z"/><path class="cls-7" d="M640.17,322.14a2.2,2.2,0,0,1,.77-1.38,2.29,2.29,0,0,1,2.78-.16,3,3,0,0,1,1.17,2.87h0a2.8,2.8,0,0,1-2,1.16h-.37a2.46,2.46,0,0,1-1.69-.67A2.22,2.22,0,0,1,640.17,322.14Z"/><path class="cls-5" d="M652.41,310.94a1.37,1.37,0,0,1-1.39,1.3,1.29,1.29,0,0,1-1.34-1.3,1.36,1.36,0,0,1,1.39-1.3A1.31,1.31,0,0,1,652.41,310.94Z"/><path class="cls-5" d="M654.64,307.55c-.18.17-1.17-.65-2.64-.73s-2.58.6-2.73.41.12-.39.6-.71a3.75,3.75,0,0,1,2.2-.54,3.59,3.59,0,0,1,2.09.8C654.59,307.15,654.72,307.47,654.64,307.55Z"/><path class="cls-5" d="M645.42,318.64a9.52,9.52,0,0,1,2.41-.3c.37,0,.73-.07.81-.33a1.92,1.92,0,0,0-.19-1.12l-1-2.9c-1.32-4.14-2.25-7.53-2.08-7.58s1.37,3.26,2.68,7.39l.91,2.92a2.18,2.18,0,0,1,.11,1.48,1,1,0,0,1-.64.51,2.61,2.61,0,0,1-.65.06A9.59,9.59,0,0,1,645.42,318.64Z"/><path class="cls-7" d="M645.48,336a27.11,27.11,0,0,1-14-4.57s3.39,7.56,14.08,7.15Z"/><path class="cls-5" d="M641.05,319.41c.24,0,.15,1.59,1.45,2.79s3,1.12,3,1.35-.4.29-1.11.27a4,4,0,0,1-2.52-1,3.46,3.46,0,0,1-1.12-2.33C640.74,319.78,640.94,319.4,641.05,319.41Z"/><path class="cls-5" d="M654.35,302c-.27.35-1.38.05-2.7.08s-2.42.33-2.69,0c-.12-.17,0-.51.51-.84a4,4,0,0,1,2.17-.63,3.82,3.82,0,0,1,2.18.58C654.3,301.53,654.46,301.87,654.35,302Z"/><path class="cls-5" d="M636.32,310.84a1.36,1.36,0,0,0,1.3,1.4A1.3,1.3,0,0,0,639,311a1.36,1.36,0,0,0-1.29-1.4A1.3,1.3,0,0,0,636.32,310.84Z"/><path class="cls-5" d="M634.54,307c.16.18,1.21-.57,2.68-.54s2.53.78,2.69.6-.08-.4-.55-.75a3.75,3.75,0,0,0-2.15-.7,3.6,3.6,0,0,0-2.14.65C634.61,306.63,634.46,306.94,634.54,307Z"/><path class="cls-5" d="M633.69,303.88c.29.34,1.43,0,2.79,0s2.51.27,2.78-.08c.12-.16,0-.5-.55-.82a4.14,4.14,0,0,0-2.26-.59,4.19,4.19,0,0,0-2.23.63C633.73,303.37,633.57,303.71,633.69,303.88Z"/><path class="cls-6" d="M625.18,314.85c0-.79-.77-2.7-1.55-2.86-2.07-.44-5.84-.48-6.17,4.81-.44,7.22,6.92,6.18,6.95,6S625,317.58,625.18,314.85Z"/><path class="cls-7" d="M622.57,320s-.13.08-.35.16a1.23,1.23,0,0,1-.94,0,3.14,3.14,0,0,1-1.28-2.89,4.22,4.22,0,0,1,.47-1.78,1.48,1.48,0,0,1,1-.91.64.64,0,0,1,.72.39c.09.21,0,.35.07.37s.16-.11.12-.42a.78.78,0,0,0-.26-.47.9.9,0,0,0-.68-.22,1.76,1.76,0,0,0-1.39,1,4.2,4.2,0,0,0-.56,2c0,1.46.62,2.87,1.65,3.24a1.35,1.35,0,0,0,1.16-.12C622.55,320.18,622.6,320,622.57,320Z"/><path class="cls-5" d="M623.33,312l1.85,1.9c7.94-7.59,23.47-26.6,22.61-25.46a23.14,23.14,0,0,0-11.36-1.23c-5.91,1-17.12,3.95-16.94,10.91S623.33,312,623.33,312Z"/><path class="cls-2" d="M612.81,310.41a2.56,2.56,0,0,1,.11-.42,7.83,7.83,0,0,1,.49-1.14,10.65,10.65,0,0,1,3-3.4,19.8,19.8,0,0,1,6.1-2.92c2.42-.79,5.15-1.4,7.83-2.55a35.59,35.59,0,0,0,7.16-4,36.83,36.83,0,0,0,5.05-4.41,36.4,36.4,0,0,0,2.92-3.46l.73-1a2.72,2.72,0,0,1,.27-.34,1.69,1.69,0,0,1-.21.38c-.15.24-.37.6-.67,1a33.9,33.9,0,0,1-2.85,3.55,35.73,35.73,0,0,1-5,4.51,35.21,35.21,0,0,1-7.22,4.06,78.77,78.77,0,0,1-7.87,2.53,20.08,20.08,0,0,0-6,2.81,11,11,0,0,0-3.06,3.26C613,309.85,612.85,310.42,612.81,310.41Z"/><path class="cls-2" d="M614.92,311.55a3.67,3.67,0,0,1,.28-1.58,7.36,7.36,0,0,1,2.72-3.4A16.33,16.33,0,0,1,624,304.2a35.29,35.29,0,0,0,7.51-2.38,31.61,31.61,0,0,0,6.69-4.12,32.32,32.32,0,0,0,4.59-4.51,32.77,32.77,0,0,0,2.56-3.51l.62-1a1.59,1.59,0,0,1,.23-.34s0,.14-.17.38-.33.62-.55,1.05a30.25,30.25,0,0,1-2.48,3.6,31.26,31.26,0,0,1-11.34,8.8,34.53,34.53,0,0,1-7.59,2.37,16.51,16.51,0,0,0-6,2.25,7.47,7.47,0,0,0-2.74,3.24A9.19,9.19,0,0,0,614.92,311.55Z"/><path class="cls-5" d="M610.68,376.86a99.6,99.6,0,0,1,0-13.82,99.6,99.6,0,0,1,0,13.82Z"/><path class="cls-5" d="M660.31,375.9a14.38,14.38,0,0,1,.08-2.46,27.48,27.48,0,0,0-.2-5.86A28.09,28.09,0,0,0,658.5,362a14.32,14.32,0,0,1-.84-2.31,11.34,11.34,0,0,1,1.16,2.18,23.33,23.33,0,0,1,1.85,5.68,22.21,22.21,0,0,1,.06,6A10.81,10.81,0,0,1,660.31,375.9Z"/><path class="cls-1" d="M912.67,396.41H733.94a16.06,16.06,0,0,1-16.07-16.07v-75l-19.7-17.49h214.5a16.06,16.06,0,0,1,16.07,16.07v76.47A16.06,16.06,0,0,1,912.67,396.41Z"/><path class="cls-4" d="M900.42,408.57c0,.34-8.53.61-19.06.61s-19.07-.27-19.07-.61,8.54-.61,19.07-.61S900.42,408.24,900.42,408.57Z"/><path class="cls-8" d="M908.31,410.07a.57.57,0,0,1-.42-.18L904.2,406a.59.59,0,0,1,.85-.81l3.27,3.43,7.17-7.3a.58.58,0,0,1,.82,0,.57.57,0,0,1,0,.82l-7.59,7.73A.59.59,0,0,1,908.31,410.07Z"/><path class="cls-8" d="M913.58,410h0l-.68,0a.58.58,0,0,1-.57-.6.61.61,0,0,1,.6-.56h.42l7.42-7.55a.58.58,0,0,1,.83.82L914,409.78A.59.59,0,0,1,913.58,410Z"/><path class="cls-4" d="M900.42,702.41c0,.33-8.53.61-19.06.61s-19.07-.28-19.07-.61,8.54-.61,19.07-.61S900.42,702.07,900.42,702.41Z"/><path class="cls-8" d="M908.31,703.91h0a.6.6,0,0,1-.42-.18l-3.69-3.86a.59.59,0,1,1,.85-.81l3.27,3.42,7.17-7.29a.57.57,0,0,1,.82,0,.59.59,0,0,1,0,.83l-7.59,7.72A.6.6,0,0,1,908.31,703.91Z"/><path class="cls-8" d="M913.58,703.79h0l-.68,0a.59.59,0,0,1-.57-.6.54.54,0,0,1,.6-.57h.43l7.41-7.54a.58.58,0,1,1,.83.82L914,703.61A.6.6,0,0,1,913.58,703.79Z"/><path class="cls-3" d="M910.39,309.29c0,.34-39,.61-87.15.61s-87.16-.27-87.16-.61,39-.61,87.16-.61S910.39,309,910.39,309.29Z"/><path class="cls-3" d="M910.39,322.1c0,.33-39,.6-87.15.6s-87.16-.27-87.16-.6,39-.61,87.16-.61S910.39,321.76,910.39,322.1Z"/><path class="cls-3" d="M910.39,334.9c0,.34-39,.61-87.15.61s-87.16-.27-87.16-.61,39-.61,87.16-.61S910.39,334.56,910.39,334.9Z"/><ellipse class="cls-4" cx="634.11" cy="656.29" rx="52.45" ry="52.33"/><path class="cls-2" d="M609.63,669.39l13.72-1.16,33.54,5.64,4,25.24-.56,2.93a52.72,52.72,0,0,1-49.72,1.14l-.94-33.79"/><path class="cls-2" d="M649.72,673.47a17.93,17.93,0,0,1,17.39,7.65,97,97,0,0,1,6.23,9.9c-5.45,5.93-9.89,10.45-17.48,13.08Z"/><path class="cls-2" d="M609.63,669.39s-9.08,1.11-12.6,8.85-4.33,10.17-4.33,10.17c4.7,5.64,10.66,12.32,18,14.83,0,0,1.67-19.49,1.89-25C612.81,672.2,613.05,669.22,609.63,669.39Z"/><path class="cls-5" d="M617.93,619.82a24.85,24.85,0,0,1,19.22-9.55c4.37-.07,6.18.84,9.32,1.68a13.83,13.83,0,0,1,7.86,5.19c2.22,3.16,4.1,6.69,4.52,10.53a64.5,64.5,0,0,1,.56,11.86,21.58,21.58,0,0,1-3.7,11.14l-10.08,1.75c-5.57.19-11.22.37-16.64-.9s-10.69-4.18-13.6-8.92C611.36,636,613,625.8,617.93,619.82Z"/><path class="cls-5" d="M608.16,649a7.5,7.5,0,0,1,3.41-5.66,5.44,5.44,0,0,1,6.37.55l1.58,1.89a6.48,6.48,0,0,1,3.75,6.55,7.14,7.14,0,0,1-4.95,5.82,7.9,7.9,0,0,1-7.51-1.82A8.81,8.81,0,0,1,608.16,649Z"/><path class="cls-2" d="M610.16,655.81a3.35,3.35,0,0,1-.54-2,9,9,0,0,1,2.31-4.53,13.79,13.79,0,0,1,4-3.23c1.19-.63,2-.86,2-.94a5.43,5.43,0,0,0-2.12.63,12.22,12.22,0,0,0-4.26,3.22,11.88,11.88,0,0,0-1.63,2.48,5.29,5.29,0,0,0-.65,2.36,2.87,2.87,0,0,0,.45,1.59C610,655.72,610.14,655.83,610.16,655.81Z"/><path class="cls-6" d="M645.58,672.53s-.05-9.35-.05-9.33,8.22-.91,10.49-11.42c1.13-5.23,1.34-13.89,1.28-21,0-6.39-5.5-15.08-13.4-15.11l-3.51-.41L627,620.61a3.74,3.74,0,0,0-3.55,3.6L623,669.12l6.16,8.63a9.06,9.06,0,0,0,16.43-5.22Z"/><path class="cls-7" d="M640.17,648.46a2.25,2.25,0,0,1,.77-1.38,2.3,2.3,0,0,1,2.78-.16,3,3,0,0,1,1.17,2.88h0a2.78,2.78,0,0,1-2,1.15l-.37,0a2.51,2.51,0,0,1-1.69-.67A2.25,2.25,0,0,1,640.17,648.46Z"/><path class="cls-5" d="M652.41,638.15a1.37,1.37,0,0,1-1.39,1.3,1.29,1.29,0,0,1-1.34-1.3,1.36,1.36,0,0,1,1.39-1.3A1.31,1.31,0,0,1,652.41,638.15Z"/><path class="cls-5" d="M654.64,634.76c-.18.17-1.17-.65-2.64-.72s-2.58.59-2.73.4.12-.39.6-.71a3.75,3.75,0,0,1,2.2-.54,3.59,3.59,0,0,1,2.09.8C654.59,634.36,654.72,634.69,654.64,634.76Z"/><path class="cls-5" d="M645.42,645.85a10.12,10.12,0,0,1,2.41-.3c.37,0,.73-.07.81-.32a1.9,1.9,0,0,0-.19-1.12c-.3-.93-.62-1.9-1-2.91-1.32-4.14-2.25-7.53-2.08-7.58s1.37,3.26,2.68,7.4c.32,1,.62,2,.91,2.92a2.14,2.14,0,0,1,.11,1.47,1,1,0,0,1-.64.52,2.56,2.56,0,0,1-.65.05A9.59,9.59,0,0,1,645.42,645.85Z"/><path class="cls-7" d="M645.48,663.23a27.22,27.22,0,0,1-14-4.57s3.39,7.56,14.08,7.15Z"/><path class="cls-5" d="M641.05,646.63c.24,0,.15,1.58,1.45,2.79s3,1.12,3,1.34-.4.29-1.11.27a4,4,0,0,1-2.52-1,3.48,3.48,0,0,1-1.12-2.34C640.74,647,640.94,646.61,641.05,646.63Z"/><path class="cls-5" d="M654.35,629.25c-.27.34-1.38,0-2.7.08s-2.42.32-2.69,0c-.12-.16,0-.5.51-.84a4.21,4.21,0,0,1,4.35-.05C654.3,628.74,654.46,629.08,654.35,629.25Z"/><path class="cls-5" d="M636.32,638.05a1.36,1.36,0,0,0,1.3,1.4,1.3,1.3,0,0,0,1.42-1.2,1.36,1.36,0,0,0-1.29-1.4A1.31,1.31,0,0,0,636.32,638.05Z"/><path class="cls-5" d="M634.54,634.24c.16.18,1.21-.57,2.68-.54s2.53.78,2.69.61-.08-.4-.55-.75a3.68,3.68,0,0,0-2.15-.71,3.6,3.6,0,0,0-2.14.65C634.61,633.84,634.46,634.16,634.54,634.24Z"/><path class="cls-5" d="M633.69,631.09c.29.34,1.43,0,2.79,0s2.51.27,2.78-.07c.12-.17,0-.51-.55-.83a4.44,4.44,0,0,0-4.49,0C633.73,630.59,633.57,630.93,633.69,631.09Z"/><path class="cls-6" d="M625.18,641.18c0-.79-.77-2.7-1.55-2.87-2.07-.44-5.84-.48-6.17,4.81-.44,7.23,6.92,6.18,6.95,6S625,643.9,625.18,641.18Z"/><path class="cls-7" d="M622.57,646.33s-.13.08-.35.17a1.24,1.24,0,0,1-.94,0,3.13,3.13,0,0,1-1.28-2.88,4.19,4.19,0,0,1,.47-1.78,1.44,1.44,0,0,1,1-.91.63.63,0,0,1,.72.39c.09.21,0,.35.07.36s.16-.11.12-.41a.75.75,0,0,0-.26-.47,1,1,0,0,0-.68-.23,1.8,1.8,0,0,0-1.39,1,4.28,4.28,0,0,0-.56,2c0,1.46.62,2.87,1.65,3.23a1.31,1.31,0,0,0,1.16-.12C622.55,646.51,622.6,646.35,622.57,646.33Z"/><path class="cls-5" d="M623.33,638.33l1.85,1.91c7.94-7.59,23.47-26.6,22.61-25.47a23.27,23.27,0,0,0-11.36-1.23c-5.91,1-17.12,4-16.94,10.91S623.33,638.33,623.33,638.33Z"/><path class="cls-2" d="M612.81,636.74a2.31,2.31,0,0,1,.11-.42,7.83,7.83,0,0,1,.49-1.14,10.65,10.65,0,0,1,3-3.4,20,20,0,0,1,6.1-2.93c2.42-.79,5.15-1.4,7.83-2.54a35.61,35.61,0,0,0,7.16-4,37.51,37.51,0,0,0,5.05-4.4,39.11,39.11,0,0,0,2.92-3.46l.73-1a2.11,2.11,0,0,1,.27-.33,2.17,2.17,0,0,1-.21.37c-.15.24-.37.6-.67,1a32.82,32.82,0,0,1-2.85,3.56,35.72,35.72,0,0,1-5,4.5,34.77,34.77,0,0,1-7.22,4.07,81.45,81.45,0,0,1-7.87,2.53,20.08,20.08,0,0,0-6,2.81,10.76,10.76,0,0,0-3.06,3.26C613,636.17,612.85,636.75,612.81,636.74Z"/><path class="cls-2" d="M614.92,637.87a3.67,3.67,0,0,1,.28-1.58,7.36,7.36,0,0,1,2.72-3.4,16.32,16.32,0,0,1,6.05-2.36,36.47,36.47,0,0,0,7.51-2.38,32.19,32.19,0,0,0,11.28-8.63,34.92,34.92,0,0,0,2.56-3.51l.62-1a2.58,2.58,0,0,1,.23-.35s0,.14-.17.38-.33.63-.55,1.05a31,31,0,0,1-2.48,3.61,31.37,31.37,0,0,1-4.58,4.6,31,31,0,0,1-6.76,4.19,35.13,35.13,0,0,1-7.59,2.38,16.7,16.7,0,0,0-6,2.24,7.58,7.58,0,0,0-2.74,3.24A9.19,9.19,0,0,0,614.92,637.87Z"/><path class="cls-5" d="M610.68,703.18a99.6,99.6,0,0,1,0-13.82,99.6,99.6,0,0,1,0,13.82Z"/><path class="cls-5" d="M660.31,702.22a14.26,14.26,0,0,1,.08-2.45,27.47,27.47,0,0,0-.2-5.86,28.42,28.42,0,0,0-1.69-5.64,14.32,14.32,0,0,1-.84-2.31,11.68,11.68,0,0,1,1.16,2.19,23.18,23.18,0,0,1,1.85,5.68,22.13,22.13,0,0,1,.06,6A10.65,10.65,0,0,1,660.31,702.22Z"/><path class="cls-1" d="M912.67,687.06H733.94A16.06,16.06,0,0,1,717.87,671V631.62l-19.7-17.5h214.5a16.07,16.07,0,0,1,16.07,16.07V671A16.06,16.06,0,0,1,912.67,687.06Z"/><path class="cls-3" d="M910.39,635.62c0,.33-39,.6-87.15.6s-87.16-.27-87.16-.6,39-.61,87.16-.61S910.39,635.28,910.39,635.62Z"/><path class="cls-3" d="M910.39,648.42c0,.34-39,.61-87.15.61s-87.16-.27-87.16-.61,39-.61,87.16-.61S910.39,648.08,910.39,648.42Z"/><path class="cls-3" d="M910.39,661.23c0,.33-39,.6-87.15.6s-87.16-.27-87.16-.6,39-.61,87.16-.61S910.39,660.89,910.39,661.23Z"/><path class="cls-3" d="M910.39,347.71c0,.33-39,.6-87.15.6s-87.16-.27-87.16-.6,39-.61,87.16-.61S910.39,347.37,910.39,347.71Z"/><path class="cls-3" d="M910.39,360.51c0,.34-39,.61-87.15.61s-87.16-.27-87.16-.61,39-.61,87.16-.61S910.39,360.17,910.39,360.51Z"/><path class="cls-3" d="M910.39,375.9c0,.33-39,.61-87.15.61s-87.16-.28-87.16-.61,39-.61,87.16-.61S910.39,375.56,910.39,375.9Z"/><path class="cls-5" d="M737,153.39c0-5.1,3.92-8.75,9.2-8.75a8.71,8.71,0,0,1,7,3L750.67,150a5.46,5.46,0,0,0-4.26-2,5.42,5.42,0,1,0,0,10.84,5.41,5.41,0,0,0,4.26-2l2.51,2.33a8.72,8.72,0,0,1-7,3C740.94,162.15,737,158.5,737,153.39Z"/><path class="cls-5" d="M768.85,154.41v7.45h-3.77V155c0-2.11-1-3.07-2.64-3.07-1.82,0-3.12,1.11-3.12,3.5v6.44h-3.78v-18h3.78v6.29a5.69,5.69,0,0,1,4.13-1.55C766.53,148.65,768.85,150.44,768.85,154.41Z"/><path class="cls-5" d="M783.76,154.43v7.43h-3.53v-1.62c-.7,1.18-2.05,1.81-4,1.81-3,0-4.87-1.69-4.87-3.94s1.63-3.9,5.59-3.9h3c0-1.62-1-2.56-3-2.56a6.27,6.27,0,0,0-3.75,1.21l-1.35-2.64a10.05,10.05,0,0,1,5.61-1.57C781.47,148.65,783.76,150.49,783.76,154.43ZM780,157.75v-1.33H777.4c-1.76,0-2.32.65-2.32,1.52s.8,1.57,2.13,1.57A2.77,2.77,0,0,0,780,157.75Z"/><path class="cls-5" d="M795.56,161.23a5.35,5.35,0,0,1-3.07.82c-3.07,0-4.86-1.57-4.86-4.67V152h-2v-2.91h2V146h3.77v3.16h3.24V152H791.4v5.3a1.52,1.52,0,0,0,1.62,1.71,2.58,2.58,0,0,0,1.53-.48Z"/><path class="cls-5" d="M862.29,179.47c0,.34-39.85.61-89,.61s-89-.27-89-.61,39.84-.61,89-.61S862.29,179.14,862.29,179.47Z"/><circle class="cls-5" cx="941.16" cy="149.25" r="4.14"/><path class="cls-5" d="M945.3,161.32a4.15,4.15,0,1,1-4.14-4.14A4.15,4.15,0,0,1,945.3,161.32Z"/><path class="cls-5" d="M945.3,173.4a4.15,4.15,0,1,1-4.14-4.14A4.15,4.15,0,0,1,945.3,173.4Z"/><path class="cls-5" d="M604.6,163.28a1.19,1.19,0,0,1-.69-.23l-11-8.05a1.15,1.15,0,0,1-.48-.95,1.17,1.17,0,0,1,.48-.94l11-7.9a1.17,1.17,0,1,1,1.36,1.9l-9.66,7,9.67,7.09a1.18,1.18,0,0,1,.25,1.64A1.16,1.16,0,0,1,604.6,163.28Z"/><ellipse class="cls-4" cx="890.77" cy="504.1" rx="52.45" ry="52.33"/><path class="cls-5" d="M905.13,535H877.55a3.57,3.57,0,0,1-3.56-3.56h0a3.56,3.56,0,0,1,3.56-3.56h27.58a3.56,3.56,0,0,1,3.56,3.56h0A3.56,3.56,0,0,1,905.13,535Z"/><rect class="cls-5" x="890.48" y="470.07" width="2.42" height="12.25"/><circle class="cls-8" cx="855.93" cy="511.94" r="7.12"/><circle class="cls-8" cx="927.8" cy="511.47" r="7.12"/><path class="cls-8" d="M892.75,479.75s28.94-.34,33.53,24.73-19.9,25.54-26.94,26c-3.19.22-10,.24-16.05.13-13.34-.23-22.77-2.81-26-15.19a23.53,23.53,0,0,1-.72-4.43C855.74,497.43,864.92,479.09,892.75,479.75Z"/><path class="cls-5" d="M871.75,517.94l42,.65a8,8,0,0,0,8.11-7.85h0a8,8,0,0,0-7.86-8.11L872,502a8,8,0,0,0-8.11,7.85h0A8,8,0,0,0,871.75,517.94Z"/><path class="cls-3" d="M905.08,509.87a2.56,2.56,0,1,0,2-3A2.55,2.55,0,0,0,905.08,509.87Z"/><path class="cls-3" d="M875.7,509.4a2.56,2.56,0,1,0,2-3A2.56,2.56,0,0,0,875.7,509.4Z"/><path class="cls-8" d="M895.68,469.82a4,4,0,1,1-4-4A4,4,0,0,1,895.68,469.82Z"/><path class="cls-3" d="M897.71,508.69c.07,0,.18.19.26.61a4.07,4.07,0,0,1-.16,1.78,5.28,5.28,0,0,1-1.4,2.28,4.86,4.86,0,0,1-6.24.56,5.31,5.31,0,0,1-1.79-2,3.94,3.94,0,0,1-.47-1.72c0-.42.06-.65.13-.65s.25.89,1,2a5.27,5.27,0,0,0,1.66,1.53,4.13,4.13,0,0,0,5-.46,5.26,5.26,0,0,0,1.36-1.8C897.64,509.6,897.53,508.7,897.71,508.69Z"/><path class="cls-5" d="M926.21,503.66a2.59,2.59,0,0,1,.23.62,7.7,7.7,0,0,1,.22.74c.07.29.17.62.24,1a19,19,0,0,1,.36,2.64,20.09,20.09,0,0,1-.57,6.5,20.52,20.52,0,0,1-.83,2.54c-.13.36-.29.67-.41.94a6.48,6.48,0,0,1-.35.7,5.36,5.36,0,0,1-.33.57,3.86,3.86,0,0,1,.26-.61c.09-.19.2-.43.31-.71s.25-.59.37-.94a22.33,22.33,0,0,0,.78-2.54,23.83,23.83,0,0,0,.53-3.19,25.35,25.35,0,0,0,0-3.24,23.09,23.09,0,0,0-.32-2.63c0-.38-.14-.71-.2-1s-.13-.55-.18-.75A4.73,4.73,0,0,1,926.21,503.66Z"/><path class="cls-5" d="M857.64,503.81a3.17,3.17,0,0,0-.23.62,7.7,7.7,0,0,0-.22.74c-.08.3-.17.63-.24,1a20.64,20.64,0,0,0-.37,2.65,20.55,20.55,0,0,0,.58,6.5,19.46,19.46,0,0,0,.83,2.54c.13.36.28.66.41.94a7.45,7.45,0,0,0,.34.69,3.06,3.06,0,0,0,.34.57,4.38,4.38,0,0,0-.26-.61c-.09-.19-.2-.42-.31-.7s-.25-.59-.38-1a21.64,21.64,0,0,1-.77-2.53,23.72,23.72,0,0,1-.53-3.2,22.12,22.12,0,0,1,0-3.24,21.42,21.42,0,0,1,.31-2.63c.06-.37.15-.7.21-1s.12-.54.18-.74A4.3,4.3,0,0,0,857.64,503.81Z"/><path class="cls-8" d="M863.89,549s8.59-8.41,26.59-8.41S917.67,549,917.67,549,892.6,566,863.89,549Z"/><path class="cls-1" d="M603.79,557.45H782.52a16.07,16.07,0,0,0,16.08-16.07V489.52L818.3,472H603.79a16.07,16.07,0,0,0-16.07,16.07v53.28A16.06,16.06,0,0,0,603.79,557.45Z"/><path class="cls-3" d="M774.6,497.39c0,.33-36.81.61-82.21.61s-82.22-.28-82.22-.61,36.8-.61,82.22-.61S774.6,497.05,774.6,497.39Z"/><path class="cls-3" d="M774.6,511.27c0,.34-36.81.61-82.21.61s-82.22-.27-82.22-.61,36.8-.61,82.22-.61S774.6,510.93,774.6,511.27Z"/><path class="cls-3" d="M774.6,525.15c0,.34-36.81.61-82.21.61s-82.22-.27-82.22-.61,36.8-.6,82.22-.6S774.6,524.82,774.6,525.15Z"/><path class="cls-3" d="M774.6,539c0,.33-36.81.61-82.21.61s-82.22-.28-82.22-.61,36.8-.61,82.22-.61S774.6,538.7,774.6,539Z"/><ellipse class="cls-4" cx="890.77" cy="794.68" rx="52.45" ry="52.33"/><path class="cls-5" d="M905.13,825.6H877.55A3.57,3.57,0,0,1,874,822h0a3.56,3.56,0,0,1,3.56-3.56h27.58a3.56,3.56,0,0,1,3.56,3.56h0A3.56,3.56,0,0,1,905.13,825.6Z"/><rect class="cls-5" x="890.48" y="760.64" width="2.42" height="12.25"/><circle class="cls-8" cx="855.93" cy="802.52" r="7.12"/><circle class="cls-8" cx="927.8" cy="802.05" r="7.12"/><path class="cls-8" d="M892.75,770.33s28.94-.35,33.53,24.72-19.9,25.54-26.94,26c-3.19.21-10,.24-16.05.13-13.34-.23-22.77-2.81-26-15.19a23.63,23.63,0,0,1-.72-4.44C855.74,788,864.92,769.66,892.75,770.33Z"/><path class="cls-5" d="M871.75,808.52l42,.65a8,8,0,0,0,8.11-7.85h0a8,8,0,0,0-7.86-8.11l-42-.66a8,8,0,0,0-8.11,7.86h0A8,8,0,0,0,871.75,808.52Z"/><path class="cls-3" d="M905.08,800.45a2.56,2.56,0,1,0,2-3A2.56,2.56,0,0,0,905.08,800.45Z"/><path class="cls-3" d="M875.7,800a2.56,2.56,0,1,0,2-3A2.56,2.56,0,0,0,875.7,800Z"/><path class="cls-8" d="M895.68,760.4a4,4,0,1,1-4-4A4,4,0,0,1,895.68,760.4Z"/><path class="cls-3" d="M897.71,799.26c.07,0,.18.2.26.62a4.07,4.07,0,0,1-.16,1.78,5.2,5.2,0,0,1-1.4,2.27,4.84,4.84,0,0,1-6.24.57,5.31,5.31,0,0,1-1.79-2,3.94,3.94,0,0,1-.47-1.72c0-.43.06-.65.13-.65s.25.88,1,2a5.27,5.27,0,0,0,1.66,1.53,4.5,4.5,0,0,0,2.58.62,4.45,4.45,0,0,0,2.43-1.08,5.26,5.26,0,0,0,1.36-1.8C897.64,800.18,897.53,799.28,897.71,799.26Z"/><path class="cls-5" d="M926.21,794.24a2.61,2.61,0,0,1,.23.61c.07.21.15.45.22.75s.17.62.24,1a19,19,0,0,1,.36,2.64,20.16,20.16,0,0,1-.57,6.5,20.52,20.52,0,0,1-.83,2.54c-.13.36-.29.67-.41.94a5.46,5.46,0,0,1-.35.69,3.54,3.54,0,0,1-.33.57,4.69,4.69,0,0,1,.26-.6c.09-.19.2-.43.31-.71s.25-.59.37-.95a21.5,21.5,0,0,0,.78-2.53,23.72,23.72,0,0,0,.53-3.2,25.31,25.31,0,0,0,0-3.24,23.18,23.18,0,0,0-.32-2.62c0-.38-.14-.71-.2-1s-.13-.55-.18-.75A4.73,4.73,0,0,1,926.21,794.24Z"/><path class="cls-5" d="M857.64,794.39a3.17,3.17,0,0,0-.23.62,7.7,7.7,0,0,0-.22.74c-.08.3-.17.63-.24,1a20.39,20.39,0,0,0-.37,2.65,20.55,20.55,0,0,0,.58,6.5,20,20,0,0,0,.83,2.54c.13.35.28.66.41.94s.24.5.34.69a3.6,3.6,0,0,0,.34.57,4.38,4.38,0,0,0-.26-.61c-.09-.19-.2-.42-.31-.7s-.25-.59-.38-1a21.64,21.64,0,0,1-.77-2.53,23.72,23.72,0,0,1-.53-3.2,22.13,22.13,0,0,1,0-3.24,21.42,21.42,0,0,1,.31-2.63c.06-.37.15-.7.21-1s.12-.54.18-.75A4.37,4.37,0,0,0,857.64,794.39Z"/><path class="cls-8" d="M863.89,839.61s8.59-8.4,26.59-8.4,27.19,8.4,27.19,8.4S892.6,856.55,863.89,839.61Z"/><path class="cls-1" d="M603.79,848H782.52A16.07,16.07,0,0,0,798.6,832V780.1l19.7-17.49H603.79a16.07,16.07,0,0,0-16.07,16.07V832A16.06,16.06,0,0,0,603.79,848Z"/><path class="cls-1" d="M603.79,929.13H782.52a16.08,16.08,0,0,0,16.08-16.07V895.87l19.7-17.49H603.79a16.06,16.06,0,0,0-16.07,16.07v18.61A16.07,16.07,0,0,0,603.79,929.13Z"/><path class="cls-3" d="M774.6,788c0,.33-36.81.6-82.21.6s-82.22-.27-82.22-.6,36.8-.61,82.22-.61S774.6,787.63,774.6,788Z"/><path class="cls-3" d="M774.6,801.85c0,.34-36.81.61-82.21.61s-82.22-.27-82.22-.61,36.8-.61,82.22-.61S774.6,801.51,774.6,801.85Z"/><path class="cls-3" d="M774.6,815.73c0,.34-36.81.61-82.21.61s-82.22-.27-82.22-.61,36.8-.61,82.22-.61S774.6,815.4,774.6,815.73Z"/><path class="cls-3" d="M774.6,829.62c0,.33-36.81.61-82.21.61s-82.22-.28-82.22-.61S647,829,692.39,829,774.6,829.28,774.6,829.62Z"/><path class="cls-3" d="M775.11,904.49c0,.34-36.43.61-81.35.61s-81.35-.27-81.35-.61,36.41-.61,81.35-.61S775.11,904.15,775.11,904.49Z"/></g><g id="Plant"><path class="cls-2" d="M177,870.64c6.34,1.29,11.74,5.75,15.13,11.25s5,12,5.58,18.39c1.2,12.44-3.12,26.17-8.5,37.46-12.13-6.77-17.77-21.86-20.16-29.69-3.77-12.38-3.06-37,7.95-37.41"/><path class="cls-2" d="M205.36,955.29c-3.09-6.53-1.83-14.67,2.45-20.48S219,925.45,226.2,924.5c3.31-.44,7-.23,9.46,2,2.27,2.14,2.81,5.68,2,8.68a17.73,17.73,0,0,1-5.11,7.72c-7.69,7.44-16.5,13.23-27.16,12.34"/><path class="cls-5" d="M200.11,995.33a13.94,13.94,0,0,1-.16-2.57c0-1.83-.12-4.18-.19-7-.07-5.88-.32-14.27,2.41-23s7.5-15.78,12-19.72a30.16,30.16,0,0,1,5.72-4.12,17.37,17.37,0,0,1,1.72-.85,2.76,2.76,0,0,1,.63-.23c.12.19-3.36,1.6-7.63,5.67S205.66,954.39,203,963s-2.53,16.88-2.63,22.76c0,3,0,5.36-.1,7A13.93,13.93,0,0,1,200.11,995.33Z"/><path class="cls-5" d="M178.14,889.47a5.19,5.19,0,0,1,.35,1.06l.85,3.1c.72,2.69,1.71,6.59,2.9,11.43,2.37,9.67,5.47,23.08,8.55,38s5.55,28.42,7.21,38.25c.83,4.91,1.47,8.88,1.88,11.64q.27,2,.45,3.18a5.13,5.13,0,0,1,.09,1.11,5.41,5.41,0,0,1-.27-1.08c-.16-.82-.37-1.86-.62-3.15-.53-2.85-1.26-6.78-2.16-11.59-1.82-9.79-4.4-23.3-7.47-38.18s-6.07-28.29-8.28-38c-1.09-4.77-2-8.67-2.62-11.5l-.69-3.13A5.32,5.32,0,0,1,178.14,889.47Z"/><path class="cls-2" d="M189.21,966.43a48,48,0,0,0-33-29c-3.76-.92-8.46-1-10.73,2.09s-.68,7.59,1.45,10.84c8.84,13.51,26.44,20.65,42.2,17.13"/><path class="cls-5" d="M160.36,948.6a12.28,12.28,0,0,1,2.37.48,23.41,23.41,0,0,1,2.73.79c1,.38,2.27.71,3.54,1.3a42.78,42.78,0,0,1,4.14,1.94,47.76,47.76,0,0,1,4.54,2.65,53.67,53.67,0,0,1,9.19,7.76,52.29,52.29,0,0,1,7,9.76,47,47,0,0,1,2.26,4.75,39.2,39.2,0,0,1,1.55,4.3c.47,1.32.67,2.58.95,3.65a21.24,21.24,0,0,1,.5,2.8,12.89,12.89,0,0,1,.24,2.41c-.2,0-.57-3.41-2.3-8.66a40.88,40.88,0,0,0-1.63-4.21,48.45,48.45,0,0,0-2.3-4.63,54.32,54.32,0,0,0-7-9.55,55.31,55.31,0,0,0-9-7.69,50.18,50.18,0,0,0-4.42-2.68c-1.4-.82-2.79-1.42-4-2C163.68,949.54,160.3,948.79,160.36,948.6Z"/></g><g id="Speech_Bubble" data-name="Speech Bubble"><path class="cls-9" d="M234.66,263.44l-8.65-27a93.92,93.92,0,1,0-22.49,25l0,.05Z"/><path class="cls-5" d="M234.66,263.44s-.64,0-2-.08l-5.92-.31-23.31-1.28a.27.27,0,0,1-.25-.28.39.39,0,0,1,.06-.15l0,0,.37.37a93.72,93.72,0,0,1-42.32,18.59,90.25,90.25,0,0,1-14.5,1.25c-5-.2-10.26-.22-15.55-1.24a93.33,93.33,0,0,1-32-11.22A94.57,94.57,0,0,1,54.16,208a92.85,92.85,0,0,1,.37-42.73q.69-2.67,1.38-5.37c.53-1.77,1.25-3.49,1.86-5.25a50.74,50.74,0,0,1,2-5.21q1.22-2.53,2.45-5.08A41.92,41.92,0,0,1,65,139.38l3-4.85L71.4,130l1.72-2.3c.59-.75,1.27-1.43,1.91-2.15a93.36,93.36,0,0,1,37.25-26.11,95.79,95.79,0,0,1,43.05-5.89,93.7,93.7,0,0,1,38.82,12.8,94.8,94.8,0,0,1,28,25.45A93.79,93.79,0,0,1,237,162.65a101.62,101.62,0,0,1,2.89,15.44c.22,5.06.65,9.94.27,14.63a93.36,93.36,0,0,1-13.89,43.86l0-.21,6.32,20.21,1.59,5.15c.35,1.15.5,1.71.5,1.71s-.22-.62-.61-1.79l-1.72-5.18-6.56-20a.26.26,0,0,1,0-.21,93.36,93.36,0,0,0,13.53-43.63c.35-4.65-.1-9.49-.33-14.5a102.19,102.19,0,0,0-2.92-15.29,93.47,93.47,0,0,0-80.87-68.23,94.93,94.93,0,0,0-42.5,5.85A92.37,92.37,0,0,0,75.94,126.3c-.62.71-1.3,1.38-1.88,2.12l-1.69,2.27L69,135.21,66.07,140a39.58,39.58,0,0,0-2.72,4.88q-1.22,2.51-2.42,5a48.05,48.05,0,0,0-2,5.14c-.61,1.73-1.32,3.43-1.84,5.18s-.91,3.54-1.37,5.3a91.9,91.9,0,0,0-.4,42.19,93.11,93.11,0,0,0,76.15,71.66c5.24,1,10.42,1.06,15.4,1.28a90,90,0,0,0,14.38-1.18,93.82,93.82,0,0,0,42.13-18.2.27.27,0,0,1,.37,0,.27.27,0,0,1,0,.33l0,0-.19-.43,23.1,1.6,6,.43C234,263.37,234.66,263.44,234.66,263.44Z"/><path class="cls-5" d="M119.74,187.33a9.53,9.53,0,1,1-9.53-9.53A9.53,9.53,0,0,1,119.74,187.33Z"/><path class="cls-5" d="M157.84,187.33a9.52,9.52,0,1,1-9.52-9.53A9.52,9.52,0,0,1,157.84,187.33Z"/><path class="cls-5" d="M195.86,182.56a9.53,9.53,0,1,1-13-3.48A9.53,9.53,0,0,1,195.86,182.56Z"/></g><g id="Bot"><path class="cls-8" d="M199.64,608l-98.59-10.3L59.45,503,27,511.43S51,611.47,77.76,627s118.36,18.31,118.36,18.31Z"/><circle class="cls-5" cx="219.36" cy="626.97" r="43.68" transform="translate(-379.08 338.75) rotate(-45)"/><path class="cls-5" d="M219.36,670.71a43.75,43.75,0,1,1,30.93-12.82A43.41,43.41,0,0,1,219.36,670.71Zm0-87.36a43.62,43.62,0,1,0,30.85,12.78A43.33,43.33,0,0,0,219.36,583.35Z"/><circle class="cls-5" cx="84.67" cy="602.63" r="32.76" transform="translate(-138.32 36.41) rotate(-13.5)"/><circle class="cls-5" cx="40.88" cy="491.73" r="26.77" transform="translate(-335.73 172.93) rotate(-45)"/><path class="cls-5" d="M55,473.83H87.09a0,0,0,0,1,0,0v12.31a0,0,0,0,1,0,0H55a2.45,2.45,0,0,1-2.45-2.45v-7.41A2.45,2.45,0,0,1,55,473.83Z" transform="translate(432.86 801.64) rotate(139.82)"/><path class="cls-5" d="M33.64,448.52H65.37a.35.35,0,0,1,.35.35v11.61a.35.35,0,0,1-.35.35H33.64a2.45,2.45,0,0,1-2.45-2.45V451A2.45,2.45,0,0,1,33.64,448.52Z" transform="translate(503.12 406.22) rotate(90)"/><path class="cls-5" d="M16.46,449.69H48.19a.35.35,0,0,1,.35.35v11.61a.35.35,0,0,1-.35.35H16.46A2.45,2.45,0,0,1,14,459.55v-7.41A2.45,2.45,0,0,1,16.46,449.69Z" transform="translate(469.3 325.81) rotate(77.39)"/><path class="cls-5" d="M-1,457H30.76a.35.35,0,0,1,.35.35V469a.35.35,0,0,1-.35.35H-1a2.45,2.45,0,0,1-2.45-2.45v-7.41A2.45,2.45,0,0,1-1,457Z" transform="translate(408.02 219.59) rotate(60)"/><rect class="cls-8" x="583.85" y="638.18" width="32.03" height="217.32" transform="translate(1444.18 1199.34) rotate(156.96)"/><circle class="cls-5" cx="542.98" cy="631.53" r="43.68" transform="translate(-289.86 637.55) rotate(-49.73)"/><path class="cls-5" d="M543,675.28a43.92,43.92,0,0,1-12.94-2,43.48,43.48,0,1,1,12.94,2Zm-.11-87.39a43.63,43.63,0,1,0,41.74,56.49l.06,0-.06,0a43.62,43.62,0,0,0-28.83-54.54A44,44,0,0,0,542.92,587.89Z"/><circle class="cls-5" cx="599.87" cy="753.29" r="32.76" transform="translate(-286.54 1129.55) rotate(-74.47)"/><circle class="cls-5" cx="649.24" cy="855.22" r="26.77"/><path class="cls-5" d="M610.68,869.37h32.08a0,0,0,0,1,0,0v12.31a0,0,0,0,1,0,0H610.68a2.45,2.45,0,0,1-2.45-2.45v-7.41A2.45,2.45,0,0,1,610.68,869.37Z" transform="translate(-447.65 954.02) rotate(-58.64)"/><path class="cls-5" d="M639,886.61H670.7a.35.35,0,0,1,.35.35v11.61a.35.35,0,0,1-.35.35H639a2.45,2.45,0,0,1-2.45-2.45v-7.41a2.45,2.45,0,0,1,2.45-2.45Z" transform="translate(13.95 1795.59) rotate(-108.46)"/><path class="cls-5" d="M654.89,880.06h31.73a.35.35,0,0,1,.35.35V892a.35.35,0,0,1-.35.35H654.89a2.45,2.45,0,0,1-2.45-2.45v-7.41A2.45,2.45,0,0,1,654.89,880.06Z" transform="translate(256.24 1917.2) rotate(-121.07)"/><path class="cls-5" d="M669.11,867.61h31.73a.35.35,0,0,1,.35.35v11.61a.35.35,0,0,1-.35.35H669.11a2.45,2.45,0,0,1-2.45-2.45v-7.41A2.45,2.45,0,0,1,669.11,867.61Z" transform="translate(616.39 1981.32) rotate(-138.46)"/><path class="cls-8" d="M206.3,581.54s3.15,306.6,175.21,312.6,179.28-310.41,179.28-312.6c0,0-20.32-45.73-177.25-43.94S206.3,581.54,206.3,581.54Z"/><rect class="cls-5" x="285.79" y="490.67" width="179.81" height="36.88" rx="7.35" transform="translate(751.39 1018.22) rotate(180)"/><rect class="cls-5" x="369.45" y="191.41" width="12.56" height="63.49" transform="translate(751.45 446.32) rotate(180)"/><circle class="cls-8" cx="559.21" cy="407.93" r="36.89" transform="translate(-79.19 140.42) rotate(-13.37)"/><circle class="cls-8" cx="186.74" cy="405.5" r="36.89" transform="translate(-85.08 51.36) rotate(-12.78)"/><path class="cls-8" d="M368.4,241.14s-150-1.8-173.76,128.13S297.76,501.62,334.25,504.09c16.54,1.11,51.94,1.23,83.18.68,69.15-1.2,118-14.58,134.64-78.74a121.88,121.88,0,0,0,3.73-23C560.2,332.74,512.6,237.68,368.4,241.14Z"/><path class="cls-5" d="M477.23,439l-217.94,3.41a41.38,41.38,0,0,1-42-40.72h0a41.37,41.37,0,0,1,40.72-42l217.94-3.4A41.37,41.37,0,0,1,518,397h0A41.37,41.37,0,0,1,477.23,439Z"/><path class="cls-3" d="M304.51,397.21A13.27,13.27,0,1,1,294,381.63,13.27,13.27,0,0,1,304.51,397.21Z"/><path class="cls-3" d="M456.77,394.78a13.28,13.28,0,1,1-10.48-15.58A13.28,13.28,0,0,1,456.77,394.78Z"/><path class="cls-5" d="M434.86,703.3A59.32,59.32,0,1,1,380,639.81,59.32,59.32,0,0,1,434.86,703.3Z"/><path class="cls-3" d="M418.81,702.13a43.23,43.23,0,1,1-40-46.27A43.23,43.23,0,0,1,418.81,702.13Z"/><path class="cls-8" d="M398,710c-.16-.1-.29-2.66-.4-7.13s-.19-10.85-.2-18.63l.47.85-22.24-13,1.24,0-22.44,12.61c-.61,1,.82-1.38.67-1.13h0v1.67l0,1.68-.05,3.34c0,2.21-.07,4.39-.11,6.54q-.12,6.45-.24,12.49l-.6-1.08,22,13.42h-1c6.86-3.69,12.51-6.64,16.49-8.66s6.31-3.13,6.47-3-1.83,1.4-5.61,3.71-9.38,5.64-16.4,9.69l-.48.28-.5-.3-22.24-13-.61-.36v-.72q.06-6,.12-12.49,0-3.24.08-6.55l.05-3.34,0-1.68v-1.67h0c-.15.25,1.28-2.14.68-1.13L375.62,670l.64-.36.61.37,22,13.43.49.3v.56c-.24,8.09-.52,14.59-.75,19S398.13,710.09,398,710Z"/><circle class="cls-8" cx="375.73" cy="190.15" r="20.7" transform="translate(-24.41 321.37) rotate(-45)"/><path class="cls-3" d="M342.68,391.09c1,.1.49,4.74,3.39,10.92a27.48,27.48,0,0,0,7.05,9.26,21.28,21.28,0,0,0,25.74,2.35,27.53,27.53,0,0,0,8.61-7.83c4-5.55,4.32-10.2,5.31-10.13.39,0,.79,1.18.79,3.38a20.45,20.45,0,0,1-2.41,9,27.61,27.61,0,0,1-9.32,10.37,25.17,25.17,0,0,1-32.51-3A27.55,27.55,0,0,1,342,403.52a20.54,20.54,0,0,1-.75-9.26C341.69,392.1,342.3,391,342.68,391.09Z"/><path class="cls-5" d="M542.41,451.67c-.22-.12,2.47-4.2,5.06-11.57s5-17.94,6.08-29.8a220.68,220.68,0,0,0,.71-30.52c-.19-3.9-.37-7.07-.55-9.25a17.66,17.66,0,0,1-.11-3.41,19.86,19.86,0,0,1,.59,3.36c.32,2.18.63,5.34.93,9.26a187.1,187.1,0,0,1-.35,30.68c-1.12,11.94-3.6,22.64-6.49,30a58.36,58.36,0,0,1-4,8.43A17.85,17.85,0,0,1,542.41,451.67Z"/><path class="cls-5" d="M195,365a18.53,18.53,0,0,1-.74,3.34c-.29,1.06-.63,2.35-.93,3.88s-.76,3.24-1.05,5.17A114.94,114.94,0,0,0,190.61,391a125.38,125.38,0,0,0,.24,16.78,123.78,123.78,0,0,0,2.72,16.57,114.76,114.76,0,0,0,4,13.12c.63,1.86,1.37,3.47,1.95,4.91s1.13,2.67,1.6,3.66a17.15,17.15,0,0,1,1.31,3.15,19.75,19.75,0,0,1-1.74-2.94c-.53-1-1.16-2.16-1.79-3.59s-1.45-3-2.13-4.87a103.53,103.53,0,0,1-4.31-13.17,106.63,106.63,0,0,1-3-33.7,103.82,103.82,0,0,1,1.92-13.71c.35-1.94.85-3.66,1.24-5.18s.78-2.8,1.14-3.84A18.67,18.67,0,0,1,195,365Z"/><path class="cls-5" d="M205.58,581.26a5.06,5.06,0,0,1,.9.27l2.61.88,10,3.52,7.19,2.56c2.65.89,5.57,1.72,8.68,2.69,6.25,1.86,13.28,4.26,21.27,6.14l12.47,3.2c4.35,1.09,8.94,1.91,13.65,2.93,9.4,2.16,19.61,3.63,30.31,5.36a542,542,0,0,0,70.32,5,540.46,540.46,0,0,0,70.33-5c10.71-1.73,20.91-3.2,30.32-5.35,4.71-1,9.31-1.84,13.65-2.93l12.47-3.2c8-1.88,15-4.28,21.27-6.13,3.11-1,6-1.8,8.68-2.69l7.19-2.57,10-3.51,2.61-.88a5.06,5.06,0,0,1,.9-.27,4.79,4.79,0,0,1-.86.38l-2.56,1L547,586.4l-7.16,2.67c-2.64.92-5.56,1.78-8.66,2.79-6.24,1.91-13.27,4.38-21.26,6.31l-12.47,3.28c-4.35,1.12-8.94,2-13.66,3-9.42,2.21-19.64,3.72-30.37,5.48A531.62,531.62,0,0,1,383,615.06a531.4,531.4,0,0,1-70.48-5.14c-10.72-1.77-20.94-3.28-30.36-5.48-4.71-1.05-9.31-1.89-13.65-3L256,598.15c-8-1.94-15-4.4-21.25-6.32-3.11-1-6-1.87-8.66-2.79l-7.17-2.67-9.9-3.73-2.56-1A4.79,4.79,0,0,1,205.58,581.26Z"/><g class="cls-10"><path d="M206.3,581.54s20.32-42.15,177.24-43.94,177.25,43.94,177.25,43.94S402.5,659.61,206.3,581.54Z"/></g><path class="cls-3" d="M349.42,250.86a2.05,2.05,0,0,1-.54.09l-1.59.14c-1.39.15-3.46.19-6.09.51a164.31,164.31,0,0,0-22.14,3.67,160.65,160.65,0,0,0-110.15,90.9,163.65,163.65,0,0,0-7.8,21c-.81,2.53-1.25,4.54-1.65,5.88-.18.61-.32,1.12-.44,1.53a2,2,0,0,1-.19.51s0-.18.07-.54.19-.93.32-1.56c.33-1.36.69-3.4,1.43-5.95a148.91,148.91,0,0,1,7.48-21.26,157.77,157.77,0,0,1,16.49-29.07,155.71,155.71,0,0,1,62.58-51.64,158,158,0,0,1,31.67-10.68,149,149,0,0,1,22.29-3.31c2.65-.24,4.72-.21,6.12-.27l1.59,0A2.23,2.23,0,0,1,349.42,250.86Z"/><path class="cls-3" d="M202.63,430.85c-.14.06-1-1.69-2.13-4.67a66.44,66.44,0,0,1-3.82-24.37c.12-3.17.45-5.11.6-5.1.38,0-.14,7.83,1.37,17.28S203,430.71,202.63,430.85Z"/><path class="cls-3" d="M163.29,418.77c-.06.05-.53-.38-1.27-1.26a22.38,22.38,0,0,1-2.64-4.09,26.67,26.67,0,0,1,4-30.18A22.86,22.86,0,0,1,167,380c.94-.66,1.5-.95,1.55-.89s-2,1.6-4.52,4.7a27.59,27.59,0,0,0-3.88,29.25C161.8,416.7,163.46,418.63,163.29,418.77Z"/><path class="cls-3" d="M377.1,175.73c-.05.23-2.14-.54-5.5-.14a14.33,14.33,0,0,0-12.25,19.08c1,3.24,2.6,4.81,2.41,5s-.49-.29-1.13-1a12.71,12.71,0,0,1-2.1-3.62,14.69,14.69,0,0,1,13-20.23,12.9,12.9,0,0,1,4.17.4C376.64,175.4,377.12,175.66,377.1,175.73Z"/><path class="cls-3" d="M580.86,390.41c-.25.27-3.89-3.2-9.39-5.83s-10.44-3.4-10.38-3.77,5.22-.12,10.92,2.68S581.1,390.23,580.86,390.41Z"/><path class="cls-3" d="M260.26,799.74s-.12-.14-.3-.45-.46-.82-.76-1.38q-1.05-2-2.84-5.36c-.61-1.18-1.28-2.48-2-3.89s-1.41-3-2.19-4.74c-1.59-3.39-3.39-7.26-5.13-11.64-.89-2.18-1.83-4.46-2.8-6.84l-2.79-7.52c-2-5.17-3.71-10.85-5.71-16.75C232.05,729.26,228.45,716,225.3,702s-5.46-27.55-7.32-39.87-3.08-23.48-3.83-32.87c-.46-4.69-.73-8.94-1-12.68s-.44-7-.52-9.58-.15-4.57-.2-6.06c0-.63,0-1.15,0-1.58s0-.54,0-.54a1.93,1.93,0,0,1,.09.54c0,.42.08.94.14,1.57.1,1.48.25,3.5.43,6s.39,5.84.71,9.56.64,8,1.15,12.65c.85,9.37,2.3,20.48,4.08,32.79s4.32,25.75,7.4,39.77,6.7,27.2,10.3,39.1c2,5.89,3.63,11.57,5.59,16.74.94,2.59,1.84,5.11,2.71,7.52l2.73,6.86c1.68,4.39,3.42,8.27,5,11.68l2.1,4.77c.69,1.43,1.33,2.74,1.91,3.93q1.67,3.45,2.63,5.46c.27.57.48,1,.66,1.43A2,2,0,0,1,260.26,799.74Z"/><path class="cls-3" d="M168.67,609.13c0,.33-7.68.06-17.09-.61s-17-1.49-17-1.82,7.68-.06,17.09.61S168.69,608.79,168.67,609.13Z"/><path class="cls-3" d="M80.71,559.21c-.3.16-4.28-6.63-8.9-15.15S63.68,528.49,64,528.33s4.28,6.62,8.9,15.15S81,559.05,80.71,559.21Z"/><path class="cls-3" d="M343.16,873.46a11.52,11.52,0,0,1-2.73-.33,58.19,58.19,0,0,1-7.32-1.77,75.85,75.85,0,0,1-10.42-4,79.41,79.41,0,0,1-22.32-15.69,75.3,75.3,0,0,1-7.3-8.46,57.85,57.85,0,0,1-4.13-6.28,11.19,11.19,0,0,1-1.24-2.47c.19-.11,2.15,3.29,6.05,8.23a87.84,87.84,0,0,0,7.41,8.18,92.3,92.3,0,0,0,10.39,8.61,94.84,94.84,0,0,0,11.62,6.87,87.78,87.78,0,0,0,10.21,4.19C339.34,872.55,343.21,873.24,343.16,873.46Z"/><path class="cls-3" d="M379,765.29a7.39,7.39,0,0,1-1.63.17,43.26,43.26,0,0,1-4.73.14,61.92,61.92,0,0,1-17.14-2.78,71.5,71.5,0,0,1-11.17-4.5,72.71,72.71,0,0,1-11.61-7.49,63,63,0,0,1-24.27-55.89,72.56,72.56,0,0,1,2.46-13.6,70.74,70.74,0,0,1,4.34-11.23A61.63,61.63,0,0,1,325,655.69a42.5,42.5,0,0,1,3.32-3.36,9.1,9.1,0,0,1,1.24-1.08c.1.09-1.55,1.66-4.2,4.75a65.45,65.45,0,0,0-9.26,14.49,71.65,71.65,0,0,0-4.14,11.12A72.73,72.73,0,0,0,309.6,695,62.57,62.57,0,0,0,333.45,750a73.36,73.36,0,0,0,11.38,7.48,72.51,72.51,0,0,0,11,4.57,65.22,65.22,0,0,0,16.9,3.12C376.76,765.3,379,765.16,379,765.29Z"/><path class="cls-3" d="M96,581.17c-.1.2-1.81-.68-4.76-1.35a26.08,26.08,0,0,0-22.11,5.31c-2.33,1.93-3.46,3.49-3.63,3.36s.79-1.82,3.06-4A24.17,24.17,0,0,1,91.41,579C94.43,579.91,96,581.07,96,581.17Z"/><path class="cls-3" d="M441.21,348.69c0,.34-28.7.61-64.11.61S313,349,313,348.69s28.7-.61,64.12-.61S441.21,348.36,441.21,348.69Z"/><path class="cls-3" d="M331.81,494.89a4,4,0,0,1-1.09.18l-3.12.27c-1.36.11-3,.22-5,.25s-4.15.15-6.58.08c-4.88,0-10.69-.35-17.11-1A173.83,173.83,0,0,1,258.16,485a166.92,166.92,0,0,1-15.77-6.71c-2.21-1-4.14-2.1-5.85-3s-3.16-1.73-4.33-2.44-1.94-1.19-2.68-1.63a3.77,3.77,0,0,1-.89-.65,4.59,4.59,0,0,1,1,.43l2.78,1.44c1.2.64,2.67,1.42,4.41,2.25s3.68,1.86,5.91,2.83c4.4,2.06,9.75,4.25,15.78,6.44a186.81,186.81,0,0,0,40.54,9.55c6.37.73,12.14,1.15,17,1.28,2.43.13,4.63.08,6.55.1s3.6,0,5-.05l3.13,0A4.1,4.1,0,0,1,331.81,494.89Z"/><path class="cls-3" d="M518.44,600.26a2.1,2.1,0,0,1-.55.26l-1.69.63-6.5,2.31c-2.82,1-6.29,2.21-10.38,3.41s-8.69,2.74-13.9,4l-8.14,2.15c-2.83.74-5.82,1.35-8.89,2.06-6.13,1.49-12.77,2.66-19.74,4a449.71,449.71,0,0,1-45.82,5.39,452.4,452.4,0,0,1-46.14.26c-7.08-.45-13.81-.8-20.08-1.52-3.14-.34-6.18-.57-9.08-1l-8.34-1.14c-5.32-.65-10.09-1.6-14.29-2.31s-7.79-1.44-10.71-2.11l-6.74-1.5-1.75-.42a2.2,2.2,0,0,1-.58-.18,2.34,2.34,0,0,1,.61.06l1.77.3,6.78,1.28c2.93.59,6.53,1.27,10.74,1.9s9,1.53,14.29,2.13l8.33,1.06c2.9.36,5.93.57,9.06.88,6.26.68,13,1,20,1.41,14.14.57,29.71.6,46-.35s31.74-3,45.7-5.29c7-1.28,13.59-2.4,19.71-3.84,3.07-.7,6.06-1.28,8.89-2l8.14-2.07c5.21-1.24,9.83-2.71,13.92-3.86s7.59-2.26,10.43-3.21l6.57-2.09,1.72-.52A3.39,3.39,0,0,1,518.44,600.26Z"/></g></svg>