<svg xmlns="http://www.w3.org/2000/svg" viewBox="0 0 1000.6 1000.6"><defs><style>.cls-1,.cls-19,.cls-24{fill:#423549;}.cls-2{fill:#d6dae0;}.cls-3{fill:#b6bcc3;}.cls-4{fill:#a6a5b6;}.cls-5{fill:#e1e1e4;}.cls-6{fill:#c14554;}.cls-7{fill:#f8e7e6;}.cls-8{fill:#fff;}.cls-9{fill:none;}.cls-10{fill:#e9b98f;}.cls-11{fill:#bbe4fd;}.cls-12{fill:#a5d1e5;}.cls-13{fill:#2d4a42;}.cls-14{fill:#5b709c;}.cls-15{fill:#7186ba;}.cls-16{fill:#d7d3ae;}.cls-17{fill:#251115;}.cls-18{fill:#e4a079;}.cls-19{font-size:17.6px;font-family:Montserrat-Bold, Montserrat Bold;}.cls-19,.cls-24{font-weight:700;}.cls-20{letter-spacing:-0.08em;}.cls-21{letter-spacing:0.04em;}.cls-22{letter-spacing:0em;}.cls-23{letter-spacing:-0.04em;}.cls-24{font-size:61.6px;font-family:Poppins-Bold, Poppins Bold;}.cls-25{letter-spacing:0em;}</style></defs><g id="Bot"><path class="cls-1" d="M914.9,512.51v66.27l8.42-2.8a11,11,0,0,0,7.55-10.47V525.78a11,11,0,0,0-7.55-10.47Z"/><path class="cls-1" d="M103.55,512.51v66.27L95.14,576a11,11,0,0,1-7.55-10.47V525.78a11,11,0,0,1,7.55-10.47Z"/><path class="cls-1" d="M914.9,594.77V661l8.42-2.8a11,11,0,0,0,7.55-10.47V608a11,11,0,0,0-7.55-10.47Z"/><path class="cls-1" d="M95.57,918.58V434.3c0-11.41,9.88-21.29,22.07-21.29H900.82a22.07,22.07,0,0,1,22.07,22.07V919.36a22.07,22.07,0,0,1-22.07,22.07H117.64C105.45,941.43,95.57,931.55,95.57,918.58Z"/><rect class="cls-2" x="122.91" y="440.36" width="772.63" height="473.73"/><path class="cls-3" d="M249.85,442.53H125.09V911.91H893.37V787.75H595.08C404.41,787.75,249.85,633.19,249.85,442.53Z"/><path class="cls-1" d="M509.23,429.69h-32v10.67c8.26,0,16.85,16.74,32,16.74s23.72-16.74,32-16.74V429.69Z"/><path class="cls-4" d="M521.67,434.77a12.45,12.45,0,1,1-12.44-12.45A12.44,12.44,0,0,1,521.67,434.77Z"/><path class="cls-5" d="M509.23,438.15a10.28,10.28,0,0,1-9.37-5.49,8.09,8.09,0,0,0-.84,3.58c0,5,4.57,9.06,10.21,9.06s10.2-4.05,10.2-9.06a8.22,8.22,0,0,0-.83-3.58A10.3,10.3,0,0,1,509.23,438.15Z"/><path class="cls-6" d="M538.08,853a28.85,28.85,0,1,1-28.5-29.21A28.86,28.86,0,0,1,538.08,853Z"/><path class="cls-7" d="M517.42,844.87v0h-.84l-14.5-.18H501v0a12.51,12.51,0,0,0-12.11,11.38.89.89,0,0,0,.88,1l9.85.13a2.29,2.29,0,0,0,2.31-2.26,2.28,2.28,0,0,1,2.31-2.25l9.94.12a2.29,2.29,0,0,1,2.25,2.31,2.28,2.28,0,0,0,2.25,2.31l9.85.12a.91.91,0,0,0,.91-1A12.52,12.52,0,0,0,517.42,844.87Z"/><path class="cls-8" d="M633.36,854.2A28.85,28.85,0,1,1,604.87,825,28.84,28.84,0,0,1,633.36,854.2Z"/><rect class="cls-1" x="595.7" y="844.76" width="17.28" height="18.15" rx="1.49" transform="translate(10.58 -7.39) rotate(0.71)"/><path class="cls-1" d="M616,849.11V850l-2.13,0-.1,8,2.13,0v.9a2.5,2.5,0,0,0,2.68,2.52l.18-14.73A2.5,2.5,0,0,0,616,849.11Z"/><path class="cls-8" d="M442.8,851.85a28.86,28.86,0,1,1-28.5-29.21A28.86,28.86,0,0,1,442.8,851.85Z"/><path class="cls-1" d="M420.72,859l9,10.54,2.08-1.77-9.28-10.9a10,10,0,0,0,1.56-5.21l.14-10.85-3.77,0,.06-4.88a6.35,6.35,0,0,0-12.7-.15l0,3.8-7.29-8.56-2.08,1.77,6.66,7.83H404l-.13,10.85a10.1,10.1,0,0,0,8.47,10.07l-.06,4.37a6.31,6.31,0,0,0-4.75,4.82l12.44.16a6.36,6.36,0,0,0-4.63-4.95l.05-4.37A10,10,0,0,0,420.72,859Zm.71-15.49-.1,8.12a7.44,7.44,0,0,1-.71,3l-1.26-1.48a6.23,6.23,0,0,0,.95-3.23l.08-6.45Zm-14.87,7.94.1-8.13h.73l.31.36-.08,6.1a6.34,6.34,0,0,0,6.27,6.42,6.24,6.24,0,0,0,3.57-1l1.5,1.77a7.33,7.33,0,0,1-5,2h-.1A7.39,7.39,0,0,1,406.56,851.42Z"/><path class="cls-9" d="M841.25,653.5c.34.2.67.4,1,.57Z"/><path class="cls-10" d="M565.57,330.1a18.55,18.55,0,0,0,1.29-10.75,7.48,7.48,0,0,0-1.49-3.63,4.06,4.06,0,0,0-3.78-1.3c-1.84.3-2.79,1.65-3.14,3.5l-.54-.24h0s-11.7-11.3-15.28-9.52S548.43,321,548.43,321s-15.4-9.16-18.6-6,14,10.42,14,10.42-13.19-2.77-14.83.1,13.85,7.48,13.85,7.48-8.63.27-10.29,1.94,12.8,5.7,12.8,5.7a13.13,13.13,0,0,0,18.17-3.93A12.88,12.88,0,0,0,565.57,330.1Z"/><path class="cls-11" d="M670.21,342.79c-.84,1.19-52.09,51.17-55.65,48.55s-42.75-62.59-44.53-65-20.19,15.21-22,15.62,50.47,87.56,60.56,93.86,65.56-56,65.56-56"/><path class="cls-12" d="M698.5,322.46S616.11,402.72,626,527.86h78.36Z"/><path class="cls-1" d="M724.59,637.82s-3.63,15.06-19.67,26.94-49-29.28-49-29.28Z"/><path class="cls-10" d="M525.87,746.48c12.6-7.18,15.58-7.54,17.45-15.74l.26-4.91c0-6.75,0-13.6.16-20.5l21.47,4.92,4.36-3.13.41,4.23.09,0-.06.36c.85,8.74,1.6,32.41,3.14,34.72,3,4.41,2.23,1.27,4,8.73s-30.91,10.11-42.4,9.31S513.28,753.66,525.87,746.48Z"/><path class="cls-13" d="M571.89,738.87s9.66,18.93,7.12,22-51.92,2.32-51.25-1.64S567.19,761.13,571.89,738.87Z"/><path class="cls-13" d="M577.16,755.18c-1.55,5.44-38.73,3-43.07,1.48-12.87-4.42.37-14,3.2-16.61,3.32-3-37.82,13.3-39.86,21.07s52.89,8.82,52.89,8.82-.32.23,1.73,4c1.72,3.15,20.85,1.1,26-.7C583.49,771.28,577.16,755.18,577.16,755.18Z"/><path class="cls-10" d="M454,655.17h0c4.76-8.89,9.68-18.07,14.8-27.26l20.36,17.76c-2.29,3.07-4.64,6.27-7,9.55-3.36,4.77,4.54,17.38,2.77,20s-55.67,34.73-61,36.07S443.54,668,454,655.17Z"/><path class="cls-14" d="M735.82,517.82c-63.19,3.33-205.54,21.88-205.42,39,.26,38.68-5.93,116,2.65,156.67l43.7,0c5.33-36.19,13.51-85.15,8.27-114.57-.84-4.75,142.82,26.66,164.17-3.27a55.64,55.64,0,0,0-13.37-77.88Z"/><path class="cls-15" d="M770.47,517.79c-60-20-189.7-23.94-205-16.2C535.27,516.91,479.66,595,459.45,631.32l32.93,22c16.91-10.16,39.84-36,90.35-92.7,3.21-3.6,140.9,54.56,171.71,34.51a55.64,55.64,0,0,0,16-77.38Z"/><path class="cls-12" d="M719.5,325.15c.91-.14,1.82-.25,2.74-.34,15.28-1.43,26.31,16.43,28.79,29.51,3,15.72-.6,31.87-.43,47.87.33,31.42,14.9,60.65,24.29,90.64s12.75,65.52-6.53,90.35c-14.46-1.19-28.87-2.88-43.27-4.64-2.86-.35-51.28.12-51.29.09-1.46-7,5.25-50.77,5.25-50.77s-20.89-16.43-25.28-23.28c-4.62-7.2-1.32-10.76-.95-19.1.82-18.36,2.74-36.65,5.38-54.83a643.82,643.82,0,0,1,14.24-70.4c3.37-12.86,5.57-17.25,17.45-23.88C698.94,331.33,709.1,326.69,719.5,325.15Z"/><path class="cls-11" d="M709,514.09s45.71-7.87,46.63-5.55,2.32,9.31,0,9.28-46.63,5.7-46.63,5.7Z"/><path class="cls-8" d="M646.76,500.68c2.11-57.84,10.94-134.59,36.07-169.15h34c-2.14,0-43.75,62.71-41.41,196.33A169.48,169.48,0,0,1,646.76,500.68Z"/><path class="cls-13" d="M482.49,664.76c1.76,5.37-30.38,24.22-34.81,25.42-13.14,3.56-7.57-11.8-6.68-15.54,1-4.38-23.82,32.24-21.15,39.81S472.4,689.6,472.4,689.6s-3.12,4.81.44,5.25,20.49-12.91,20-18.7S482.49,664.76,482.49,664.76Z"/><path class="cls-16" d="M781.1,637.82c3.77-8,5.47-20.38,6.21-28.39,12.91-61.69,40.7-202.58,32.29-204.88-10.68-2.93-27.31-7.76-30.87,0s-1.36,183-24.73,196h0c-63-3-166.76-8.39-166.76-8.39s-4.46,40.41,16.77,44.55,151.63,14.69,162.14,7.64a15.88,15.88,0,0,0,4.94-6.5h0Z"/><path class="cls-1" d="M704.33,659.42s-8.09,84.94-10.87,85.53,0-85.53,0-85.53Z"/><path class="cls-1" d="M735.43,751.43c10.89,2.42-44.19-38.13-85-2.89a.89.89,0,0,0,.82,1.54C661.11,747.14,689.4,741.24,735.43,751.43Z"/><path class="cls-1" d="M733.22,754.14c-1.43-2.5-5-3.27-7.57-2a8.42,8.42,0,0,0-4.32,7c-.32,4.85,4.07,9.52,9.06,7.25C734.2,764.67,735.07,757.39,733.22,754.14Z"/><path class="cls-1" d="M654.79,752.52c1.42-2.5,5-3.27,7.57-2a8.41,8.41,0,0,1,4.31,7c.33,4.85-4.06,9.52-9.06,7.25C653.81,763.05,652.93,755.77,654.79,752.52Z"/><path class="cls-1" d="M700,740.57s2.67-19.89,1.49-22-11.29-2.82-12.47-.29c-.52,1.1-1.78,20.47-1.78,20.47"/><path class="cls-1" d="M668.19,610.54c56.13,12.2,76.59,3.56,76,0s-24.31-1.86-26.36-7.12,87.51-87,86.33-105.53-196.48-53-210.16-36.38,97.57,125.28,90.93,130.62S640.87,604.6,668.19,610.54ZM711.14,583a8.6,8.6,0,0,1-12.67-.63c-21.38-25.72-79.43-89.82-73-97.75,6.82-8.46,152,17.22,154.26,23.16C781.56,512.67,730,564.33,711.14,583Z"/><path class="cls-17" d="M751.81,308.13c7.42,3.42,12.91,12.19,10.14,19.88-1.08,3-3.24,5.49-5,8.16s-3.21,5.84-2.59,9a9.52,9.52,0,0,0,5.72,6.52,19.51,19.51,0,0,0,8.85,1.2c-4.25,2.08-8.63,4.05-13.31,4.77s-9.73.06-13.55-2.72c-5-3.65-7-10.05-9.1-15.88s-5.31-12.08-11.19-14c-3-1-6.66-.84-8.94-3.08-7.31-7.17,6.68-15.38,12.58-16.15C733.47,304.71,744.37,304.69,751.81,308.13Z"/><path class="cls-10" d="M715.21,320.16c3,.41,6.37,1.61,7.44,4.45.9,2.36-.19,5.11-2,6.88a19.81,19.81,0,0,1-6.54,3.73l-34.13,14a2.7,2.7,0,0,1-1.59.31c-1.43-.3-1.45-2.34-1-3.75C682.11,329.85,698.37,317.91,715.21,320.16Z"/><path class="cls-17" d="M648.39,168.45c-2.31,13.71-9,26.29-16.54,38s-16,22.78-22.61,35-11.21,26-10.18,39.88,8.56,27.78,21.11,33.76c8.84,4.21,19,4.18,28.82,4,25.31-.42,51.82-1.5,73.75-14.14"/><path class="cls-17" d="M765.36,150.67c15.92,29.85,58.27,37,75.41,66.13,11.69,19.88,8.11,46.58-5.81,65s-36.61,28.85-59.54,31.3-46.12-2.44-67.8-10.27"/><path class="cls-10" d="M712.44,335.29h.2a10,10,0,0,0,9.94-9.74l.75-41.66-15.37.53c-8.71.3-5.27,14.87-5.3,21.06l-.13,19.83A9.84,9.84,0,0,0,712.44,335.29Z"/><path class="cls-10" d="M780.76,228.08c.74-5.15,5.87-9.17,11.08-9a12.29,12.29,0,0,1,11,9.43,13.91,13.91,0,0,1-5.28,13.79,16,16,0,0,1-14.86,2"/><path class="cls-18" d="M632.78,260.48c6.18,19.37,18.1,37.73,36,47.38,19.14,10.32,42.57,9.42,63.51,3.6,17.62-4.9,35.15-13.8,45-29.24,15.57-24.48,7.36-56.44-1.32-84.12-4.87-15.52-10.29-31.9-22.65-42.47C740.34,144.57,722.09,142,705.09,143s-33.83,5.12-48.1,14.16C619.76,180.74,620.69,222.62,632.78,260.48Z"/><path class="cls-10" d="M666.47,291A74.73,74.73,0,0,1,655,275c-12.06-22.57-15.65-52.46-1.79-75,4.37-7.11,11.32-13.82,19.66-13.58,7.38.22,13.36,5.7,19.25,10.15a86.44,86.44,0,0,0,58.93,16.94c5.84-.5,11.87-1.59,17.44.25,10.9,3.6,12.13,18.89,12.25,28.44a65.82,65.82,0,0,1-42,63.38c-16,6.59-34.61,7.39-50.57.72A63.67,63.67,0,0,1,666.47,291Z"/><path class="cls-1" d="M656.83,242.36a6.21,6.21,0,0,1,3.35,1.32,7.94,7.94,0,0,1,3.2,7,6.74,6.74,0,0,1-5,5.74C648.92,258.64,648.29,241.93,656.83,242.36Z"/><path class="cls-1" d="M739,237.1a6.26,6.26,0,0,1,3.35,1.32,7.94,7.94,0,0,1,3.2,7,6.73,6.73,0,0,1-4.94,5.74C731.07,253.38,730.44,236.68,739,237.1Z"/><path class="cls-17" d="M720,203.51c-25.94-10.45-48.3-31.86-55.52-58.88-2.42-9-3-19.19,1.67-27.31,5-8.75,15-13.36,24.82-15.83a91.39,91.39,0,0,1,60,5.21,85.16,85.16,0,0,1,42.26,42.62A108.36,108.36,0,0,1,800.82,178c.69,5,1.13,9.95,1.47,14.95.26,3.9,1.73,10,.61,13.76-1.92,6.43-16.56,5.26-22.23,5.59a161.1,161.1,0,0,1-29.54-.88A125.2,125.2,0,0,1,720,203.51Z"/><path class="cls-17" d="M625.31,259.79c-9.12-15.53-6.37-39.5-6-57.51a91.77,91.77,0,0,1,16.27-50.7c5.15-7.36,11.66-14.08,19.88-17.71s18.37-3.7,25.76,1.42c5.68,3.94,12.07,15.61,6.59,22-2.08,2.44-.17,10.35-2.66,12.45-7.33,6.16-17.08,8.63-24.92,14.12-10.47,7.34-20.12,17.91-24.27,30.2C632.45,224.36,626.11,249,625.31,259.79Z"/><path class="cls-17" d="M792.89,257.88c1.32,7.13,2.15,15.74-3.39,20.4l-24.15-72.52c-2.36-7.11-.37-16.57,9.37-14.9,5.86,1,6.87,6.69,7.92,11.72C786.46,220.92,789.47,239.47,792.89,257.88Z"/><path class="cls-17" d="M691.85,179.31c-11.35-3.62-24.2.69-33,8.78S645,207.5,642,219a112.8,112.8,0,0,0,7.18,76.78c-7.56-5.79-15.18-11.64-21.4-18.85s-11-16-11.93-25.46c-1-10.35,2.68-20.52,6.29-30.27,4-10.85,8.09-21.73,13.62-31.9s12.59-19.66,21.78-26.7c4.25-3.25,9-6,14.26-7s11-.28,15.29,2.94,6.66,9.08,5,14.17"/><path class="cls-17" d="M763,223.28c.62.77,1.2,1.89.59,2.67s-1.93.44-2.86,0c-4.21-2-8.47-3.93-12.63-6-2.81-1.41-5.1-2.16-2-4.42C751.3,211.72,760,219.65,763,223.28Z"/><path class="cls-17" d="M647.51,217.32c-.62.77-1.2,1.89-.59,2.66s1.93.44,2.86,0c4.21-2,8.47-3.93,12.63-6,2.81-1.41,5.09-2.17,2-4.42C659.16,205.76,650.42,213.69,647.51,217.32Z"/><path class="cls-1" d="M691.76,268.31a7.21,7.21,0,0,0,3.35-.79,1.14,1.14,0,0,0-1-2,5.32,5.32,0,1,1,.67-9,1.12,1.12,0,0,0,1.13.12,1.16,1.16,0,0,0,.66-.92l1-9.26a1.14,1.14,0,0,0-1-1.25,1.15,1.15,0,0,0-1.25,1l-.79,7.59a7.57,7.57,0,0,0-8.93,11.52A7.79,7.79,0,0,0,691.76,268.31Z"/><path class="cls-1" d="M728.2,267.61a24.31,24.31,0,0,1-15.14-18.36h0c-1.76-10.89,3.55-20.39,13.84-24.77,9.89-4.23,24.12-2.91,32.18,7.77,6.11,8.1,6.1,17.77,0,25.88a28.47,28.47,0,0,1-22,11.12A24.45,24.45,0,0,1,728.2,267.61Zm.48-39c-8.4,3.58-12.56,11-11.13,19.86a19.66,19.66,0,0,0,12.29,14.84c9.85,3.81,20.54-1.27,25.59-8,4.9-6.49,4.91-13.93,0-20.4a21.28,21.28,0,0,0-17.32-8.22A24.22,24.22,0,0,0,728.68,228.66Z"/><path class="cls-1" d="M659.22,270.29c-7.48-.42-14.41-3.54-18.53-8.34-8-9.26-7.28-24.26,1.49-32.76,8.61-8.36,23.93-8.59,32.79-.5a23.05,23.05,0,0,1,5.76,8.7A23,23,0,0,1,697,229.33a22.26,22.26,0,0,1,19.83,11.25l-4,2.19a17.64,17.64,0,0,0-15.69-8.9c-5.91.22-13.47,4.46-14.87,10.21a30.12,30.12,0,0,0-.66,6.47c-.14,4.71-.28,9.58-5.4,14.34-3.81,3.54-9.22,5.45-15.35,5.45C660.36,270.34,659.8,270.32,659.22,270.29Zm18.52-26.91a20.8,20.8,0,0,0-5.84-11.33c-7.17-6.56-19.59-6.37-26.56.4s-7.54,19.17-1.2,26.54c3.28,3.82,9.16,6.41,15.34,6.76,5.51.32,10.49-1.22,13.7-4.2,3.72-3.46,3.82-6.84,4-11.13a35.85,35.85,0,0,1,.7-7.06Z"/><path class="cls-1" d="M761.88,247.81a2.24,2.24,0,0,0,1.59-.65,346,346,0,0,1,28.13-24.91,2.28,2.28,0,1,0-2.83-3.57,351.62,351.62,0,0,0-28.49,25.24,2.28,2.28,0,0,0,0,3.22A2.25,2.25,0,0,0,761.88,247.81Z"/><path class="cls-1" d="M638.06,242.44a2.38,2.38,0,0,0,.46,0,2.29,2.29,0,0,0,1.77-2.69,33.77,33.77,0,0,0-10.54-18.22,2.27,2.27,0,0,0-3,3.4,29,29,0,0,1,9.1,15.74A2.27,2.27,0,0,0,638.06,242.44Z"/><path class="cls-1" d="M714,272.31a2.37,2.37,0,0,1,1.62,0,1.88,1.88,0,0,1,.76,1.09,12.86,12.86,0,0,1-1.7,11.67c-7.48,10.25-23.89,3.28-27.45-6.86-.44-1.27-.61-2.92.44-3.77,1.22-1,3-.15,4.37.53a20.36,20.36,0,0,0,13.46,1.45C707.19,276,711.42,273,714,272.31Z"/><path class="cls-10" d="M670.21,456.1s-21.14-1.7-23,3.15,6.31,4.41,6.69,7.08-21.44,6.23-21.89,13.8,19.09-4,19.09-4-13.89,7.49-8.32,9.28c7.87,2.52,15-5.28,15-5.28s-5.31-1.44-7.91,5.12c-2.17,5.5,12.44-.92,11.06-2.2,0,0-5.86,9.55-3.15,9.55s10.27-18.39,10.27-18.39,6.91-.08,7.8-2S671.63,456.2,670.21,456.1Z"/><path class="cls-11" d="M738.84,339c6-3.1,49.07,121.28,38.46,135.53s-105.54,0-105.54,0-3.49-18.62,0-25.34,60.49,2.78,58.71-5.53-22.55-77.76-22.85-85.79S732.61,342.26,738.84,339Z"/><path class="cls-11" d="M723.14,321.56c1.88-.61,13,6.78,14.21,7.68,4.35,3.12,10.34,7.87,10.25,13.82-.16,11.26-43,18.91-53.36,37.28.56-1,.43-3.15.62-4.27a116.15,116.15,0,0,1,2.53-11.35,111.27,111.27,0,0,1,5.34-15.33c.91-2.09,2.25-3.78,3.17-5.83a68.29,68.29,0,0,1,3.47-7.71,18.62,18.62,0,0,1,7.76-7.52,30.91,30.91,0,0,0,3.45-1.61,4.23,4.23,0,0,0,2.12-3,4.52,4.52,0,0,1,.22-2A.38.38,0,0,1,723.14,321.56Z"/><path class="cls-12" d="M663.42,375.62s20.4-41.22,38.93-54.48c-3.85,1.32-39.33,7.05-43.57,13.59s9.81,14.2,8.22,16.67c-4.75,7.39-16.2,41.64-19.26,48.94"/><path class="cls-12" d="M702.35,371.53s25.49-13.43,32.28-17.19-27.71,26.72-29,34.43S702.35,371.53,702.35,371.53Z"/><path class="cls-2" d="M575.55,229s-33-19.09-35-34.4S542.77,63.12,529.46,51.2s-402-18.22-423.72,0c-19.68,16.53-19.68,278.22,0,288.21,21.16,10.74,379.17,12.82,395.21-3.14,15.06-15,4.06-84.88,19.31-88.92S573.89,247.42,575.55,229Z"/><text class="cls-19" transform="translate(267.26 167.72)">CH<tspan class="cls-20" x="21.68" y="0">A</tspan><tspan class="cls-21" x="31.1" y="0">T</tspan><tspan class="cls-22" x="40.51" y="0">TING</tspan><tspan class="cls-23" x="76.42" y="0"> </tspan><tspan x="79.51" y="0">WITH</tspan></text><text class="cls-24" transform="translate(172.5 223.36)">THE<tspan class="cls-25" x="101.09" y="0">R</tspan><tspan x="134.53" y="0">APIST</tspan></text></g></svg>