<svg xmlns="http://www.w3.org/2000/svg" xmlns:xlink="http://www.w3.org/1999/xlink" viewBox="0 0 1200 1200"><defs><style>.cls-1{mask:url(#mask);filter:url(#luminosity-noclip-2);}.cls-14,.cls-2,.cls-5,.cls-8{mix-blend-mode:multiply;}.cls-2{fill:url(#radial-gradient);}.cls-3{isolation:isolate;}.cls-4{mask:url(#mask-2);}.cls-5{fill:url(#radial-gradient-2);}.cls-6{fill:#e6e7e8;}.cls-7{fill:#bf8858;}.cls-14,.cls-8{fill:#f6ccb8;}.cls-9{fill:#a4d8ed;}.cls-10{fill:#42404d;}.cls-11{fill:#85cbe7;}.cls-12{fill:#ebebeb;}.cls-13{fill:#fff;}.cls-14{opacity:0.8;}.cls-15{fill:#3c2417;}.cls-16{fill:#43414d;}.cls-17{filter:url(#luminosity-noclip);}</style><filter id="luminosity-noclip" x="123.9" y="-8792" width="952.2" height="32766" filterUnits="userSpaceOnUse" color-interpolation-filters="sRGB"><feFlood flood-color="#fff" result="bg"/><feBlend in="SourceGraphic" in2="bg"/></filter><mask id="mask" x="123.9" y="-8792" width="952.2" height="32766" maskUnits="userSpaceOnUse"><g class="cls-17"/></mask><radialGradient id="radial-gradient" cx="600" cy="6505.71" r="476.03" gradientTransform="translate(0 229.31) scale(1 0.14)" gradientUnits="userSpaceOnUse"><stop offset="0" stop-color="#fff"/><stop offset="0.12" stop-color="#fbfbfb"/><stop offset="0.25" stop-color="#eee"/><stop offset="0.37" stop-color="#dadada"/><stop offset="0.5" stop-color="#bcbcbc"/><stop offset="0.63" stop-color="#979797"/><stop offset="0.76" stop-color="#696969"/><stop offset="0.89" stop-color="#343434"/><stop offset="1"/></radialGradient><filter id="luminosity-noclip-2" x="123.9" y="1054.78" width="952.2" height="130.32" filterUnits="userSpaceOnUse" color-interpolation-filters="sRGB"><feFlood flood-color="#fff" result="bg"/><feBlend in="SourceGraphic" in2="bg"/></filter><mask id="mask-2" x="123.9" y="1054.78" width="952.2" height="130.32" maskUnits="userSpaceOnUse"><g class="cls-1"><ellipse id="shadow" class="cls-2" cx="600" cy="1119.94" rx="476.1" ry="65.16"/></g></mask><radialGradient id="radial-gradient-2" cx="600" cy="6505.71" r="476.03" gradientTransform="translate(0 229.31) scale(1 0.14)" gradientUnits="userSpaceOnUse"><stop offset="0" stop-color="#a6a6a6"/><stop offset="0.21" stop-color="#aaa"/><stop offset="0.42" stop-color="#b7b7b7"/><stop offset="0.64" stop-color="#cbcbcb"/><stop offset="0.86" stop-color="#e8e8e8"/><stop offset="1" stop-color="#fff"/></radialGradient></defs><g class="cls-3"><g id="medical_staff" data-name="medical staff"><g id="doctor"><g class="cls-4"><ellipse id="shadow-2" data-name="shadow" class="cls-5" cx="600" cy="1119.94" rx="476.1" ry="65.16"/></g><rect class="cls-6" x="496.01" y="680.95" width="207.97" height="89.15"/><polygon class="cls-7" points="712.87 707.71 686.07 695.36 686.07 610.15 514.05 610.15 514.05 695.36 487.13 706.97 494.3 948.61 514.05 948.61 514.05 985.66 686.07 985.66 686.07 948.61 705.71 948.61 712.87 707.71"/><polygon class="cls-8" points="514.05 610.15 514.05 658.98 686.07 689.8 686.07 610.15 514.05 610.15"/><path class="cls-9" d="M822.93,1125.9c3.27-127-3.76-378.59-107.65-417.63l-6.39,24c-11.06,31.69-39.42,83.51-106.75,83.51-76,0-104.95-66-113.94-94.56l-3.45-13c-103.89,39-107,290.64-101.66,417.63Z"/><polygon class="cls-10" points="641.4 803.95 624.89 835.58 574.64 835.58 558.6 803.95 600 770.1 641.4 803.95"/><path class="cls-11" d="M600,770.11l-52.9,55.7L456.65,717.89l56.45-28.12,21.24,19.65Z"/><polygon class="cls-11" points="686.96 689.8 600.02 770.1 652.92 825.83 743.35 717.85 686.96 689.8"/><polygon class="cls-10" points="633.81 1125.9 625.02 843.13 574.77 843.13 566.19 1125.9 633.81 1125.9"/><path class="cls-12" d="M196.32,854.81,156.91,1125.9H591L481.84,702.18,295,746.81A130.31,130.31,0,0,0,196.32,854.81Z"/><path class="cls-12" d="M905.38,746.58l-183.07-44.4L613.13,1125.9h430l-39.46-271.42A130.32,130.32,0,0,0,905.38,746.58Z"/><polygon class="cls-13" points="466.37 834.14 434.43 877.8 574.67 1125.9 589.77 1125.9 494.9 680.95 422.52 718.18 425.32 800.37 466.37 834.14"/><polygon class="cls-13" points="625.33 1125.9 765.57 877.8 733.63 834.14 774.68 800.37 777.48 718.18 705.1 680.95 610.23 1125.9 625.33 1125.9"/><path class="cls-7" d="M787.72,365.94l5.82-75.69c0-99-94.61-179.19-193.53-179.19s-193.52,80.2-193.52,179.19l5.82,75.62a35,35,0,0,0-14.71,7.45A35.68,35.68,0,0,0,385,400.63V437.9a35.78,35.78,0,0,0,35.61,35.81c0,93.48,112.31,182.08,179.41,182.08S779.43,567.2,779.43,473.73A35.82,35.82,0,0,0,815,437.91V400.64A35.78,35.78,0,0,0,787.72,365.94Z"/><path class="cls-14" d="M787.72,365.94l5.82-75.69c0-99-94.61-179.19-193.53-179.19,0,0,0,254.45,0,254.45-26.14,55.6-43,136.18-43,136.18h43v154.1c67.16,0,179.45-88.6,179.45-182.06A35.82,35.82,0,0,0,815,437.91V400.64A35.78,35.78,0,0,0,787.72,365.94Z"/><path class="cls-15" d="M685.58,546c-25.69-26.83-79-29.68-85-29.92a10.84,10.84,0,0,0-1.14,0c-6,.24-59.32,3.09-85,29.92a14.28,14.28,0,0,0-4,10c.33,37,6.54,72.17,7.11,73.65a14.25,14.25,0,0,0,4.4,6c1.2,1,37.13,23.71,78,23.71s76.86-22.73,78.07-23.7a14.3,14.3,0,0,0,4.41-6c.57-1.48,6.77-36.64,7.11-73.64A14.33,14.33,0,0,0,685.58,546Zm-28.51,69.47c-5.2,3.39-24,10-39.18,13.29V609.51a17.92,17.92,0,0,0-35.84,0v19.22c-15.23-3.3-33.95-9.9-39.13-13.29-2.92-8.63-2.35-30.33-3.61-53.33,16.63-12.6,48.26-16.79,60.69-17.39,12.44.61,44.06,4.8,60.68,17.38C659.42,585,660,606.77,657.07,615.44Z"/><path class="cls-15" d="M819.05,182.79a39.91,39.91,0,0,0-34.48-39.51A43.63,43.63,0,0,0,763,112.77c.13-1.43.22-2.88.22-4.35A47.37,47.37,0,0,0,702.73,62.8,50.35,50.35,0,0,0,636.2,48.28a47.56,47.56,0,0,0-59.79,1.33,44.36,44.36,0,0,0-63.17,15.47A35.39,35.39,0,0,0,461.31,93.3c-.57.79-1.18,1.55-1.7,2.38a44.13,44.13,0,0,0-35.71,33c-1.06-.09-2.12-.16-3.21-.16A39.69,39.69,0,0,0,391.35,195c-8.66,56.51-2.77,156.36,7.63,201.4,1.88,8.16,13.82,7,14.13-1.41,2-53.74,14.52-156.38,68.59-148.52,51.63,7.51,89.92,10.07,118.7,9.85,28.77.22,67.06-2.34,118.69-9.85,54.07-7.86,66.56,94.78,68.59,148.52.32,8.37,12.25,9.57,14.14,1.41,9.7-42.05,15.47-131.84,9.15-189.57A39.72,39.72,0,0,0,819.05,182.79Z"/><path class="cls-16" d="M708.19,436.83c-57.16,0-79.83-16.28-89.83-64.53a47,47,0,0,1-.54-16.7l.08-.46-.4-.26c-4.08-2.6-10-3.92-17.5-3.92s-13.42,1.32-17.5,3.92l-.4.26.08.46a46.94,46.94,0,0,1-.54,16.7c-10,48.25-32.66,64.53-89.83,64.53C424.23,436.83,411,412.69,411,371a64,64,0,0,1,1.83-15.5l.16-.63-13-4.55V323.59h38.36c13.55-7,31.42-10.52,53.43-10.52,39.46,0,66.49,7.49,80.34,22.27l.38.41.48-.27c9.17-5,18.25-7.54,27-7.54s17.82,2.53,27,7.54l.48.27.38-.41c13.85-14.78,40.88-22.27,80.34-22.27,22,0,39.88,3.51,53.1,10.44l38.69.08v26.72l-13,4.55.15.63A63.49,63.49,0,0,1,789,371C789,412.69,775.78,436.83,708.19,436.83Zm0-101.24c-41.22,0-64.38,4.88-72.91,15.36-5.21,6.4-9,12.08-7,21.79,9,43.36,26.17,55.23,79.94,55.23,67.11,0,72.45-25.36,72.45-58.51C780.64,347,756.26,335.59,708.19,335.59Zm-216.38,0c-48.07,0-72.45,11.4-72.45,33.87,0,33.15,5.34,58.51,72.45,58.51,53.77,0,71-11.87,79.94-55.23,2-9.71-1.82-15.39-7-21.79C556.19,340.47,533,335.59,491.81,335.59Z"/></g></g></g></svg>