<svg viewBox="0 0 1846.46809 1999" xmlns="http://www.w3.org/2000/svg"><path d="m1795.08525 149.28012a49.44127 49.44127 0 0 0 -27.77594-8.48972h-56.51287v84.3522h-.01875v1604.1054a49.731 49.731 0 0 1 -49.69645 49.75057h-1518.0759v56.48669a49.73132 49.73132 0 0 0 49.69609 49.75234h1574.60788a49.73331 49.73331 0 0 0 49.69821-49.75234v-1604.12202h.01663v-140.83924a49.67183 49.67183 0 0 0 -21.9389-41.24388z" fill="#a0d2ee"/><path d="m1710.77769 84.32252v1744.92548a49.731 49.731 0 0 1 -49.69645 49.75057h-1574.59832a49.73352 49.73352 0 0 1 -49.70741-49.75057v-1744.92548a49.73777 49.73777 0 0 1 49.70741-49.76933h1574.59832a49.73522 49.73522 0 0 1 49.69645 49.76933z" fill="#fff"/><path d="m1710.77769 477.6v1351.648a49.731 49.731 0 0 1 -49.69645 49.75057h-1574.59832a49.73352 49.73352 0 0 1 -49.70741-49.75057v-758.577c95.01182 167.42664 236.49144 308.412 409.02235 392.83735 227.88191 111.47033 508.64531 117.56354 733.462.11039 172.25741-89.97159 304.62321-245.70432 389.26974-420.5963 84.64653-174.94577 124.37113-368.64777 141.97462-562.18455z" fill="#f6f6f6"/><path d="m1710.79644 225.1426v-140.83883a49.73667 49.73667 0 0 0 -49.734-49.73359h-1574.56254a49.7369 49.7369 0 0 0 -49.7339 49.73359v140.83883z" fill="#85ccee"/><path d="m906.74053 956.82083c0 159.52184-97.58236 296.171-236.27207 353.6265a383.61978 383.61978 0 0 1 -292.91276 0c-138.68785-57.54713-236.27065-194.19666-236.27065-353.6265 0-211.4495 171.40477-382.77352 382.7644-382.77352 211.36706 0 382.69108 171.32402 382.69108 382.77352z" fill="#66c4da"/><path d="m693.99072 1159.14165-4.30958 1.29854c-.16488 6.60661-.41008 13.26594-.73985 19.87256l-.23812 3.32949c-1.06254 18.06062-2.77292 36.04624-4.96876 53.96073-.64856 4.79326-1.14285 9.5147-1.94851 14.23649-.731 4.72-1.47333 9.44181-2.27686 14.16148-1.63007 9.36857-3.5057 18.81-5.37955 28.15984-1.13543 5.45456-2.36072 10.83376-3.661 16.28655a383.61978 383.61978 0 0 1 -292.91276 0c-1.29854-5.45279-2.52383-10.832-3.57717-16.28655-1.95771-9.34982-3.75089-18.79127-5.37919-28.15984-.81522-4.71967-1.6283-9.44146-2.36108-14.16148-.73064-4.72179-1.21574-9.44323-1.86607-14.23649-2.19583-17.91449-3.989-35.90011-4.96734-53.96073l-.24724-3.32949c-.40274-6.60662-.56727-13.26595-.73241-19.87256l-4.30791-1.29854s-2.44307-26.76967 11.07012-69.49576c7.08073-25.06812 22.46016-57.87687 55.99168-79.35685 2.52383-1.70331 3.98725-2.526 3.98725-2.526a119.16917 119.16917 0 0 1 11.63765-6.02 137.228 137.228 0 0 1 20.01869-7.4105l.7402.56753 1.54763-.80566a121.05053 121.05053 0 0 1 11.87542-5.2147l1.54586-.64074 2.77151-.98717c3.01069-1.06254 6.02-1.95807 9.11355-2.85572l-.89766-19.59693-1.5455-23.202a118.52986 118.52986 0 0 1 -30.60345-12.29541 92.591 92.591 0 0 1 -29.54259-26.93455c-11.07011-16.28619-16.67787-35.57034-18.30582-55.25927-11.638-3.34824-24.42027-14.98589-25.3986-24.42734-2.11339-14.80438 5.05014-19.1964 13.99872-18.06063-2.44342-5.61767-4.1447-13.43083-3.90693-24.24583.64856-30.684 3.42148-68.2871 20.02612-94.98392 14.73114-23.76777 40.44782-38.82871 67.62969-43.87845 28.72782-5.36045 61.85678-6.91586 90.33683.49464 21.975 5.69056 42.65356 19.28628 52.74323 40.2005 16.76208 35.00458 13.10071 73.247 11.55485 110.77542a124.70379 124.70379 0 0 1 -1.21577 13.50369c11.71973-2.92683 22.29519.98753 17.57517 18.81-1.46518 6.515-8.94893 13.43087-17.41985 17.658 2.60628 23.27494 1.47262 47.37288-15.94687 66.329-14.24392 15.2969-34.50994 26.13066-56.80514 31.82122l.56612 12.69806h-.16343l1.22529 29.13038a123.37507 123.37507 0 0 1 19.5336 5.30631l3.7417 1.37178.56576.23777c1.71251.75152 3.58814 1.48217 5.537 2.36107l.16276.0916 3.33162 2.03135h.08244a136.91274 136.91274 0 0 1 20.02612 7.4105 117.30091 117.30091 0 0 1 11.55556 6.02 43.79354 43.79354 0 0 1 3.98866 2.526c33.61441 21.48 48.99375 54.28873 55.992 79.35685 13.51329 42.72611 11.15221 69.49576 11.15221 69.49576z" fill="#009dab"/><g fill="#9f7ab5"><path d="m1564.39477 501.45984h-539.57694a12.20433 12.20433 0 1 1 0-24.40865h539.57694a12.20433 12.20433 0 1 1 0 24.40865z"/><path d="m1564.39477 614.4686h-539.57694a12.20519 12.20519 0 0 1 0-24.41037h539.57694a12.20519 12.20519 0 0 1 0 24.41037z"/><path d="m1564.39477 727.47559h-539.57694a12.21368 12.21368 0 0 1 0-24.42735h539.57694a12.21368 12.21368 0 0 1 0 24.42735z"/><path d="m1564.39477 840.48435h-539.57694a12.21474 12.21474 0 0 1 0-24.42947h539.57694a12.21474 12.21474 0 0 1 0 24.42947z"/><path d="m1564.39477 953.47255h-539.57694a12.20428 12.20428 0 1 1 0-24.40856h539.57694a12.20428 12.20428 0 1 1 0 24.40856z"/><path d="m1564.39477 1066.48134h-539.57694a12.20536 12.20536 0 0 1 0-24.41071h539.57694a12.20536 12.20536 0 0 1 0 24.41071z"/><path d="m1564.39477 1179.48834h-539.57694a12.20448 12.20448 0 1 1 0-24.409h539.57694a12.20448 12.20448 0 1 1 0 24.409z"/><path d="m1564.39477 1292.4971h-539.57694a12.21368 12.21368 0 0 1 0-24.42735h539.57694a12.21368 12.21368 0 0 1 0 24.42735z"/><path d="m1564.39477 1405.50409h-539.57694a12.21385 12.21385 0 0 1 0-24.4277h539.57694a12.21385 12.21385 0 0 1 0 24.4277z"/><path d="m1564.39477 1518.49409h-1384.72116a12.20447 12.20447 0 1 1 0-24.40894h1384.72116a12.20447 12.20447 0 1 1 0 24.40894z"/><path d="m1564.39477 1631.50285h-1384.72116a12.20536 12.20536 0 0 1 0-24.41071h1384.72116a12.20536 12.20536 0 0 1 0 24.41071z"/><path d="m1564.39477 1744.50984h-1384.72116a12.20448 12.20448 0 1 1 0-24.409h1384.72116a12.20448 12.20448 0 1 1 0 24.409z"/><path d="m888.7719 361.11564h-729.52742a12.20536 12.20536 0 0 1 0-24.41071h729.52742a12.20536 12.20536 0 1 1 0 24.41071z"/><path d="m791.46482 438.47905h-534.9037a12.20536 12.20536 0 0 1 0-24.41072h534.9037a12.20536 12.20536 0 0 1 0 24.41072z"/></g><circle cx="1255.85507" cy="129.84799" fill="#d979af" r="44.26238" transform="matrix(.92265766 -.38562006 .38562006 .92265766 47.05881 494.32576)"/><circle cx="1375.77969" cy="129.84799" fill="#00a970" r="44.26238" transform="matrix(.9226576 -.38562023 .38562023 .9226576 56.33407 540.57113)"/><path d="m1539.97627 129.84807a44.26718 44.26718 0 1 1 -44.26276-44.26275 44.26166 44.26166 0 0 1 44.26276 44.26275z" fill="#d9eaf6"/></svg>