<svg xmlns="http://www.w3.org/2000/svg" xmlns:xlink="http://www.w3.org/1999/xlink" viewBox="0 0 1200 1200"><defs><style>.cls-1{isolation:isolate;}.cls-2{fill:url(#linear-gradient);}.cls-3{fill:url(#linear-gradient-2);}.cls-4{fill:url(#linear-gradient-3);}.cls-11,.cls-16,.cls-18,.cls-24,.cls-5{mix-blend-mode:multiply;}.cls-5{fill:url(#linear-gradient-4);}.cls-6{fill:url(#linear-gradient-5);}.cls-7{fill:url(#linear-gradient-6);}.cls-8{fill:url(#linear-gradient-7);}.cls-9{fill:url(#linear-gradient-8);}.cls-10{fill:url(#linear-gradient-9);}.cls-12{fill:url(#linear-gradient-10);}.cls-13{fill:url(#linear-gradient-11);}.cls-14{fill:url(#linear-gradient-12);}.cls-15{fill:url(#linear-gradient-13);}.cls-16{fill:url(#linear-gradient-14);}.cls-17{fill:url(#linear-gradient-15);}.cls-18{opacity:0.59;fill:url(#linear-gradient-16);}.cls-19{fill:url(#linear-gradient-17);}.cls-20{fill:url(#linear-gradient-18);}.cls-21{fill:url(#linear-gradient-19);}.cls-22{fill:url(#linear-gradient-20);}.cls-23{fill:url(#linear-gradient-21);}.cls-24{fill:url(#linear-gradient-22);}.cls-25{fill:url(#linear-gradient-23);}.cls-26{fill:url(#linear-gradient-24);}.cls-27{fill:url(#linear-gradient-25);}.cls-28{fill:url(#linear-gradient-26);}.cls-29{fill:url(#linear-gradient-27);}</style><linearGradient id="linear-gradient" x1="165.93" y1="-128.21" x2="249.3" y2="690.32" gradientUnits="userSpaceOnUse"><stop offset="0.35" stop-color="#f97979"/><stop offset="0.43" stop-color="#f96f6f"/><stop offset="0.85" stop-color="#f74545"/></linearGradient><linearGradient id="linear-gradient-2" x1="209.01" y1="2.63" x2="276.31" y2="663.42" xlink:href="#linear-gradient"/><linearGradient id="linear-gradient-3" x1="259.8" y1="420.48" x2="255.94" y2="140.48" gradientUnits="userSpaceOnUse"><stop offset="0.05" stop-color="#e9b675"/><stop offset="1" stop-color="#fff"/></linearGradient><linearGradient id="linear-gradient-4" x1="260.77" y1="511.41" x2="259.87" y2="446.19" xlink:href="#linear-gradient-3"/><linearGradient id="linear-gradient-5" x1="260.26" y1="422.81" x2="256.73" y2="166.47" xlink:href="#linear-gradient-3"/><linearGradient id="linear-gradient-6" x1="171.31" y1="-9.92" x2="241.78" y2="682.01" xlink:href="#linear-gradient"/><linearGradient id="linear-gradient-7" x1="288.66" y1="-22.6" x2="359.05" y2="668.57" xlink:href="#linear-gradient"/><linearGradient id="linear-gradient-8" x1="145.65" y1="431.28" x2="142.13" y2="175.42" xlink:href="#linear-gradient-3"/><linearGradient id="linear-gradient-9" x1="374.87" y1="428.26" x2="371.35" y2="172.4" gradientTransform="translate(748.41 750.74) rotate(-180)" xlink:href="#linear-gradient-3"/><linearGradient id="linear-gradient-10" x1="255.73" y1="530.25" x2="257.37" y2="930.59" gradientUnits="userSpaceOnUse"><stop offset="0.35" stop-color="#f97979" stop-opacity="0"/><stop offset="0.53" stop-color="#f86565" stop-opacity="0.39"/><stop offset="0.75" stop-color="#f74e4e" stop-opacity="0.83"/><stop offset="0.85" stop-color="#f74545"/></linearGradient><linearGradient id="linear-gradient-11" x1="831.67" y1="366.38" x2="827.98" y2="98.3" xlink:href="#linear-gradient-3"/><linearGradient id="linear-gradient-12" x1="843.92" y1="-287.88" x2="939.78" y2="653.32" gradientUnits="userSpaceOnUse"><stop offset="0.01" stop-color="#3ac7f2"/><stop offset="1" stop-color="#1e85c7"/></linearGradient><linearGradient id="linear-gradient-13" x1="951.03" y1="352.02" x2="946.97" y2="57.95" xlink:href="#linear-gradient-3"/><linearGradient id="linear-gradient-14" x1="952.28" y1="447.29" x2="951.34" y2="378.96" xlink:href="#linear-gradient-3"/><linearGradient id="linear-gradient-15" x1="951.75" y1="354.46" x2="948.05" y2="85.9" xlink:href="#linear-gradient-3"/><linearGradient id="linear-gradient-16" x1="946.9" y1="465.08" x2="948.8" y2="931.18" gradientUnits="userSpaceOnUse"><stop offset="0.01" stop-color="#3ac7f2" stop-opacity="0.3"/><stop offset="1" stop-color="#1e85c7"/></linearGradient><linearGradient id="linear-gradient-17" x1="922.79" y1="-34.5" x2="966.39" y2="393.58" xlink:href="#linear-gradient-12"/><linearGradient id="linear-gradient-18" x1="1071.83" y1="360.18" x2="1068.13" y2="92.1" gradientTransform="translate(2142.25 609.52) rotate(-180)" xlink:href="#linear-gradient-3"/><linearGradient id="linear-gradient-19" x1="607.48" y1="394.26" x2="636.98" y2="640.49" gradientUnits="userSpaceOnUse"><stop offset="0.04" stop-color="#f7c26c"/><stop offset="1" stop-color="#f79b38"/></linearGradient><linearGradient id="linear-gradient-20" x1="546.38" y1="377.39" x2="610.13" y2="909.66" xlink:href="#linear-gradient-19"/><linearGradient id="linear-gradient-21" x1="609.74" y1="620.35" x2="606.78" y2="405.8" xlink:href="#linear-gradient-3"/><linearGradient id="linear-gradient-22" x1="610.48" y1="690.04" x2="609.79" y2="640.06" xlink:href="#linear-gradient-3"/><linearGradient id="linear-gradient-23" x1="610.28" y1="621.77" x2="607.58" y2="426.36" xlink:href="#linear-gradient-3"/><linearGradient id="linear-gradient-24" x1="522.36" y1="628.52" x2="519.67" y2="433.35" xlink:href="#linear-gradient-3"/><linearGradient id="linear-gradient-25" x1="697.83" y1="626.04" x2="695.14" y2="430.88" xlink:href="#linear-gradient-3"/><linearGradient id="linear-gradient-26" x1="606.69" y1="731.49" x2="607.84" y2="1013.32" gradientUnits="userSpaceOnUse"><stop offset="0.34" stop-color="#f7c26c" stop-opacity="0"/><stop offset="1" stop-color="#f79b38"/></linearGradient><linearGradient id="linear-gradient-27" x1="592.03" y1="399.15" x2="652.89" y2="907.31" xlink:href="#linear-gradient-19"/></defs><g class="cls-1"><g id="medical_staff" data-name="medical staff"><path class="cls-2" d="M467.74,963.5H46a19,19,0,0,1-19-19V586.87a64.46,64.46,0,0,1,64.45-64.45H422.26a64.45,64.45,0,0,1,64.45,64.45V944.52A19,19,0,0,1,467.74,963.5Z"/><path class="cls-3" d="M416.46,485.47s-94.17,29-156.95,29c-65.23,0-159.35-26.56-159.35-26.56S138.79,386.48,140,309.21c.93-59.76,235.79-54.84,239,4.83C385.07,425.11,416.46,485.47,416.46,485.47Z"/><path class="cls-4" d="M260.72,603.67h0a50.3,50.3,0,0,1-50.29-50.29V420.86H311V553.38A50.3,50.3,0,0,1,260.72,603.67Z"/><path class="cls-5" d="M309.59,464.94v35.62s-20.81,39.27-98,33.72v-50Z"/><path class="cls-6" d="M170.9,244H348.13a17.63,17.63,0,0,1,17.63,17.63V475.46A36.57,36.57,0,0,1,329.18,512H189.85a36.57,36.57,0,0,1-36.57-36.57V261.65A17.63,17.63,0,0,1,170.9,244Z"/><path class="cls-7" d="M263.17,205.39V232a105.53,105.53,0,0,1-60.64,95.28l-63.74,30.2v-59c0-47.4,44.68-93.07,90.86-93.07Z"/><path class="cls-8" d="M255.86,205.39V232A105.53,105.53,0,0,0,316.5,327.3l63.74,30.2v-59c0-47.4-44.68-93.07-90.86-93.07Z"/><path class="cls-9" d="M137.5,350.26h23a0,0,0,0,1,0,0v50.22a0,0,0,0,1,0,0h-23a8.37,8.37,0,0,1-8.37-8.37V358.63A8.37,8.37,0,0,1,137.5,350.26Z"/><path class="cls-10" d="M366.88,350.26h23a0,0,0,0,1,0,0v50.22a0,0,0,0,1,0,0h-23a8.37,8.37,0,0,1-8.37-8.37V358.63A8.37,8.37,0,0,1,366.88,350.26Z" transform="translate(748.41 750.74) rotate(180)"/><g class="cls-11"><path class="cls-12" d="M397.29,546.35a177.79,177.79,0,0,1,28.48,96.75h0c0,144.9-117.46,262.36-262.36,262.36H27v5.42A52.62,52.62,0,0,0,79.61,963.5H434.1a52.61,52.61,0,0,0,52.61-52.62V701.13A178.59,178.59,0,0,0,397.29,546.35Z"/></g><path class="cls-13" d="M822.74,281.49h24.51a0,0,0,0,1,0,0v52.62a0,0,0,0,1,0,0H822.74a8.37,8.37,0,0,1-8.37-8.37V289.86A8.37,8.37,0,0,1,822.74,281.49Z"/><path class="cls-14" d="M771.82,458.82h352.73A64.45,64.45,0,0,1,1189,523.28V950.6a19,19,0,0,1-19,19H726.34a19,19,0,0,1-19-19V523.28A64.45,64.45,0,0,1,771.82,458.82Z"/><path class="cls-15" d="M899.54,352.41h105.39a0,0,0,0,1,0,0V525.81a18.14,18.14,0,0,1-18.14,18.14H917.68a18.14,18.14,0,0,1-18.14-18.14V352.41A0,0,0,0,1,899.54,352.41Z"/><path class="cls-16" d="M1003.43,398.6v37.32s-21.81,41.14-102.64,35.33V418.83Z"/><path class="cls-17" d="M858.13,167.15H1043.8a18.47,18.47,0,0,1,18.47,18.47v224A38.31,38.31,0,0,1,1024,447.94H878a38.31,38.31,0,0,1-38.31-38.31v-224a18.47,18.47,0,0,1,18.47-18.47Z"/><path class="cls-18" d="M1095.31,483.89a186.28,186.28,0,0,1,29.85,101.36h0c0,151.8-123.07,323.51-274.88,323.51H707.36v5.68a55.12,55.12,0,0,0,55.12,55.13h371.4A55.12,55.12,0,0,0,1189,914.45V646.06A187.12,187.12,0,0,0,1095.31,483.89Z"/><path class="cls-19" d="M1059.67,182.65c-7.16-26-53-46.09-108.45-46.09-46.3,0-85.86,14-101.85,33.73-19.43,18.51-11,116.8-11,116.8s24.68-19.8,24.68-50.2v-1a21.14,21.14,0,0,1,27.65-20.06c17.34,5.6,38.14,8.87,60.51,8.87,21.41,0,41.38-3,58.24-8.16A21.2,21.2,0,0,1,1037,236.72v.17c0,30.4,24.68,50.2,24.68,50.2S1071.49,214.42,1059.67,182.65Z"/><path class="cls-20" d="M1063.05,278.45h24.51a0,0,0,0,1,0,0v52.62a0,0,0,0,1,0,0h-24.51a8.37,8.37,0,0,1-8.37-8.37V286.82A8.37,8.37,0,0,1,1063.05,278.45Z" transform="translate(2142.25 609.52) rotate(180)"/><path class="cls-21" d="M616.8,474h-6.08a27.36,27.36,0,0,1-27.36-27.36h0a27.36,27.36,0,0,1,27.36-27.36h6.08a27.36,27.36,0,0,1,27.36,27.36h0A27.36,27.36,0,0,1,616.8,474Z"/><path class="cls-22" d="M765.77,1036.46H449.2a17.85,17.85,0,0,1-17.85-17.85V759.1A60.63,60.63,0,0,1,492,698.47H723a60.64,60.64,0,0,1,60.63,60.63v259.51A17.85,17.85,0,0,1,765.77,1036.46Z"/><path class="cls-23" d="M610.45,760.73h0a38.53,38.53,0,0,1-38.54-38.54V620.64H649V722.19A38.54,38.54,0,0,1,610.45,760.73Z"/><path class="cls-24" d="M647.89,654.42v27.3s-15.95,30.09-75.07,25.84V669.22Z"/><path class="cls-25" d="M609.52,690.51h0a81.41,81.41,0,0,1-81.41-81.41V524.37a39.23,39.23,0,0,1,39.24-39.23h84.34a39.23,39.23,0,0,1,39.24,39.23V609.1A81.41,81.41,0,0,1,609.52,690.51Z"/><path class="cls-26" d="M533.66,605h-4.81a19.24,19.24,0,0,1-19.24-19.24h0a19.23,19.23,0,0,1,19.24-19.24h4.81Z"/><path class="cls-27" d="M685.38,605h4.81a19.24,19.24,0,0,0,19.24-19.24h0a19.23,19.23,0,0,0-19.24-19.24h-4.81Z"/><g class="cls-11"><path class="cls-28" d="M715.09,742.79a136.22,136.22,0,0,1,21.83,74.14v-26c0,111-90,201-201,201H431.35a44.47,44.47,0,0,0,44.47,44.47H736.48a47.13,47.13,0,0,0,47.14-47.13V861.4A136.87,136.87,0,0,0,715.09,742.79Z"/></g><path class="cls-29" d="M613.26,450.3H604.6a80.85,80.85,0,0,0-80.85,80.85v23.1H653.06a298.44,298.44,0,0,0-1.37-69.11s15.75,18.7,18.8,69.11h23.62v-23.1A80.85,80.85,0,0,0,613.26,450.3Z"/></g></g></svg>